$MeshFormat
2.2 0 8
$EndMeshFormat
$PhysicalNames
2
2 1 "boundary"
3 1 "domain"
$EndPhysicalNames
$Nodes
351
1 0 0 3.141592653589793
2 0 0 0
3 0 3.141592653589793 3.141592653589793
4 0 3.141592653589793 0
5 3.141592653589793 0 3.141592653589793
6 3.141592653589793 0 0
7 3.141592653589793 3.141592653589793 3.141592653589793
8 3.141592653589793 3.141592653589793 0
9 0 0 0.5235987755982999
10 0 0 1.047197551196601
11 0 0 1.570796326794899
12 0 0 2.094395102393197
13 0 0 2.617993877991495
14 0 0.5235987755982999 3.141592653589793
15 0 1.047197551196601 3.141592653589793
16 0 1.570796326794899 3.141592653589793
17 0 2.094395102393197 3.141592653589793
18 0 2.617993877991495 3.141592653589793
19 0 3.141592653589793 0.5235987755982999
20 0 3.141592653589793 1.047197551196601
21 0 3.141592653589793 1.570796326794899
22 0 3.141592653589793 2.094395102393197
23 0 3.141592653589793 2.617993877991495
24 0 0.5235987755982999 0
25 0 1.047197551196601 0
26 0 1.570796326794899 0
27 0 2.094395102393197 0
28 0 2.617993877991495 0
29 3.141592653589793 0 0.5235987755982999
30 3.141592653589793 0 1.047197551196601
31 3.141592653589793 0 1.570796326794899
32 3.141592653589793 0 2.094395102393197
33 3.141592653589793 0 2.617993877991495
34 3.141592653589793 0.5235987755982999 3.141592653589793
35 3.141592653589793 1.047197551196601 3.141592653589793
36 3.141592653589793 1.570796326794899 3.141592653589793
37 3.141592653589793 2.094395102393197 3.141592653589793
38 3.141592653589793 2.617993877991495 3.141592653589793
39 3.141592653589793 3.141592653589793 0.5235987755982999
40 3.141592653589793 3.141592653589793 1.047197551196601
41 3.141592653589793 3.141592653589793 1.570796326794899
42 3.141592653589793 3.141592653589793 2.094395102393197
43 3.141592653589793 3.141592653589793 2.617993877991495
44 3.141592653589793 0.5235987755982999 0
45 3.141592653589793 1.047197551196601 0
46 3.141592653589793 1.570796326794899 0
47 3.141592653589793 2.094395102393197 0
48 3.141592653589793 2.617993877991495 0
49 0.5235987755982999 0 0
50 1.047197551196601 0 0
51 1.570796326794899 0 0
52 2.094395102393197 0 0
53 2.617993877991495 0 0
54 0.5235987755982999 0 3.141592653589793
55 1.047197551196601 0 3.141592653589793
56 1.570796326794899 0 3.141592653589793
57 2.094395102393197 0 3.141592653589793
58 2.617993877991495 0 3.141592653589793
59 0.5235987755982999 3.141592653589793 0
60 1.047197551196601 3.141592653589793 0
61 1.570796326794899 3.141592653589793 0
62 2.094395102393197 3.141592653589793 0
63 2.617993877991495 3.141592653589793 0
64 0.5235987755982999 3.141592653589793 3.141592653589793
65 1.047197551196601 3.141592653589793 3.141592653589793
66 1.570796326794899 3.141592653589793 3.141592653589793
67 2.094395102393197 3.141592653589793 3.141592653589793
68 2.617993877991495 3.141592653589793 3.141592653589793
69 0 0.4692995536001626 1.263587492378421
70 0 2.672293099989631 1.263587492378422
71 0 1.31472210361796 2.667706500014101
72 0 1.30899693899575 0.4534498410585537
73 0 2.317319714943888 2.666244269166068
74 0 0.4361723742289928 2.363400439808738
75 0 2.353975808825121 0.4433688060021007
76 0 0.7876168447646756 0.4433688060021007
77 0 0.9658366474995796 0.95024157489996
78 0 1.557236176178728 0.9141233309142495
79 0 1.30899693899575 1.360349523175661
80 0 1.815147999651395 1.370322081459319
81 0 1.567888374304457 1.80621602009252
82 0 2.073732117136724 1.818146385824722
83 0 1.047197551196601 1.813799364234215
84 0 1.822437872904624 2.286381481189361
85 0 2.610113621818045 1.815705542714757
86 0 1.829965909263481 0.4529736100153352
87 0 0.5284120878334093 1.8192293413717
88 0 2.170950624534589 0.952630142905329
89 0 0.4355661258290397 0.7806992618766631
90 0 0.7763406235358756 2.711353606907164
91 0 2.705454458527942 0.7809836152106359
92 0 2.704036792816463 2.338720310943885
93 0 1.324387347078911 2.157953761088432
94 0 1.823934224130914 2.780703511509824
95 0 2.305528023923949 2.185039597967758
96 0 0.9045386812486249 2.255573835570725
97 0 0.8765243024371954 1.412961224080468
98 0 2.268447492626077 1.44407832905651
99 0 0.3833009065188116 0.3833009065188117
100 0 2.758291747070983 2.758291747070983
101 0 2.758291747070984 0.3833009065188102
102 0 0.3833009065188098 2.758291747070984
103 3.141592653589793 1.30899693899575 0.4534498410585537
104 3.141592653589793 1.31472210361796 2.667706500014101
105 3.141592653589793 2.672293099989631 1.263587492378422
106 3.141592653589793 0.4692995536001627 1.263587492378421
107 3.141592653589793 2.317319714943888 2.666244269166068
108 3.141592653589793 2.353975808825121 0.4433688060021007
109 3.141592653589793 0.4361723742289928 2.363400439808738
110 3.141592653589793 0.7876168447646756 0.4433688060021007
111 3.141592653589793 0.9658366474995798 0.9502415748999599
112 3.141592653589793 1.557236176178728 0.9141233309142498
113 3.141592653589793 1.30899693899575 1.360349523175661
114 3.141592653589793 1.815147999651395 1.37032208145932
115 3.141592653589793 1.567888374304456 1.80621602009252
116 3.141592653589793 2.073732117136724 1.818146385824723
117 3.141592653589793 1.047197551196601 1.813799364234215
118 3.141592653589793 1.822437872904623 2.286381481189361
119 3.141592653589793 1.829965909263481 0.4529736100153352
120 3.141592653589793 2.170950624534589 0.9526301429053292
121 3.141592653589793 0.5284120878334093 1.819229341371701
122 3.141592653589793 2.610113621818045 1.815705542714758
123 3.141592653589793 0.4355661258290398 0.7806992618766631
124 3.141592653589793 2.705454458527942 0.7809836152106359
125 3.141592653589793 0.7763406235358755 2.711353606907164
126 3.141592653589793 2.704036792816463 2.338720310943885
127 3.141592653589793 1.823934224130913 2.780703511509824
128 3.141592653589793 1.324387347078911 2.157953761088433
129 3.141592653589793 2.305528023923949 2.185039597967759
130 3.141592653589793 0.9045386812486249 2.255573835570725
131 3.141592653589793 0.8765243024371955 1.412961224080469
132 3.141592653589793 2.268447492626077 1.44407832905651
133 3.141592653589793 0.3833009065188116 0.3833009065188117
134 3.141592653589793 2.758291747070983 2.758291747070983
135 3.141592653589793 2.758291747070984 0.3833009065188102
136 3.141592653589793 0.3833009065188098 2.758291747070984
137 0.4534498410585537 0 1.30899693899575
138 2.667706500014101 0 1.31472210361796
139 1.263587492378422 0 2.672293099989631
140 1.263587492378421 0 0.4692995536001627
141 2.666244269166068 0 2.317319714943888
142 0.4433688060021007 0 2.353975808825121
143 2.363400439808738 0 0.4361723742289928
144 0.4433688060021007 0 0.7876168447646756
145 0.9502415748999599 0 0.9658366474995798
146 0.9141233309142498 0 1.557236176178728
147 1.360349523175661 0 1.30899693899575
148 1.37032208145932 0 1.815147999651395
149 1.80621602009252 0 1.567888374304456
150 1.818146385824723 0 2.073732117136724
151 1.813799364234215 0 1.047197551196601
152 2.286381481189361 0 1.822437872904623
153 0.4529736100153352 0 1.829965909263481
154 0.9526301429053292 0 2.170950624534589
155 1.819229341371701 0 0.5284120878334093
156 1.815705542714758 0 2.610113621818045
157 0.7806992618766631 0 0.4355661258290398
158 0.7809836152106359 0 2.705454458527942
159 2.711353606907164 0 0.7763406235358755
160 2.338720310943885 0 2.704036792816463
161 2.780703511509824 0 1.823934224130913
162 2.157953761088433 0 1.324387347078911
163 2.185039597967759 0 2.305528023923949
164 2.255573835570725 0 0.9045386812486249
165 1.412961224080469 0 0.8765243024371955
166 1.44407832905651 0 2.268447492626077
167 0.3833009065188117 0 0.3833009065188116
168 2.758291747070983 0 2.758291747070983
169 0.3833009065188102 0 2.758291747070984
170 2.758291747070984 0 0.3833009065188098
171 0.4534498410585537 3.141592653589793 1.30899693899575
172 2.667706500014101 3.141592653589793 1.31472210361796
173 1.263587492378422 3.141592653589793 2.672293099989631
174 1.263587492378421 3.141592653589793 0.4692995536001627
175 2.666244269166068 3.141592653589793 2.317319714943888
176 0.4433688060021007 3.141592653589793 2.353975808825121
177 2.363400439808738 3.141592653589793 0.4361723742289928
178 0.4433688060021007 3.141592653589793 0.7876168447646756
179 0.9502415748999599 3.141592653589793 0.9658366474995798
180 0.9141233309142498 3.141592653589793 1.557236176178728
181 1.360349523175661 3.141592653589793 1.30899693899575
182 1.37032208145932 3.141592653589793 1.815147999651395
183 1.80621602009252 3.141592653589793 1.567888374304456
184 1.818146385824723 3.141592653589793 2.073732117136724
185 1.813799364234215 3.141592653589793 1.047197551196601
186 2.286381481189361 3.141592653589793 1.822437872904623
187 0.4529736100153352 3.141592653589793 1.829965909263481
188 0.9526301429053292 3.141592653589793 2.170950624534589
189 1.819229341371701 3.141592653589793 0.5284120878334093
190 1.815705542714758 3.141592653589793 2.610113621818045
191 0.7806992618766631 3.141592653589793 0.4355661258290398
192 0.7809836152106359 3.141592653589793 2.705454458527942
193 2.711353606907164 3.141592653589793 0.7763406235358755
194 2.338720310943885 3.141592653589793 2.704036792816463
195 2.780703511509824 3.141592653589793 1.823934224130913
196 2.157953761088433 3.141592653589793 1.324387347078911
197 2.185039597967759 3.141592653589793 2.305528023923949
198 2.255573835570725 3.141592653589793 0.9045386812486249
199 1.412961224080469 3.141592653589793 0.8765243024371955
200 1.44407832905651 3.141592653589793 2.268447492626077
201 0.3833009065188117 3.141592653589793 0.3833009065188116
202 2.758291747070983 3.141592653589793 2.758291747070983
203 0.3833009065188102 3.141592653589793 2.758291747070984
204 2.758291747070984 3.141592653589793 0.3833009065188098
205 1.30899693899575 0.4534498410585537 0
206 1.31472210361796 2.667706500014101 0
207 2.672293099989631 1.263587492378422 0
208 0.4692995536001627 1.263587492378421 0
209 2.715497624232152 2.369138387650379 0
210 2.353975808825121 0.4433688060021007 0
211 0.4361723742289928 2.363400439808738 0
212 0.7876168447646756 0.4433688060021007 0
213 0.9658366474995798 0.9502415748999599 0
214 1.557236176178728 0.9141233309142498 0
215 1.30899693899575 1.360349523175661 0
216 1.815147999651395 1.37032208145932 0
217 1.567888374304456 1.80621602009252 0
218 1.047197551196601 1.813799364234215 0
219 2.07316671050779 1.817819948155306 0
220 1.757828162840324 2.250727145500154 0
221 1.829965909263481 0.4529736100153352 0
222 2.170950624534589 0.9526301429053292 0
223 0.5284120878334093 1.819229341371701 0
224 2.611338300553538 1.820896274980769 0
225 0.4355661258290398 0.7806992618766631 0
226 2.705454458527942 0.7809836152106359 0
227 0.7763406235358755 2.711353606907164 0
228 2.381932833797137 2.729078707777778 0
229 1.866120991183523 2.716964116778496 0
230 1.311465405066051 2.150822893950591 0
231 2.25186981338413 2.251518633920075 0
232 0.9023850242464816 2.254385357714418 0
233 0.8765243024371955 1.412961224080469 0
234 2.268579347047389 1.445051187975829 0
235 0.3833009065188116 0.3833009065188117 0
236 2.758291747070984 0.3833009065188102 0
237 0.3833009065188098 2.758291747070984 0
238 2.760957672758926 2.760957672758926 0
239 1.30899693899575 0.4534498410585537 3.141592653589793
240 1.31472210361796 2.667706500014101 3.141592653589793
241 2.672293099989631 1.263587492378422 3.141592653589793
242 0.4692995536001627 1.263587492378421 3.141592653589793
243 2.715497624232152 2.369138387650379 3.141592653589793
244 2.353975808825121 0.4433688060021007 3.141592653589793
245 0.4361723742289928 2.363400439808738 3.141592653589793
246 0.7876168447646756 0.4433688060021007 3.141592653589793
247 0.9658366474995798 0.9502415748999599 3.141592653589793
248 1.557236176178728 0.9141233309142498 3.141592653589793
249 1.30899693899575 1.360349523175661 3.141592653589793
250 1.815147999651395 1.37032208145932 3.141592653589793
251 1.567888374304456 1.80621602009252 3.141592653589793
252 1.047197551196601 1.813799364234215 3.141592653589793
253 2.07316671050779 1.817819948155306 3.141592653589793
254 1.757828162840324 2.250727145500154 3.141592653589793
255 1.829965909263481 0.4529736100153352 3.141592653589793
256 2.170950624534589 0.9526301429053292 3.141592653589793
257 0.5284120878334093 1.819229341371701 3.141592653589793
258 2.611338300553538 1.820896274980769 3.141592653589793
259 0.4355661258290398 0.7806992618766631 3.141592653589793
260 2.705454458527942 0.7809836152106359 3.141592653589793
261 0.7763406235358755 2.711353606907164 3.141592653589793
262 2.381932833797137 2.729078707777778 3.141592653589793
263 1.866120991183523 2.716964116778496 3.141592653589793
264 1.311465405066051 2.150822893950591 3.141592653589793
265 2.25186981338413 2.251518633920075 3.141592653589793
266 0.9023850242464816 2.254385357714418 3.141592653589793
267 0.8765243024371955 1.412961224080469 3.141592653589793
268 2.268579347047389 1.445051187975829 3.141592653589793
269 0.3833009065188116 0.3833009065188117 3.141592653589793
270 2.758291747070984 0.3833009065188102 3.141592653589793
271 0.3833009065188098 2.758291747070984 3.141592653589793
272 2.760957672758926 2.760957672758926 3.141592653589793
273 1.570796326794897 1.570796326794897 1.570796326794897
274 2.150813113080641 2.15116834740443 2.148348155546283
275 2.150428199665143 0.986957669274515 2.141258560703986
276 0.986967309897675 2.141248200260689 2.150465246227315
277 0.9541242188162357 1.176690310841765 2.202072717269071
278 2.202078356925436 0.9541240638056021 1.17670473749253
279 2.069106180096918 2.222388356105235 1.082455893411455
280 1.098806939913508 2.170536262606123 0.9562827405616132
281 0.9285480543470476 1.222420462455113 0.9429094604612983
282 1.291463660645524 0.790287894609826 1.550515555944903
283 1.639389447844048 1.566019373487558 2.374681609123265
284 1.620140984540139 1.590097438320788 0.7705553261327078
285 2.374237641504341 1.637070690679156 1.568953027251483
286 1.56595542161681 2.388332006585623 1.670570423661728
287 0.7557493598179802 1.635026537089428 1.592076126409275
288 1.541592311945131 0.7632509922039908 0.8160350250588086
289 2.390900971620853 1.608402880838568 0.7439538494248544
290 1.496628865103867 0.7119824667481376 2.230860242145425
291 0.7053454687692111 2.344391175052249 1.526385015602916
292 1.566873346833496 2.450534961280916 2.466656245363984
293 2.474633395554927 1.567101437818668 2.449329151791263
294 2.480450298301824 2.465663447671332 1.605636069454421
295 0.6518560681289088 0.6518560681289087 0.6518560681289087
296 0.6469533673634413 0.9705293067876173 1.637616541073041
297 2.499892583958724 0.641543589813682 0.6418215663839134
298 0.6415404180419744 0.6418182722584068 2.499895824606381
299 2.4985257109306 2.502596792443613 0.632700470200805
300 0.6259942205843176 2.515462983743344 0.6263041195770601
301 1.608790359455715 2.52362093428573 0.6939429055892645
302 2.563319153697073 0.7917948352228008 1.685792895276202
303 0.7918672118049758 1.685762077983194 2.563322869055095
304 1.91001548270865 0.6325279248456556 1.656231112657616
305 2.529045847194781 0.6128729807196854 2.52950825111404
306 0.6128692634729747 2.529511899355707 2.52904941781718
307 2.011349155880038 1.125140152698846 0.5998698200622435
308 0.6393991533679309 1.767696804692149 0.6655134710927887
309 2.52467186672019 2.535330014271021 2.529471367493483
310 0.8255796275765688 0.5413808974290166 1.2328363372213
311 0.9525662724324896 0.6241109274262412 2.001287143883465
312 2.618073286770704 2.043449266391167 1.213900396370559
313 1.989243183141236 1.987802643304277 0.5529934514216054
314 1.356136852750433 1.121719055192562 2.615703314995442
315 1.077260269742838 2.640286841435979 1.863516071053071
316 2.603457470193939 1.291091581933418 1.964009134788882
317 1.292478471248531 1.962031928368367 2.600902052591832
318 1.191695008726309 1.992941963487843 1.492791437822639
319 1.948311975539918 0.6919063646683014 2.613029300273347
320 1.659523126782897 1.10677479932087 1.253879917827652
321 2.037886487242205 1.252481273590939 2.630550278235357
322 1.888328578951252 2.009288049132948 2.635807010679984
323 1.214218710428316 1.641590329093577 2.006525964203973
324 0.5234610130614235 1.524613425153454 2.094102046697099
325 2.636875869234443 1.888825315716192 2.007704001470512
326 1.673774416643254 1.100298907884203 1.863103071694955
327 1.148760759995181 2.6162532379148 1.302171291415512
328 1.124376803592644 1.524806413954747 0.507860929475304
329 2.090119454342866 1.535826519818158 2.041999525512786
330 2.021051953433602 1.520003057086601 1.152721395830737
331 2.015241862917113 2.062008480896037 1.614325919767276
332 2.616418264480992 1.328538706541547 1.17139977683774
333 0.5157466205930243 1.939862316737389 1.185777051588291
334 1.612236449739452 2.04257504026509 2.098006707476815
335 1.414866984585222 2.037614020887783 0.5273183210949914
336 1.991133062679787 2.63354577724651 1.432433888597731
337 0.5115791956587505 2.36150720192215 2.028039821773713
338 2.026771463132934 0.5060578904554576 0.8992570725096655
339 1.94964433790168 2.62433748182338 1.973759206648455
340 1.581384086563035 1.997196673011472 1.121042368213873
341 1.134747259282584 1.289914515056544 1.433604338906168
342 2.610710448378921 0.5856819122633626 1.177853280236526
343 0.5857064660525606 1.177847045433519 2.610721164194964
344 2.03244889784565 0.4752044249464803 2.142102068241932
345 0.4938853159501416 1.407945002620919 1.187996836694871
346 1.62401986910154 0.4573192006056996 1.243335568930295
347 1.108022645026768 2.66738656625786 0.7784334705215998
348 1.108413026276321 0.9215713643839524 0.5253896982452176
349 2.030243341426231 2.680372067482237 2.481825014059763
350 1.178938804561324 1.665101466644696 1.070114380737452
351 2.147662039017423 1.171470759461944 1.650610944797699
$EndNodes
$Elements
1736
1 2 2 1 1 13 1 102
2 2 2 1 1 1 14 102
3 2 2 1 1 2 9 99
4 2 2 1 1 24 2 99
5 2 2 1 1 18 3 100
6 2 2 1 1 3 23 100
7 2 2 1 1 19 4 101
8 2 2 1 1 4 28 101
9 2 2 1 1 9 10 89
10 2 2 1 1 9 89 99
11 2 2 1 1 10 11 69
12 2 2 1 1 10 69 89
13 2 2 1 1 11 12 87
14 2 2 1 1 69 11 87
15 2 2 1 1 12 13 74
16 2 2 1 1 12 74 87
17 2 2 1 1 74 13 102
18 2 2 1 1 14 15 90
19 2 2 1 1 14 90 102
20 2 2 1 1 15 16 71
21 2 2 1 1 15 71 90
22 2 2 1 1 16 17 94
23 2 2 1 1 71 16 94
24 2 2 1 1 17 18 73
25 2 2 1 1 17 73 94
26 2 2 1 1 73 18 100
27 2 2 1 1 20 19 91
28 2 2 1 1 91 19 101
29 2 2 1 1 21 20 70
30 2 2 1 1 70 20 91
31 2 2 1 1 22 21 85
32 2 2 1 1 21 70 85
33 2 2 1 1 23 22 92
34 2 2 1 1 22 85 92
35 2 2 1 1 23 92 100
36 2 2 1 1 25 24 76
37 2 2 1 1 76 24 99
38 2 2 1 1 26 25 72
39 2 2 1 1 72 25 76
40 2 2 1 1 27 26 86
41 2 2 1 1 26 72 86
42 2 2 1 1 28 27 75
43 2 2 1 1 75 27 86
44 2 2 1 1 28 75 101
45 2 2 1 1 69 77 89
46 2 2 1 1 77 69 97
47 2 2 1 1 69 87 97
48 2 2 1 1 85 70 98
49 2 2 1 1 88 70 91
50 2 2 1 1 70 88 98
51 2 2 1 1 71 84 93
52 2 2 1 1 84 71 94
53 2 2 1 1 90 71 96
54 2 2 1 1 71 93 96
55 2 2 1 1 72 76 77
56 2 2 1 1 72 77 78
57 2 2 1 1 72 78 86
58 2 2 1 1 73 84 94
59 2 2 1 1 84 73 95
60 2 2 1 1 73 92 95
61 2 2 1 1 92 73 100
62 2 2 1 1 87 74 96
63 2 2 1 1 74 90 96
64 2 2 1 1 90 74 102
65 2 2 1 1 75 86 88
66 2 2 1 1 75 88 91
67 2 2 1 1 75 91 101
68 2 2 1 1 77 76 89
69 2 2 1 1 89 76 99
70 2 2 1 1 78 77 79
71 2 2 1 1 79 77 97
72 2 2 1 1 78 79 80
73 2 2 1 1 78 80 88
74 2 2 1 1 86 78 88
75 2 2 1 1 80 79 81
76 2 2 1 1 81 79 83
77 2 2 1 1 83 79 97
78 2 2 1 1 80 81 82
79 2 2 1 1 80 82 98
80 2 2 1 1 88 80 98
81 2 2 1 1 82 81 84
82 2 2 1 1 81 83 93
83 2 2 1 1 84 81 93
84 2 2 1 1 82 84 95
85 2 2 1 1 85 82 95
86 2 2 1 1 82 85 98
87 2 2 1 1 83 87 96
88 2 2 1 1 87 83 97
89 2 2 1 1 93 83 96
90 2 2 1 1 92 85 95
91 2 2 1 2 33 136 5
92 2 2 1 2 5 136 34
93 2 2 1 2 6 133 29
94 2 2 1 2 44 133 6
95 2 2 1 2 38 134 7
96 2 2 1 2 7 134 43
97 2 2 1 2 39 135 8
98 2 2 1 2 8 135 48
99 2 2 1 2 29 123 30
100 2 2 1 2 29 133 123
101 2 2 1 2 30 106 31
102 2 2 1 2 30 123 106
103 2 2 1 2 31 121 32
104 2 2 1 2 106 121 31
105 2 2 1 2 32 109 33
106 2 2 1 2 32 121 109
107 2 2 1 2 109 136 33
108 2 2 1 2 34 125 35
109 2 2 1 2 34 136 125
110 2 2 1 2 35 104 36
111 2 2 1 2 35 125 104
112 2 2 1 2 36 127 37
113 2 2 1 2 104 127 36
114 2 2 1 2 37 107 38
115 2 2 1 2 37 127 107
116 2 2 1 2 107 134 38
117 2 2 1 2 40 124 39
118 2 2 1 2 124 135 39
119 2 2 1 2 41 105 40
120 2 2 1 2 105 124 40
121 2 2 1 2 42 122 41
122 2 2 1 2 41 122 105
123 2 2 1 2 43 126 42
124 2 2 1 2 42 126 122
125 2 2 1 2 43 134 126
126 2 2 1 2 45 110 44
127 2 2 1 2 110 133 44
128 2 2 1 2 46 103 45
129 2 2 1 2 103 110 45
130 2 2 1 2 47 119 46
131 2 2 1 2 46 119 103
132 2 2 1 2 48 108 47
133 2 2 1 2 108 119 47
134 2 2 1 2 48 135 108
135 2 2 1 2 103 111 110
136 2 2 1 2 103 112 111
137 2 2 1 2 103 119 112
138 2 2 1 2 118 127 104
139 2 2 1 2 104 128 118
140 2 2 1 2 125 130 104
141 2 2 1 2 104 130 128
142 2 2 1 2 120 124 105
143 2 2 1 2 105 132 120
144 2 2 1 2 122 132 105
145 2 2 1 2 106 123 111
146 2 2 1 2 111 131 106
147 2 2 1 2 106 131 121
148 2 2 1 2 107 127 118
149 2 2 1 2 118 129 107
150 2 2 1 2 107 129 126
151 2 2 1 2 126 134 107
152 2 2 1 2 108 120 119
153 2 2 1 2 108 124 120
154 2 2 1 2 108 135 124
155 2 2 1 2 121 130 109
156 2 2 1 2 109 130 125
157 2 2 1 2 125 136 109
158 2 2 1 2 111 123 110
159 2 2 1 2 123 133 110
160 2 2 1 2 112 113 111
161 2 2 1 2 113 131 111
162 2 2 1 2 112 114 113
163 2 2 1 2 112 120 114
164 2 2 1 2 119 120 112
165 2 2 1 2 114 115 113
166 2 2 1 2 115 117 113
167 2 2 1 2 117 131 113
168 2 2 1 2 114 116 115
169 2 2 1 2 114 132 116
170 2 2 1 2 120 132 114
171 2 2 1 2 116 118 115
172 2 2 1 2 115 128 117
173 2 2 1 2 118 128 115
174 2 2 1 2 116 129 118
175 2 2 1 2 122 129 116
176 2 2 1 2 116 132 122
177 2 2 1 2 117 130 121
178 2 2 1 2 121 131 117
179 2 2 1 2 128 130 117
180 2 2 1 2 126 129 122
181 2 2 1 3 1 13 169
182 2 2 1 3 54 1 169
183 2 2 1 3 9 2 167
184 2 2 1 3 2 49 167
185 2 2 1 3 33 5 168
186 2 2 1 3 5 58 168
187 2 2 1 3 6 29 170
188 2 2 1 3 53 6 170
189 2 2 1 3 10 9 144
190 2 2 1 3 144 9 167
191 2 2 1 3 11 10 137
192 2 2 1 3 137 10 144
193 2 2 1 3 12 11 153
194 2 2 1 3 11 137 153
195 2 2 1 3 13 12 142
196 2 2 1 3 142 12 153
197 2 2 1 3 13 142 169
198 2 2 1 3 29 30 159
199 2 2 1 3 29 159 170
200 2 2 1 3 30 31 138
201 2 2 1 3 30 138 159
202 2 2 1 3 31 32 161
203 2 2 1 3 138 31 161
204 2 2 1 3 32 33 141
205 2 2 1 3 32 141 161
206 2 2 1 3 141 33 168
207 2 2 1 3 49 50 157
208 2 2 1 3 49 157 167
209 2 2 1 3 50 51 140
210 2 2 1 3 50 140 157
211 2 2 1 3 51 52 155
212 2 2 1 3 140 51 155
213 2 2 1 3 52 53 143
214 2 2 1 3 52 143 155
215 2 2 1 3 143 53 170
216 2 2 1 3 55 54 158
217 2 2 1 3 158 54 169
218 2 2 1 3 56 55 139
219 2 2 1 3 139 55 158
220 2 2 1 3 57 56 156
221 2 2 1 3 56 139 156
222 2 2 1 3 58 57 160
223 2 2 1 3 57 156 160
224 2 2 1 3 58 160 168
225 2 2 1 3 137 144 145
226 2 2 1 3 137 145 146
227 2 2 1 3 137 146 153
228 2 2 1 3 152 138 161
229 2 2 1 3 138 152 162
230 2 2 1 3 159 138 164
231 2 2 1 3 138 162 164
232 2 2 1 3 154 139 158
233 2 2 1 3 139 154 166
234 2 2 1 3 156 139 166
235 2 2 1 3 140 145 157
236 2 2 1 3 145 140 165
237 2 2 1 3 140 155 165
238 2 2 1 3 141 152 161
239 2 2 1 3 152 141 163
240 2 2 1 3 141 160 163
241 2 2 1 3 160 141 168
242 2 2 1 3 142 153 154
243 2 2 1 3 142 154 158
244 2 2 1 3 142 158 169
245 2 2 1 3 155 143 164
246 2 2 1 3 143 159 164
247 2 2 1 3 159 143 170
248 2 2 1 3 145 144 157
249 2 2 1 3 157 144 167
250 2 2 1 3 146 145 147
251 2 2 1 3 147 145 165
252 2 2 1 3 146 147 148
253 2 2 1 3 146 148 154
254 2 2 1 3 153 146 154
255 2 2 1 3 148 147 149
256 2 2 1 3 149 147 151
257 2 2 1 3 151 147 165
258 2 2 1 3 148 149 150
259 2 2 1 3 148 150 166
260 2 2 1 3 154 148 166
261 2 2 1 3 150 149 152
262 2 2 1 3 149 151 162
263 2 2 1 3 152 149 162
264 2 2 1 3 150 152 163
265 2 2 1 3 156 150 163
266 2 2 1 3 150 156 166
267 2 2 1 3 151 155 164
268 2 2 1 3 155 151 165
269 2 2 1 3 162 151 164
270 2 2 1 3 160 156 163
271 2 2 1 4 3 203 23
272 2 2 1 4 64 203 3
273 2 2 1 4 19 201 4
274 2 2 1 4 4 201 59
275 2 2 1 4 43 202 7
276 2 2 1 4 7 202 68
277 2 2 1 4 8 204 39
278 2 2 1 4 63 204 8
279 2 2 1 4 20 178 19
280 2 2 1 4 178 201 19
281 2 2 1 4 21 171 20
282 2 2 1 4 171 178 20
283 2 2 1 4 22 187 21
284 2 2 1 4 21 187 171
285 2 2 1 4 23 176 22
286 2 2 1 4 176 187 22
287 2 2 1 4 23 203 176
288 2 2 1 4 39 193 40
289 2 2 1 4 39 204 193
290 2 2 1 4 40 172 41
291 2 2 1 4 40 193 172
292 2 2 1 4 41 195 42
293 2 2 1 4 172 195 41
294 2 2 1 4 42 175 43
295 2 2 1 4 42 195 175
296 2 2 1 4 175 202 43
297 2 2 1 4 59 191 60
298 2 2 1 4 59 201 191
299 2 2 1 4 60 174 61
300 2 2 1 4 60 191 174
301 2 2 1 4 61 189 62
302 2 2 1 4 174 189 61
303 2 2 1 4 62 177 63
304 2 2 1 4 62 189 177
305 2 2 1 4 177 204 63
306 2 2 1 4 65 192 64
307 2 2 1 4 192 203 64
308 2 2 1 4 66 173 65
309 2 2 1 4 173 192 65
310 2 2 1 4 67 190 66
311 2 2 1 4 66 190 173
312 2 2 1 4 68 194 67
313 2 2 1 4 67 194 190
314 2 2 1 4 68 202 194
315 2 2 1 4 171 179 178
316 2 2 1 4 171 180 179
317 2 2 1 4 171 187 180
318 2 2 1 4 186 195 172
319 2 2 1 4 172 196 186
320 2 2 1 4 193 198 172
321 2 2 1 4 172 198 196
322 2 2 1 4 188 192 173
323 2 2 1 4 173 200 188
324 2 2 1 4 190 200 173
325 2 2 1 4 174 191 179
326 2 2 1 4 179 199 174
327 2 2 1 4 174 199 189
328 2 2 1 4 175 195 186
329 2 2 1 4 186 197 175
330 2 2 1 4 175 197 194
331 2 2 1 4 194 202 175
332 2 2 1 4 176 188 187
333 2 2 1 4 176 192 188
334 2 2 1 4 176 203 192
335 2 2 1 4 189 198 177
336 2 2 1 4 177 198 193
337 2 2 1 4 193 204 177
338 2 2 1 4 179 191 178
339 2 2 1 4 191 201 178
340 2 2 1 4 180 181 179
341 2 2 1 4 181 199 179
342 2 2 1 4 180 182 181
343 2 2 1 4 180 188 182
344 2 2 1 4 187 188 180
345 2 2 1 4 182 183 181
346 2 2 1 4 183 185 181
347 2 2 1 4 185 199 181
348 2 2 1 4 182 184 183
349 2 2 1 4 182 200 184
350 2 2 1 4 188 200 182
351 2 2 1 4 184 186 183
352 2 2 1 4 183 196 185
353 2 2 1 4 186 196 183
354 2 2 1 4 184 197 186
355 2 2 1 4 190 197 184
356 2 2 1 4 184 200 190
357 2 2 1 4 185 198 189
358 2 2 1 4 189 199 185
359 2 2 1 4 196 198 185
360 2 2 1 4 194 197 190
361 2 2 1 5 2 24 235
362 2 2 1 5 49 2 235
363 2 2 1 5 28 4 237
364 2 2 1 5 4 59 237
365 2 2 1 5 44 6 236
366 2 2 1 5 6 53 236
367 2 2 1 5 8 48 238
368 2 2 1 5 63 8 238
369 2 2 1 5 24 25 225
370 2 2 1 5 24 225 235
371 2 2 1 5 25 26 208
372 2 2 1 5 25 208 225
373 2 2 1 5 26 27 223
374 2 2 1 5 208 26 223
375 2 2 1 5 27 28 211
376 2 2 1 5 27 211 223
377 2 2 1 5 211 28 237
378 2 2 1 5 45 44 226
379 2 2 1 5 226 44 236
380 2 2 1 5 46 45 207
381 2 2 1 5 207 45 226
382 2 2 1 5 47 46 224
383 2 2 1 5 46 207 224
384 2 2 1 5 48 47 209
385 2 2 1 5 209 47 224
386 2 2 1 5 48 209 238
387 2 2 1 5 50 49 212
388 2 2 1 5 212 49 235
389 2 2 1 5 51 50 205
390 2 2 1 5 205 50 212
391 2 2 1 5 52 51 221
392 2 2 1 5 51 205 221
393 2 2 1 5 53 52 210
394 2 2 1 5 210 52 221
395 2 2 1 5 53 210 236
396 2 2 1 5 59 60 227
397 2 2 1 5 59 227 237
398 2 2 1 5 60 61 206
399 2 2 1 5 60 206 227
400 2 2 1 5 61 62 229
401 2 2 1 5 206 61 229
402 2 2 1 5 62 63 228
403 2 2 1 5 62 228 229
404 2 2 1 5 228 63 238
405 2 2 1 5 205 212 213
406 2 2 1 5 205 213 214
407 2 2 1 5 205 214 221
408 2 2 1 5 220 206 229
409 2 2 1 5 206 220 230
410 2 2 1 5 227 206 232
411 2 2 1 5 206 230 232
412 2 2 1 5 222 207 226
413 2 2 1 5 207 222 234
414 2 2 1 5 224 207 234
415 2 2 1 5 208 213 225
416 2 2 1 5 213 208 233
417 2 2 1 5 208 223 233
418 2 2 1 5 209 224 231
419 2 2 1 5 228 209 231
420 2 2 1 5 209 228 238
421 2 2 1 5 210 221 222
422 2 2 1 5 210 222 226
423 2 2 1 5 210 226 236
424 2 2 1 5 223 211 232
425 2 2 1 5 211 227 232
426 2 2 1 5 227 211 237
427 2 2 1 5 213 212 225
428 2 2 1 5 225 212 235
429 2 2 1 5 214 213 215
430 2 2 1 5 215 213 233
431 2 2 1 5 214 215 216
432 2 2 1 5 214 216 222
433 2 2 1 5 221 214 222
434 2 2 1 5 216 215 217
435 2 2 1 5 217 215 218
436 2 2 1 5 218 215 233
437 2 2 1 5 216 217 219
438 2 2 1 5 216 219 234
439 2 2 1 5 222 216 234
440 2 2 1 5 217 218 230
441 2 2 1 5 219 217 220
442 2 2 1 5 220 217 230
443 2 2 1 5 218 223 232
444 2 2 1 5 223 218 233
445 2 2 1 5 230 218 232
446 2 2 1 5 219 220 231
447 2 2 1 5 224 219 231
448 2 2 1 5 219 224 234
449 2 2 1 5 220 229 231
450 2 2 1 5 229 228 231
451 2 2 1 6 1 269 14
452 2 2 1 6 54 269 1
453 2 2 1 6 18 271 3
454 2 2 1 6 3 271 64
455 2 2 1 6 34 270 5
456 2 2 1 6 5 270 58
457 2 2 1 6 7 272 38
458 2 2 1 6 68 272 7
459 2 2 1 6 14 259 15
460 2 2 1 6 14 269 259
461 2 2 1 6 15 242 16
462 2 2 1 6 15 259 242
463 2 2 1 6 16 257 17
464 2 2 1 6 242 257 16
465 2 2 1 6 17 245 18
466 2 2 1 6 17 257 245
467 2 2 1 6 245 271 18
468 2 2 1 6 35 260 34
469 2 2 1 6 260 270 34
470 2 2 1 6 36 241 35
471 2 2 1 6 241 260 35
472 2 2 1 6 37 258 36
473 2 2 1 6 36 258 241
474 2 2 1 6 38 243 37
475 2 2 1 6 243 258 37
476 2 2 1 6 38 272 243
477 2 2 1 6 55 246 54
478 2 2 1 6 246 269 54
479 2 2 1 6 56 239 55
480 2 2 1 6 239 246 55
481 2 2 1 6 57 255 56
482 2 2 1 6 56 255 239
483 2 2 1 6 58 244 57
484 2 2 1 6 244 255 57
485 2 2 1 6 58 270 244
486 2 2 1 6 64 261 65
487 2 2 1 6 64 271 261
488 2 2 1 6 65 240 66
489 2 2 1 6 65 261 240
490 2 2 1 6 66 263 67
491 2 2 1 6 240 263 66
492 2 2 1 6 67 262 68
493 2 2 1 6 67 263 262
494 2 2 1 6 262 272 68
495 2 2 1 6 239 247 246
496 2 2 1 6 239 248 247
497 2 2 1 6 239 255 248
498 2 2 1 6 254 263 240
499 2 2 1 6 240 264 254
500 2 2 1 6 261 266 240
501 2 2 1 6 240 266 264
502 2 2 1 6 256 260 241
503 2 2 1 6 241 268 256
504 2 2 1 6 258 268 241
505 2 2 1 6 242 259 247
506 2 2 1 6 247 267 242
507 2 2 1 6 242 267 257
508 2 2 1 6 243 265 258
509 2 2 1 6 262 265 243
510 2 2 1 6 243 272 262
511 2 2 1 6 244 256 255
512 2 2 1 6 244 260 256
513 2 2 1 6 244 270 260
514 2 2 1 6 257 266 245
515 2 2 1 6 245 266 261
516 2 2 1 6 261 271 245
517 2 2 1 6 247 259 246
518 2 2 1 6 259 269 246
519 2 2 1 6 248 249 247
520 2 2 1 6 249 267 247
521 2 2 1 6 248 250 249
522 2 2 1 6 248 256 250
523 2 2 1 6 255 256 248
524 2 2 1 6 250 251 249
525 2 2 1 6 251 252 249
526 2 2 1 6 252 267 249
527 2 2 1 6 250 253 251
528 2 2 1 6 250 268 253
529 2 2 1 6 256 268 250
530 2 2 1 6 251 264 252
531 2 2 1 6 253 254 251
532 2 2 1 6 254 264 251
533 2 2 1 6 252 266 257
534 2 2 1 6 257 267 252
535 2 2 1 6 264 266 252
536 2 2 1 6 253 265 254
537 2 2 1 6 258 265 253
538 2 2 1 6 253 268 258
539 2 2 1 6 254 265 263
540 2 2 1 6 263 265 262
541 4 2 1 1 208 281 72 295
542 4 2 1 1 290 298 239 314
543 4 2 1 1 258 127 293 309
544 4 2 1 1 281 295 208 348
545 4 2 1 1 289 297 103 332
546 4 2 1 1 208 72 281 308
547 4 2 1 1 207 297 289 307
548 4 2 1 1 215 307 284 348
549 4 2 1 1 208 308 281 328
550 4 2 1 1 171 291 300 327
551 4 2 1 1 129 309 294 325
552 4 2 1 1 207 103 289 297
553 4 2 1 1 139 239 290 298
554 4 2 1 1 215 284 328 348
555 4 2 1 1 208 328 281 348
556 4 2 1 1 281 308 72 345
557 4 2 1 1 195 294 122 309
558 4 2 1 1 293 309 274 322
559 4 2 1 1 276 306 292 315
560 4 2 1 1 292 306 188 315
561 4 2 1 1 295 310 281 345
562 4 2 1 1 105 294 299 312
563 4 2 1 1 120 299 289 312
564 4 2 1 1 257 303 94 306
565 4 2 1 1 161 121 302 305
566 4 2 1 1 70 300 291 333
567 4 2 1 1 139 298 290 311
568 4 2 1 1 296 298 87 311
569 4 2 1 1 96 296 277 298
570 4 2 1 1 293 305 241 321
571 4 2 1 1 279 185 301 336
572 4 2 1 1 171 291 70 300
573 4 2 1 1 77 310 295 345
574 4 2 1 1 277 296 96 324
575 4 2 1 1 119 224 289 299
576 4 2 1 1 289 299 224 313
577 4 2 1 1 122 294 129 309
578 4 2 1 1 198 299 279 301
579 4 2 1 1 77 296 310 345
580 4 2 1 1 145 288 140 348
581 4 2 1 1 289 307 297 332
582 4 2 1 1 198 172 294 299
583 4 2 1 1 84 306 303 337
584 4 2 1 1 145 140 295 348
585 4 2 1 1 96 298 277 343
586 4 2 1 1 173 188 292 306
587 4 2 1 1 208 233 328 348
588 4 2 1 1 229 299 301 313
589 4 2 1 1 173 292 240 306
590 4 2 1 1 96 277 324 343
591 4 2 1 1 111 103 297 332
592 4 2 1 1 216 284 215 307
593 4 2 1 1 292 306 276 317
594 4 2 1 1 153 310 296 311
595 4 2 1 1 172 105 294 299
596 4 2 1 1 198 279 185 301
597 4 2 1 1 293 305 275 316
598 4 2 1 1 185 327 301 336
599 4 2 1 1 97 77 296 310
600 4 2 1 1 214 307 215 348
601 4 2 1 1 294 309 274 325
602 4 2 1 1 274 309 293 325
603 4 2 1 1 301 336 327 340
604 4 2 1 1 284 307 288 348
605 4 2 1 1 198 185 279 336
606 4 2 1 1 279 299 294 312
607 4 2 1 1 294 309 186 339
608 4 2 1 1 87 296 96 298
609 4 2 1 1 119 289 120 299
610 4 2 1 1 87 296 153 310
611 4 2 1 1 145 165 140 288
612 4 2 1 1 241 293 104 305
613 4 2 1 1 162 304 302 342
614 4 2 1 1 300 179 327 347
615 4 2 1 1 327 336 286 340
616 4 2 1 1 97 296 77 345
617 4 2 1 1 171 300 179 327
618 4 2 1 1 172 198 294 336
619 4 2 1 1 288 221 307 338
620 4 2 1 1 288 310 165 346
621 4 2 1 1 153 87 298 311
622 4 2 1 1 200 292 188 315
623 4 2 1 1 275 305 293 321
624 4 2 1 1 247 239 298 314
625 4 2 1 1 292 315 200 339
626 4 2 1 1 287 82 324 337
627 4 2 1 1 212 295 140 348
628 4 2 1 1 297 307 278 332
629 4 2 1 1 107 309 129 325
630 4 2 1 1 143 297 210 338
631 4 2 1 1 189 229 299 301
632 4 2 1 1 74 142 153 298
633 4 2 1 1 277 298 296 311
634 4 2 1 1 70 88 300 333
635 4 2 1 1 139 290 239 319
636 4 2 1 1 209 119 108 299
637 4 2 1 1 122 129 126 309
638 4 2 1 1 208 233 308 328
639 4 2 1 1 95 306 84 337
640 4 2 1 1 287 291 82 337
641 4 2 1 1 69 296 87 310
642 4 2 1 1 197 186 309 339
643 4 2 1 1 145 165 288 310
644 4 2 1 1 274 309 294 339
645 4 2 1 1 290 314 239 319
646 4 2 1 1 281 288 282 310
647 4 2 1 1 185 181 327 336
648 4 2 1 1 153 296 87 311
649 4 2 1 1 75 211 300 308
650 4 2 1 1 83 96 296 324
651 4 2 1 1 172 196 198 336
652 4 2 1 1 148 282 290 304
653 4 2 1 1 229 231 299 313
654 4 2 1 1 303 306 276 337
655 4 2 1 1 280 300 291 327
656 4 2 1 1 234 307 289 313
657 4 2 1 1 82 291 287 333
658 4 2 1 1 173 188 200 292
659 4 2 1 1 240 292 264 317
660 4 2 1 1 189 299 198 301
661 4 2 1 1 216 307 234 313
662 4 2 1 1 199 301 185 327
663 4 2 1 1 300 280 335 347
664 4 2 1 1 74 153 87 298
665 4 2 1 1 154 298 139 311
666 4 2 1 1 281 310 296 345
667 4 2 1 1 277 298 290 314
668 4 2 1 1 214 216 215 307
669 4 2 1 1 289 299 279 312
670 4 2 1 1 234 207 289 307
671 4 2 1 1 89 144 295 310
672 4 2 1 1 84 303 324 337
673 4 2 1 1 300 335 232 347
674 4 2 1 1 124 105 193 299
675 4 2 1 1 281 288 284 320
676 4 2 1 1 276 324 303 337
677 4 2 1 1 284 288 281 348
678 4 2 1 1 209 224 119 299
679 4 2 1 1 291 300 280 333
680 4 2 1 1 143 210 221 338
681 4 2 1 1 279 299 289 313
682 4 2 1 1 182 200 315 339
683 4 2 1 1 290 298 277 311
684 4 2 1 1 276 306 303 317
685 4 2 1 1 69 87 137 310
686 4 2 1 1 139 156 290 319
687 4 2 1 1 302 305 130 316
688 4 2 1 1 162 338 304 342
689 4 2 1 1 266 303 306 317
690 4 2 1 1 225 208 76 295
691 4 2 1 1 140 212 157 295
692 4 2 1 1 137 87 153 310
693 4 2 1 1 70 291 98 333
694 4 2 1 1 275 305 302 316
695 4 2 1 1 279 336 301 340
696 4 2 1 1 76 208 72 295
697 4 2 1 1 314 321 290 326
698 4 2 1 1 283 321 314 326
699 4 2 1 1 171 70 178 300
700 4 2 1 1 216 234 219 313
701 4 2 1 1 207 110 103 297
702 4 2 1 1 139 246 239 298
703 4 2 1 1 261 173 240 306
704 4 2 1 1 142 153 298 311
705 4 2 1 1 81 287 296 345
706 4 2 1 1 261 192 173 306
707 4 2 1 1 260 241 125 305
708 4 2 1 1 197 339 309 349
709 4 2 1 1 231 224 299 313
710 4 2 1 1 228 177 229 299
711 4 2 1 1 104 293 128 316
712 4 2 1 1 218 232 308 335
713 4 2 1 1 207 226 110 297
714 4 2 1 1 246 139 158 298
715 4 2 1 1 70 91 178 300
716 4 2 1 1 281 288 310 348
717 4 2 1 1 177 189 229 299
718 4 2 1 1 199 185 181 327
719 4 2 1 1 152 302 162 304
720 4 2 1 1 240 264 266 317
721 4 2 1 1 216 284 307 313
722 4 2 1 1 172 193 105 299
723 4 2 1 1 275 290 321 326
724 4 2 1 1 288 307 214 348
725 4 2 1 1 258 293 253 322
726 4 2 1 1 276 287 324 337
727 4 2 1 1 81 296 287 324
728 4 2 1 1 205 212 140 348
729 4 2 1 1 286 315 292 339
730 4 2 1 1 81 296 79 345
731 4 2 1 1 282 288 281 320
732 4 2 1 1 162 302 152 342
733 4 2 1 1 140 155 205 288
734 4 2 1 1 129 294 116 325
735 4 2 1 1 121 130 302 305
736 4 2 1 1 241 104 125 305
737 4 2 1 1 266 303 257 306
738 4 2 1 1 207 222 297 307
739 4 2 1 1 148 290 282 311
740 4 2 1 1 249 314 303 317
741 4 2 1 1 280 300 327 347
742 4 2 1 1 256 241 305 321
743 4 2 1 1 221 205 155 288
744 4 2 1 1 221 288 155 338
745 4 2 1 1 205 140 288 348
746 4 2 1 1 284 281 328 348
747 4 2 1 1 89 69 144 310
748 4 2 1 1 97 69 77 310
749 4 2 1 1 279 301 299 313
750 4 2 1 1 75 86 211 308
751 4 2 1 1 95 73 84 306
752 4 2 1 1 283 314 303 323
753 4 2 1 1 130 104 128 316
754 4 2 1 1 308 328 218 335
755 4 2 1 1 83 93 96 324
756 4 2 1 1 143 221 155 338
757 4 2 1 1 171 178 179 300
758 4 2 1 1 107 129 118 325
759 4 2 1 1 197 186 175 309
760 4 2 1 1 82 287 80 333
761 4 2 1 1 221 214 288 307
762 4 2 1 1 232 300 211 308
763 4 2 1 1 248 239 314 319
764 4 2 1 1 147 165 310 346
765 4 2 1 1 303 314 277 323
766 4 2 1 1 282 320 281 341
767 4 2 1 1 257 94 303 343
768 4 2 1 1 121 161 302 342
769 4 2 1 1 139 239 156 319
770 4 2 1 1 277 326 282 341
771 4 2 1 1 81 287 82 324
772 4 2 1 1 229 301 220 313
773 4 2 1 1 148 282 304 346
774 4 2 1 1 246 247 239 298
775 4 2 1 1 110 111 103 297
776 4 2 1 1 105 299 120 312
777 4 2 1 1 119 120 108 299
778 4 2 1 1 261 240 266 306
779 4 2 1 1 303 314 283 317
780 4 2 1 1 304 338 278 342
781 4 2 1 1 76 72 77 295
782 4 2 1 1 69 97 296 310
783 4 2 1 1 206 232 335 347
784 4 2 1 1 146 310 153 311
785 4 2 1 1 206 232 230 335
786 4 2 1 1 182 315 286 339
787 4 2 1 1 121 109 130 305
788 4 2 1 1 81 83 79 296
789 4 2 1 1 277 323 326 341
790 4 2 1 1 302 305 275 344
791 4 2 1 1 276 291 287 337
792 4 2 1 1 83 296 81 324
793 4 2 1 1 87 83 96 296
794 4 2 1 1 266 257 245 306
795 4 2 1 1 213 208 295 348
796 4 2 1 1 113 302 316 332
797 4 2 1 1 120 289 112 312
798 4 2 1 1 286 327 181 336
799 4 2 1 1 282 310 288 346
800 4 2 1 1 251 283 249 317
801 4 2 1 1 125 104 130 305
802 4 2 1 1 249 283 314 317
803 4 2 1 1 303 317 283 323
804 4 2 1 1 281 320 284 350
805 4 2 1 1 277 290 282 326
806 4 2 1 1 198 193 172 299
807 4 2 1 1 113 316 285 332
808 4 2 1 1 217 284 216 313
809 4 2 1 1 139 156 166 290
810 4 2 1 1 75 300 88 308
811 4 2 1 1 74 87 96 298
812 4 2 1 1 82 81 80 287
813 4 2 1 1 88 70 98 333
814 4 2 1 1 69 97 87 296
815 4 2 1 1 78 72 308 345
816 4 2 1 1 227 300 232 347
817 4 2 1 1 113 302 117 316
818 4 2 1 1 252 249 303 317
819 4 2 1 1 187 291 315 337
820 4 2 1 1 265 243 258 309
821 4 2 1 1 206 335 301 347
822 4 2 1 1 103 224 207 289
823 4 2 1 1 189 177 198 299
824 4 2 1 1 86 223 211 308
825 4 2 1 1 171 85 70 291
826 4 2 1 1 282 290 277 311
827 4 2 1 1 258 253 265 322
828 4 2 1 1 277 298 314 343
829 4 2 1 1 188 306 176 337
830 4 2 1 1 294 312 116 325
831 4 2 1 1 113 115 285 316
832 4 2 1 1 69 137 144 310
833 4 2 1 1 278 297 332 342
834 4 2 1 1 217 215 284 328
835 4 2 1 1 111 332 297 342
836 4 2 1 1 98 291 82 333
837 4 2 1 1 247 314 298 343
838 4 2 1 1 187 85 171 291
839 4 2 1 1 239 255 156 319
840 4 2 1 1 253 293 321 322
841 4 2 1 1 216 217 215 284
842 4 2 1 1 166 290 148 311
843 4 2 1 1 183 286 181 336
844 4 2 1 1 103 119 224 289
845 4 2 1 1 250 249 251 283
846 4 2 1 1 129 122 116 294
847 4 2 1 1 275 290 319 321
848 4 2 1 1 188 315 306 337
849 4 2 1 1 228 229 231 299
850 4 2 1 1 267 303 314 343
851 4 2 1 1 277 282 296 341
852 4 2 1 1 189 198 185 301
853 4 2 1 1 292 315 286 334
854 4 2 1 1 276 315 292 334
855 4 2 1 1 96 324 93 343
856 4 2 1 1 132 116 294 312
857 4 2 1 1 114 312 285 325
858 4 2 1 1 223 232 211 308
859 4 2 1 1 113 285 114 332
860 4 2 1 1 187 85 291 337
861 4 2 1 1 229 220 231 313
862 4 2 1 1 267 303 249 314
863 4 2 1 1 314 319 290 321
864 4 2 1 1 88 308 300 333
865 4 2 1 1 145 147 165 310
866 4 2 1 1 120 105 124 299
867 4 2 1 1 173 192 188 306
868 4 2 1 1 260 256 241 305
869 4 2 1 1 209 231 224 299
870 4 2 1 1 253 293 268 321
871 4 2 1 1 182 184 200 339
872 4 2 1 1 277 314 290 326
873 4 2 1 1 148 282 146 311
874 4 2 1 1 249 283 250 314
875 4 2 1 1 114 113 115 285
876 4 2 1 1 145 140 157 295
877 4 2 1 1 225 213 208 295
878 4 2 1 1 289 307 284 313
879 4 2 1 1 70 88 91 300
880 4 2 1 1 165 155 140 288
881 4 2 1 1 251 250 283 322
882 4 2 1 1 282 147 310 346
883 4 2 1 1 281 310 295 348
884 4 2 1 1 281 310 282 341
885 4 2 1 1 281 296 310 341
886 4 2 1 1 250 321 283 322
887 4 2 1 1 119 112 120 289
888 4 2 1 1 127 241 258 293
889 4 2 1 1 283 321 293 322
890 4 2 1 1 283 322 293 329
891 4 2 1 1 301 327 280 340
892 4 2 1 1 233 208 213 348
893 4 2 1 1 154 158 139 298
894 4 2 1 1 207 222 226 297
895 4 2 1 1 300 308 280 333
896 4 2 1 1 147 282 148 346
897 4 2 1 1 166 150 148 290
898 4 2 1 1 112 289 103 332
899 4 2 1 1 181 286 182 327
900 4 2 1 1 181 183 182 286
901 4 2 1 1 276 287 291 318
902 4 2 1 1 114 116 312 325
903 4 2 1 1 162 304 338 346
904 4 2 1 1 206 227 232 347
905 4 2 1 1 92 187 176 337
906 4 2 1 1 277 296 287 341
907 4 2 1 1 146 282 310 311
908 4 2 1 1 146 282 147 310
909 4 2 1 1 282 277 296 311
910 4 2 1 1 293 321 283 329
911 4 2 1 1 285 312 294 325
912 4 2 1 1 146 148 147 282
913 4 2 1 1 188 187 315 337
914 4 2 1 1 188 176 187 337
915 4 2 1 1 234 222 207 307
916 4 2 1 1 114 285 115 325
917 4 2 1 1 160 305 163 319
918 4 2 1 1 148 304 149 346
919 4 2 1 1 195 105 122 294
920 4 2 1 1 163 319 305 344
921 4 2 1 1 285 325 294 331
922 4 2 1 1 219 217 216 313
923 4 2 1 1 113 131 302 332
924 4 2 1 1 309 322 265 349
925 4 2 1 1 156 166 290 344
926 4 2 1 1 199 301 327 347
927 4 2 1 1 302 304 278 342
928 4 2 1 1 288 307 284 320
929 4 2 1 1 92 176 306 337
930 4 2 1 1 162 152 138 342
931 4 2 1 1 152 302 304 344
932 4 2 1 1 221 214 205 288
933 4 2 1 1 132 294 105 312
934 4 2 1 1 180 291 171 327
935 4 2 1 1 214 205 288 348
936 4 2 1 1 127 104 241 293
937 4 2 1 1 113 131 117 302
938 4 2 1 1 267 252 249 303
939 4 2 1 1 82 84 324 337
940 4 2 1 1 289 312 279 330
941 4 2 1 1 155 288 165 338
942 4 2 1 1 290 319 156 344
943 4 2 1 1 277 287 323 341
944 4 2 1 1 180 187 291 315
945 4 2 1 1 285 279 312 330
946 4 2 1 1 268 293 241 321
947 4 2 1 1 273 283 329 334
948 4 2 1 1 224 234 207 289
949 4 2 1 1 276 287 323 324
950 4 2 1 1 191 227 174 347
951 4 2 1 1 184 292 200 339
952 4 2 1 1 302 332 131 342
953 4 2 1 1 80 287 81 345
954 4 2 1 1 277 314 303 343
955 4 2 1 1 318 331 273 340
956 4 2 1 1 208 223 72 308
957 4 2 1 1 293 322 274 329
958 4 2 1 1 142 298 154 311
959 4 2 1 1 172 105 195 294
960 4 2 1 1 274 322 309 349
961 4 2 1 1 276 286 315 334
962 4 2 1 1 286 331 318 340
963 4 2 1 1 165 338 288 346
964 4 2 1 1 182 286 183 339
965 4 2 1 1 250 253 321 322
966 4 2 1 1 282 310 296 341
967 4 2 1 1 75 88 86 308
968 4 2 1 1 281 341 320 350
969 4 2 1 1 286 315 182 327
970 4 2 1 1 312 330 289 332
971 4 2 1 1 285 330 312 332
972 4 2 1 1 273 329 331 334
973 4 2 1 1 200 292 184 349
974 4 2 1 1 280 328 308 335
975 4 2 1 1 294 312 285 331
976 4 2 1 1 316 332 302 351
977 4 2 1 1 98 82 80 333
978 4 2 1 1 191 300 227 347
979 4 2 1 1 287 296 277 324
980 4 2 1 1 279 330 285 331
981 4 2 1 1 77 72 78 345
982 4 2 1 1 244 305 160 319
983 4 2 1 1 128 316 293 325
984 4 2 1 1 273 329 285 331
985 4 2 1 1 273 283 326 329
986 4 2 1 1 285 312 114 332
987 4 2 1 1 217 284 313 335
988 4 2 1 1 173 190 240 292
989 4 2 1 1 250 314 283 321
990 4 2 1 1 217 328 284 335
991 4 2 1 1 305 319 256 321
992 4 2 1 1 276 318 286 334
993 4 2 1 1 72 223 86 308
994 4 2 1 1 292 339 184 349
995 4 2 1 1 187 92 85 337
996 4 2 1 1 112 312 289 332
997 4 2 1 1 174 227 206 347
998 4 2 1 1 142 154 153 311
999 4 2 1 1 273 285 329 351
1000 4 2 1 1 273 284 320 350
1001 4 2 1 1 286 276 315 318
1002 4 2 1 1 306 315 276 337
1003 4 2 1 1 263 240 190 292
1004 4 2 1 1 279 313 330 340
1005 4 2 1 1 253 258 268 293
1006 4 2 1 1 273 323 283 334
1007 4 2 1 1 187 171 180 291
1008 4 2 1 1 255 244 160 319
1009 4 2 1 1 309 339 274 349
1010 4 2 1 1 163 305 141 344
1011 4 2 1 1 273 283 323 326
1012 4 2 1 1 279 285 312 331
1013 4 2 1 1 117 302 130 316
1014 4 2 1 1 252 303 266 317
1015 4 2 1 1 98 70 85 291
1016 4 2 1 1 279 313 289 330
1017 4 2 1 1 183 181 185 336
1018 4 2 1 1 221 222 214 307
1019 4 2 1 1 206 189 174 301
1020 4 2 1 1 275 319 305 321
1021 4 2 1 1 273 330 285 351
1022 4 2 1 1 284 330 313 340
1023 4 2 1 1 223 218 232 308
1024 4 2 1 1 273 285 330 331
1025 4 2 1 1 98 82 291 337
1026 4 2 1 1 294 325 274 331
1027 4 2 1 1 276 323 303 324
1028 4 2 1 1 273 326 323 341
1029 4 2 1 1 267 314 247 343
1030 4 2 1 1 165 151 338 346
1031 4 2 1 1 273 320 284 330
1032 4 2 1 1 276 287 318 323
1033 4 2 1 1 283 317 251 322
1034 4 2 1 1 333 345 308 350
1035 4 2 1 1 283 274 322 329
1036 4 2 1 1 254 322 292 349
1037 4 2 1 1 218 308 233 328
1038 4 2 1 1 229 189 206 301
1039 4 2 1 1 291 315 276 318
1040 4 2 1 1 285 332 316 351
1041 4 2 1 1 150 290 166 344
1042 4 2 1 1 274 329 283 334
1043 4 2 1 1 154 166 148 311
1044 4 2 1 1 274 283 322 334
1045 4 2 1 1 251 253 250 322
1046 4 2 1 1 262 309 265 349
1047 4 2 1 1 284 328 281 350
1048 4 2 1 1 265 322 254 349
1049 4 2 1 1 278 307 288 320
1050 4 2 1 1 274 285 325 329
1051 4 2 1 1 111 112 103 332
1052 4 2 1 1 285 329 274 331
1053 4 2 1 1 285 274 325 331
1054 4 2 1 1 160 163 156 319
1055 4 2 1 1 235 99 167 295
1056 4 2 1 1 318 327 286 340
1057 4 2 1 1 212 235 157 295
1058 4 2 1 1 167 89 144 295
1059 4 2 1 1 76 99 225 295
1060 4 2 1 1 276 323 318 334
1061 4 2 1 1 251 249 252 317
1062 4 2 1 1 115 285 316 325
1063 4 2 1 1 273 330 284 340
1064 4 2 1 1 273 340 284 350
1065 4 2 1 1 273 331 330 340
1066 4 2 1 1 89 167 99 295
1067 4 2 1 1 235 167 157 295
1068 4 2 1 1 235 225 99 295
1069 4 2 1 1 284 320 307 330
1070 4 2 1 1 146 137 153 310
1071 4 2 1 1 280 308 328 350
1072 4 2 1 1 97 79 296 345
1073 4 2 1 1 160 156 255 319
1074 4 2 1 1 296 310 282 311
1075 4 2 1 1 80 333 287 345
1076 4 2 1 1 132 114 116 312
1077 4 2 1 1 163 141 152 344
1078 4 2 1 1 79 80 81 345
1079 4 2 1 1 292 334 286 339
1080 4 2 1 1 208 233 223 308
1081 4 2 1 1 281 308 345 350
1082 4 2 1 1 278 332 302 342
1083 4 2 1 1 278 288 307 338
1084 4 2 1 1 145 295 144 310
1085 4 2 1 1 98 291 85 337
1086 4 2 1 1 248 319 314 321
1087 4 2 1 1 286 336 183 339
1088 4 2 1 1 263 292 190 349
1089 4 2 1 1 114 115 116 325
1090 4 2 1 1 320 338 278 346
1091 4 2 1 1 290 304 282 326
1092 4 2 1 1 296 341 281 345
1093 4 2 1 1 174 206 301 347
1094 4 2 1 1 284 307 289 330
1095 4 2 1 1 170 159 133 297
1096 4 2 1 1 90 269 102 298
1097 4 2 1 1 280 318 333 350
1098 4 2 1 1 204 228 238 299
1099 4 2 1 1 219 224 231 313
1100 4 2 1 1 280 327 301 347
1101 4 2 1 1 193 204 135 299
1102 4 2 1 1 111 131 332 342
1103 4 2 1 1 287 345 333 350
1104 4 2 1 1 113 117 115 316
1105 4 2 1 1 279 301 313 340
1106 4 2 1 1 287 333 318 350
1107 4 2 1 1 103 112 119 289
1108 4 2 1 1 155 165 151 338
1109 4 2 1 1 156 150 166 344
1110 4 2 1 1 287 277 323 324
1111 4 2 1 1 143 236 210 297
1112 4 2 1 1 142 74 169 298
1113 4 2 1 1 198 196 185 336
1114 4 2 1 1 170 236 143 297
1115 4 2 1 1 169 74 102 298
1116 4 2 1 1 330 331 279 340
1117 4 2 1 1 304 320 278 346
1118 4 2 1 1 280 318 291 333
1119 4 2 1 1 226 133 110 297
1120 4 2 1 1 158 269 246 298
1121 4 2 1 1 288 338 320 346
1122 4 2 1 1 133 236 170 297
1123 4 2 1 1 269 169 102 298
1124 4 2 1 1 275 304 302 344
1125 4 2 1 1 123 133 159 297
1126 4 2 1 1 90 259 269 298
1127 4 2 1 1 133 226 236 297
1128 4 2 1 1 269 158 169 298
1129 4 2 1 1 318 323 273 334
1130 4 2 1 1 15 259 90 343
1131 4 2 1 1 30 123 159 342
1132 4 2 1 1 204 177 228 299
1133 4 2 1 1 301 335 313 340
1134 4 2 1 1 180 315 291 327
1135 4 2 1 1 128 293 118 325
1136 4 2 1 1 304 278 338 346
1137 4 2 1 1 204 238 135 299
1138 4 2 1 1 280 333 308 350
1139 4 2 1 1 164 338 162 342
1140 4 2 1 1 135 124 193 299
1141 4 2 1 1 288 278 320 338
1142 4 2 1 1 223 233 218 308
1143 4 2 1 1 259 298 90 343
1144 4 2 1 1 123 297 159 342
1145 4 2 1 1 135 238 209 299
1146 4 2 1 1 289 313 284 330
1147 4 2 1 1 218 230 232 335
1148 4 2 1 1 116 122 132 294
1149 4 2 1 1 278 307 320 330
1150 4 2 1 1 328 335 280 350
1151 4 2 1 1 209 108 135 299
1152 4 2 1 1 268 241 256 321
1153 4 2 1 1 280 327 318 340
1154 4 2 1 1 278 307 297 338
1155 4 2 1 1 264 292 254 317
1156 4 2 1 1 302 332 278 351
1157 4 2 1 1 239 248 255 319
1158 4 2 1 1 163 156 319 344
1159 4 2 1 1 161 121 31 106
1160 4 2 1 1 94 257 16 242
1161 4 2 1 1 179 180 171 327
1162 4 2 1 1 114 312 112 332
1163 4 2 1 1 149 304 162 346
1164 4 2 1 1 132 105 120 312
1165 4 2 1 1 194 309 262 349
1166 4 2 1 1 184 182 183 339
1167 4 2 1 1 79 83 97 296
1168 4 2 1 1 206 61 174 189
1169 4 2 1 1 241 36 127 258
1170 4 2 1 1 87 97 83 296
1171 4 2 1 1 315 318 291 327
1172 4 2 1 1 227 201 237 300
1173 4 2 1 1 41 122 195 105
1174 4 2 1 1 190 292 200 349
1175 4 2 1 1 202 126 134 309
1176 4 2 1 1 286 318 315 327
1177 4 2 1 1 263 254 292 349
1178 4 2 1 1 254 317 292 322
1179 4 2 1 1 220 313 301 335
1180 4 2 1 1 274 331 329 334
1181 4 2 1 1 263 262 265 349
1182 4 2 1 1 221 210 143 52
1183 4 2 1 1 27 75 86 211
1184 4 2 1 1 12 74 142 153
1185 4 2 1 1 194 262 263 349
1186 4 2 1 1 90 298 96 343
1187 4 2 1 1 159 297 164 342
1188 4 2 1 1 287 341 345 350
1189 4 2 1 1 101 75 211 300
1190 4 2 1 1 207 46 224 103
1191 4 2 1 1 240 173 66 190
1192 4 2 1 1 51 205 140 155
1193 4 2 1 1 137 69 11 87
1194 4 2 1 1 26 72 208 223
1195 4 2 1 1 25 76 225 208
1196 4 2 1 1 140 50 157 212
1197 4 2 1 1 69 10 89 144
1198 4 2 1 1 101 211 237 300
1199 4 2 1 1 244 168 160 305
1200 4 2 1 1 92 176 100 306
1201 4 2 1 1 117 121 130 302
1202 4 2 1 1 108 119 209 47
1203 4 2 1 1 178 91 201 300
1204 4 2 1 1 206 61 189 229
1205 4 2 1 1 268 258 241 293
1206 4 2 1 1 275 290 326 344
1207 4 2 1 1 318 323 287 341
1208 4 2 1 1 304 326 290 344
1209 4 2 1 1 282 288 320 346
1210 4 2 1 1 279 312 294 331
1211 4 2 1 1 273 320 341 350
1212 4 2 1 1 227 191 201 300
1213 4 2 1 1 55 139 158 246
1214 4 2 1 1 207 226 45 110
1215 4 2 1 1 91 178 20 70
1216 4 2 1 1 252 257 266 303
1217 4 2 1 1 201 91 101 300
1218 4 2 1 1 200 190 173 292
1219 4 2 1 1 303 323 277 324
1220 4 2 1 1 111 297 123 342
1221 4 2 1 1 247 298 259 343
1222 4 2 1 1 239 56 139 156
1223 4 2 1 1 171 21 70 85
1224 4 2 1 1 66 263 240 190
1225 4 2 1 1 273 323 318 341
1226 4 2 1 1 46 119 224 103
1227 4 2 1 1 294 331 274 339
1228 4 2 1 1 270 168 244 305
1229 4 2 1 1 176 203 100 306
1230 4 2 1 1 281 345 341 350
1231 4 2 1 1 71 93 324 343
1232 4 2 1 1 213 295 212 348
1233 4 2 1 1 72 26 86 223
1234 4 2 1 1 51 221 205 155
1235 4 2 1 1 153 137 11 87
1236 4 2 1 1 128 115 316 325
1237 4 2 1 1 297 338 164 342
1238 4 2 1 1 174 191 60 227
1239 4 2 1 1 15 242 259 343
1240 4 2 1 1 30 106 123 342
1241 4 2 1 1 248 239 247 314
1242 4 2 1 1 263 265 254 349
1243 4 2 1 1 202 262 194 309
1244 4 2 1 1 88 78 308 333
1245 4 2 1 1 101 237 201 300
1246 4 2 1 1 291 318 287 333
1247 4 2 1 1 138 161 31 106
1248 4 2 1 1 71 94 16 242
1249 4 2 1 1 275 326 304 344
1250 4 2 1 1 56 239 255 156
1251 4 2 1 1 21 171 187 85
1252 4 2 1 1 276 317 303 323
1253 4 2 1 1 248 314 250 321
1254 4 2 1 1 40 124 105 193
1255 4 2 1 1 192 65 261 173
1256 4 2 1 1 260 35 125 241
1257 4 2 1 1 195 172 41 105
1258 4 2 1 1 36 104 241 127
1259 4 2 1 1 244 256 305 319
1260 4 2 1 1 83 81 93 324
1261 4 2 1 1 82 95 84 337
1262 4 2 1 1 215 328 233 348
1263 4 2 1 1 262 202 272 309
1264 4 2 1 1 136 270 125 305
1265 4 2 1 1 271 203 261 306
1266 4 2 1 1 274 292 322 349
1267 4 2 1 1 255 244 57 160
1268 4 2 1 1 92 187 22 176
1269 4 2 1 1 168 136 109 305
1270 4 2 1 1 100 271 245 306
1271 4 2 1 1 274 325 293 329
1272 4 2 1 1 240 254 264 292
1273 4 2 1 1 273 320 330 351
1274 4 2 1 1 273 329 326 351
1275 4 2 1 1 52 143 221 155
1276 4 2 1 1 12 74 153 87
1277 4 2 1 1 211 86 27 223
1278 4 2 1 1 10 69 137 144
1279 4 2 1 1 76 25 72 208
1280 4 2 1 1 140 50 212 205
1281 4 2 1 1 274 334 292 339
1282 4 2 1 1 119 224 209 47
1283 4 2 1 1 287 341 296 345
1284 4 2 1 1 218 328 217 335
1285 4 2 1 1 70 178 20 171
1286 4 2 1 1 246 55 139 239
1287 4 2 1 1 110 45 207 103
1288 4 2 1 1 286 334 331 339
1289 4 2 1 1 274 331 334 339
1290 4 2 1 1 144 145 157 295
1291 4 2 1 1 77 89 76 295
1292 4 2 1 1 213 225 212 295
1293 4 2 1 1 243 272 134 309
1294 4 2 1 1 270 260 125 305
1295 4 2 1 1 192 261 203 306
1296 4 2 1 1 245 257 17 94
1297 4 2 1 1 161 32 121 109
1298 4 2 1 1 60 206 174 227
1299 4 2 1 1 292 317 276 334
1300 4 2 1 1 37 127 258 243
1301 4 2 1 1 173 65 261 240
1302 4 2 1 1 110 123 111 297
1303 4 2 1 1 246 259 247 298
1304 4 2 1 1 95 92 306 337
1305 4 2 1 1 15 90 71 343
1306 4 2 1 1 30 159 138 342
1307 4 2 1 1 164 297 143 338
1308 4 2 1 1 120 124 108 299
1309 4 2 1 1 278 304 302 351
1310 4 2 1 1 302 304 275 351
1311 4 2 1 1 292 274 339 349
1312 4 2 1 1 186 336 294 339
1313 4 2 1 1 147 148 149 346
1314 4 2 1 1 98 85 82 337
1315 4 2 1 1 152 162 149 304
1316 4 2 1 1 97 77 79 345
1317 4 2 1 1 122 105 132 294
1318 4 2 1 1 250 253 268 321
1319 4 2 1 1 179 300 191 347
1320 4 2 1 1 84 81 82 324
1321 4 2 1 1 190 200 184 349
1322 4 2 1 1 210 226 222 297
1323 4 2 1 1 154 142 158 298
1324 4 2 1 1 134 272 202 309
1325 4 2 1 1 294 336 331 339
1326 4 2 1 1 168 270 136 305
1327 4 2 1 1 100 203 271 306
1328 4 2 1 1 178 191 179 300
1329 4 2 1 1 84 71 93 324
1330 4 2 1 1 175 126 202 309
1331 4 2 1 1 162 338 151 346
1332 4 2 1 1 280 291 318 327
1333 4 2 1 1 186 172 195 294
1334 4 2 1 1 127 118 104 293
1335 4 2 1 1 275 321 293 329
1336 4 2 1 1 73 245 17 94
1337 4 2 1 1 32 161 141 109
1338 4 2 1 1 152 304 149 344
1339 4 2 1 1 85 187 22 92
1340 4 2 1 1 156 255 57 160
1341 4 2 1 1 241 35 125 104
1342 4 2 1 1 40 105 172 193
1343 4 2 1 1 153 154 146 311
1344 4 2 1 1 128 104 118 293
1345 4 2 1 1 75 91 88 300
1346 4 2 1 1 127 37 107 243
1347 4 2 1 1 229 206 220 301
1348 4 2 1 1 278 332 330 351
1349 4 2 1 1 293 316 275 329
1350 4 2 1 1 282 326 320 341
1351 4 2 1 1 278 320 304 351
1352 4 2 1 1 251 264 254 317
1353 4 2 1 1 254 251 317 322
1354 4 2 1 1 177 62 228 229
1355 4 2 1 1 148 146 154 311
1356 4 2 1 1 256 260 244 305
1357 4 2 1 1 192 176 188 306
1358 4 2 1 1 285 330 332 351
1359 4 2 1 1 86 88 78 308
1360 4 2 1 1 304 320 282 326
1361 4 2 1 1 273 320 326 341
1362 4 2 1 1 273 326 320 351
1363 4 2 1 1 282 320 304 346
1364 4 2 1 1 78 308 333 345
1365 4 2 1 1 274 322 292 334
1366 4 2 1 1 248 256 319 321
1367 4 2 1 1 263 190 194 349
1368 4 2 1 1 280 335 301 340
1369 4 2 1 1 301 335 280 347
1370 4 2 1 1 205 213 212 348
1371 4 2 1 1 281 328 308 350
1372 4 2 1 1 122 126 42 195
1373 4 2 1 1 290 275 319 344
1374 4 2 1 1 197 309 194 349
1375 4 2 1 1 267 249 247 314
1376 4 2 1 1 291 276 315 337
1377 4 2 1 1 212 225 235 295
1378 4 2 1 1 167 144 157 295
1379 4 2 1 1 76 89 99 295
1380 4 2 1 1 263 254 240 292
1381 4 2 1 1 141 168 109 305
1382 4 2 1 1 245 73 100 306
1383 4 2 1 1 317 323 276 334
1384 4 2 1 1 320 326 304 351
1385 4 2 1 1 313 335 284 340
1386 4 2 1 1 279 331 294 336
1387 4 2 1 1 152 149 150 344
1388 4 2 1 1 137 145 144 310
1389 4 2 1 1 175 42 126 195
1390 4 2 1 1 107 243 134 309
1391 4 2 1 1 215 233 213 348
1392 4 2 1 1 189 185 199 301
1393 4 2 1 1 242 15 71 343
1394 4 2 1 1 106 30 138 342
1395 4 2 1 1 263 194 67 262
1396 4 2 1 1 78 72 86 308
1397 4 2 1 1 182 315 180 327
1398 4 2 1 1 217 218 215 328
1399 4 2 1 1 284 335 328 350
1400 4 2 1 1 217 313 220 335
1401 4 2 1 1 62 177 189 229
1402 4 2 1 1 222 216 214 307
1403 4 2 1 1 126 129 107 309
1404 4 2 1 1 283 323 317 334
1405 4 2 1 1 209 238 228 299
1406 4 2 1 1 110 133 123 297
1407 4 2 1 1 259 246 269 298
1408 4 2 1 1 170 143 159 297
1409 4 2 1 1 90 102 74 298
1410 4 2 1 1 164 159 143 297
1411 4 2 1 1 74 96 90 298
1412 4 2 1 1 305 319 275 344
1413 4 2 1 1 318 341 287 350
1414 4 2 1 1 193 198 177 299
1415 4 2 1 1 210 236 226 297
1416 4 2 1 1 142 169 158 298
1417 4 2 1 1 155 164 143 338
1418 4 2 1 1 128 118 115 325
1419 4 2 1 1 135 108 124 299
1420 4 2 1 1 193 177 204 299
1421 4 2 1 1 181 182 180 327
1422 4 2 1 1 160 141 163 305
1423 4 2 1 1 92 73 95 306
1424 4 2 1 1 278 338 297 342
1425 4 2 1 1 174 301 199 347
1426 4 2 1 1 273 341 318 350
1427 4 2 1 1 284 340 335 350
1428 4 2 1 1 335 340 280 350
1429 4 2 1 1 71 96 93 343
1430 4 2 1 1 138 164 162 342
1431 4 2 1 1 228 231 209 299
1432 4 2 1 1 199 174 189 301
1433 4 2 1 1 293 325 316 329
1434 4 2 1 1 316 325 285 329
1435 4 2 1 1 232 227 211 300
1436 4 2 1 1 175 194 197 309
1437 4 2 1 1 216 222 234 307
1438 4 2 1 1 248 250 256 321
1439 4 2 1 1 194 190 263 67
1440 4 2 1 1 111 131 113 332
1441 4 2 1 1 130 109 125 305
1442 4 2 1 1 243 265 262 309
1443 4 2 1 1 245 261 266 306
1444 4 2 1 1 320 278 330 351
1445 4 2 1 1 286 331 336 339
1446 4 2 1 1 292 322 317 334
1447 4 2 1 1 120 112 114 312
1448 4 2 1 1 180 188 187 315
1449 4 2 1 1 317 322 283 334
1450 4 2 1 1 264 252 266 317
1451 4 2 1 1 303 324 277 343
1452 4 2 1 1 178 201 191 300
1453 4 2 1 1 227 237 211 300
1454 4 2 1 1 145 146 147 310
1455 4 2 1 1 101 91 75 300
1456 4 2 1 1 128 117 130 316
1457 4 2 1 1 71 90 96 343
1458 4 2 1 1 138 159 164 342
1459 4 2 1 1 182 200 188 315
1460 4 2 1 1 199 327 179 347
1461 4 2 1 1 113 114 112 332
1462 4 2 1 1 168 244 160 58
1463 4 2 1 1 23 92 176 100
1464 4 2 1 1 218 217 230 335
1465 4 2 1 1 273 318 340 350
1466 4 2 1 1 183 336 186 339
1467 4 2 1 1 275 316 302 351
1468 4 2 1 1 220 217 219 313
1469 4 2 1 1 243 262 272 309
1470 4 2 1 1 199 181 179 327
1471 4 2 1 1 203 23 176 100
1472 4 2 1 1 58 168 244 270
1473 4 2 1 1 149 162 151 346
1474 4 2 1 1 249 250 248 314
1475 4 2 1 1 304 326 275 351
1476 4 2 1 1 202 43 134 126
1477 4 2 1 1 95 85 92 337
1478 4 2 1 1 136 125 109 305
1479 4 2 1 1 271 261 245 306
1480 4 2 1 1 270 244 260 305
1481 4 2 1 1 176 192 203 306
1482 4 2 1 1 214 215 213 348
1483 4 2 1 1 117 131 121 302
1484 4 2 1 1 252 267 257 303
1485 4 2 1 1 78 333 80 345
1486 4 2 1 1 89 9 167 144
1487 4 2 1 1 49 235 157 212
1488 4 2 1 1 76 99 24 225
1489 4 2 1 1 107 134 126 309
1490 4 2 1 1 28 75 211 101
1491 4 2 1 1 143 210 236 53
1492 4 2 1 1 74 169 13 142
1493 4 2 1 1 178 19 201 91
1494 4 2 1 1 269 54 158 246
1495 4 2 1 1 133 226 110 44
1496 4 2 1 1 106 111 123 342
1497 4 2 1 1 242 247 259 343
1498 4 2 1 1 237 28 211 101
1499 4 2 1 1 236 170 143 53
1500 4 2 1 1 102 169 13 74
1501 4 2 1 1 99 235 24 225
1502 4 2 1 1 167 99 9 89
1503 4 2 1 1 49 235 167 157
1504 4 2 1 1 160 168 141 305
1505 4 2 1 1 100 73 92 306
1506 4 2 1 1 184 339 197 349
1507 4 2 1 1 193 204 39 135
1508 4 2 1 1 136 34 125 270
1509 4 2 1 1 271 261 203 64
1510 4 2 1 1 170 159 29 133
1511 4 2 1 1 59 237 227 201
1512 4 2 1 1 102 14 269 90
1513 4 2 1 1 19 101 201 91
1514 4 2 1 1 44 133 226 236
1515 4 2 1 1 269 54 169 158
1516 4 2 1 1 326 329 275 351
1517 4 2 1 1 214 213 205 348
1518 4 2 1 1 163 150 156 344
1519 4 2 1 1 14 259 269 90
1520 4 2 1 1 227 191 59 201
1521 4 2 1 1 159 123 29 133
1522 4 2 1 1 202 194 175 309
1523 4 2 1 1 262 194 68 202
1524 4 2 1 1 244 255 256 319
1525 4 2 1 1 251 252 264 317
1526 4 2 1 1 64 261 203 192
1527 4 2 1 1 34 125 270 260
1528 4 2 1 1 39 124 193 135
1529 4 2 1 1 135 209 48 108
1530 4 2 1 1 275 329 316 351
1531 4 2 1 1 285 316 329 351
1532 4 2 1 1 43 202 175 126
1533 4 2 1 1 209 135 48 238
1534 4 2 1 1 136 109 33 168
1535 4 2 1 1 18 100 271 245
1536 4 2 1 1 185 196 183 336
1537 4 2 1 1 88 80 78 333
1538 4 2 1 1 238 228 204 63
1539 4 2 1 1 68 272 262 202
1540 4 2 1 1 115 117 128 316
1541 4 2 1 1 186 183 196 336
1542 4 2 1 1 63 228 204 177
1543 4 2 1 1 77 78 79 345
1544 4 2 1 1 112 111 113 332
1545 4 2 1 1 184 183 186 339
1546 4 2 1 1 248 256 255 319
1547 4 2 1 1 111 106 131 342
1548 4 2 1 1 247 242 267 343
1549 4 2 1 1 247 249 248 314
1550 4 2 1 1 186 197 184 339
1551 4 2 1 1 98 80 88 333
1552 4 2 1 1 272 38 243 134
1553 4 2 1 1 180 179 181 327
1554 4 2 1 1 146 145 137 310
1555 4 2 1 1 129 116 118 325
1556 4 2 1 1 109 141 33 168
1557 4 2 1 1 18 100 245 73
1558 4 2 1 1 162 164 151 338
1559 4 2 1 1 82 85 95 337
1560 4 2 1 1 217 220 230 335
1561 4 2 1 1 151 164 155 338
1562 4 2 1 1 280 340 318 350
1563 4 2 1 1 220 219 231 313
1564 4 2 1 1 114 132 120 312
1565 4 2 1 1 78 80 79 345
1566 4 2 1 1 243 38 107 134
1567 4 2 1 1 254 253 251 322
1568 4 2 1 1 190 184 197 349
1569 4 2 1 1 84 93 81 324
1570 4 2 1 1 174 179 191 347
1571 4 2 1 1 182 188 180 315
1572 4 2 1 1 115 118 116 325
1573 4 2 1 1 151 147 149 346
1574 4 2 1 1 250 268 256 321
1575 4 2 1 1 215 218 233 328
1576 4 2 1 1 76 24 25 225
1577 4 2 1 1 157 50 49 212
1578 4 2 1 1 10 9 89 144
1579 4 2 1 1 226 45 110 44
1580 4 2 1 1 55 158 54 246
1581 4 2 1 1 178 20 19 91
1582 4 2 1 1 5 136 168 270
1583 4 2 1 1 100 203 3 271
1584 4 2 1 1 2 235 99 167
1585 4 2 1 1 6 170 133 236
1586 4 2 1 1 101 237 4 201
1587 4 2 1 1 169 1 269 102
1588 4 2 1 1 134 272 7 202
1589 4 2 1 1 135 204 8 238
1590 4 2 1 1 253 254 265 322
1591 4 2 1 1 147 151 165 346
1592 4 2 1 1 26 27 86 223
1593 4 2 1 1 51 52 221 155
1594 4 2 1 1 153 11 12 87
1595 4 2 1 1 47 119 224 46
1596 4 2 1 1 22 21 187 85
1597 4 2 1 1 56 255 57 156
1598 4 2 1 1 152 150 163 344
1599 4 2 1 1 174 61 206 60
1600 4 2 1 1 59 60 191 227
1601 4 2 1 1 29 30 123 159
1602 4 2 1 1 14 15 259 90
1603 4 2 1 1 244 57 160 58
1604 4 2 1 1 22 23 92 176
1605 4 2 1 1 240 173 65 66
1606 4 2 1 1 261 64 65 192
1607 4 2 1 1 125 34 35 260
1608 4 2 1 1 193 40 124 39
1609 4 2 1 1 190 197 194 349
1610 4 2 1 1 25 26 72 208
1611 4 2 1 1 69 11 10 137
1612 4 2 1 1 140 50 205 51
1613 4 2 1 1 70 20 21 171
1614 4 2 1 1 55 56 139 239
1615 4 2 1 1 46 207 45 103
1616 4 2 1 1 189 61 62 229
1617 4 2 1 1 210 143 52 53
1618 4 2 1 1 27 28 75 211
1619 4 2 1 1 74 13 12 142
1620 4 2 1 1 190 66 263 67
1621 4 2 1 1 16 15 71 242
1622 4 2 1 1 138 31 30 106
1623 4 2 1 1 172 41 105 40
1624 4 2 1 1 104 241 35 36
1625 4 2 1 1 68 67 194 262
1626 4 2 1 1 37 127 36 258
1627 4 2 1 1 257 16 17 94
1628 4 2 1 1 121 31 32 161
1629 4 2 1 1 42 122 195 41
1630 4 2 1 1 174 199 179 347
1631 4 2 1 1 108 209 48 47
1632 4 2 1 1 43 175 42 126
1633 4 2 1 1 228 63 62 177
1634 4 2 1 1 245 17 18 73
1635 4 2 1 1 33 32 141 109
1636 4 2 1 1 5 168 58 270
1637 4 2 1 1 2 49 235 167
1638 4 2 1 1 99 9 2 167
1639 4 2 1 1 203 3 23 100
1640 4 2 1 1 24 2 235 99
1641 4 2 1 1 237 59 4 201
1642 4 2 1 1 236 6 170 53
1643 4 2 1 1 170 29 6 133
1644 4 2 1 1 237 4 28 101
1645 4 2 1 1 271 203 3 64
1646 4 2 1 1 1 14 269 102
1647 4 2 1 1 169 13 1 102
1648 4 2 1 1 136 5 34 270
1649 4 2 1 1 101 4 19 201
1650 4 2 1 1 1 269 54 169
1651 4 2 1 1 44 6 133 236
1652 4 2 1 1 39 204 8 135
1653 4 2 1 1 48 135 8 238
1654 4 2 1 1 238 204 8 63
1655 4 2 1 1 272 68 7 202
1656 4 2 1 1 107 37 38 243
1657 4 2 1 1 43 134 7 202
1658 4 2 1 1 33 5 136 168
1659 4 2 1 1 3 18 100 271
1660 4 2 1 1 38 272 7 134
1661 4 2 1 1 348 145 310 295
1662 4 2 1 1 348 310 145 288
1663 4 2 1 1 309 195 186 175
1664 4 2 1 1 309 186 195 294
1665 4 2 1 1 305 161 344 302
1666 4 2 1 1 305 344 161 141
1667 4 2 1 1 152 344 161 302
1668 4 2 1 1 152 161 344 141
1669 4 2 1 1 306 94 84 303
1670 4 2 1 1 306 84 94 73
1671 4 2 1 1 295 345 72 77
1672 4 2 1 1 72 345 295 281
1673 4 2 1 1 300 335 308 232
1674 4 2 1 1 308 335 300 280
1675 4 2 1 1 322 258 309 265
1676 4 2 1 1 322 309 258 293
1677 4 2 1 1 279 198 294 299
1678 4 2 1 1 279 294 198 336
1679 4 2 1 1 293 325 127 118
1680 4 2 1 1 293 127 325 309
1681 4 2 1 1 107 127 325 118
1682 4 2 1 1 107 325 127 309
1683 4 2 1 1 307 338 222 297
1684 4 2 1 1 307 222 338 221
1685 4 2 1 1 210 222 338 297
1686 4 2 1 1 210 338 222 221
1687 4 2 1 1 317 240 306 266
1688 4 2 1 1 317 306 240 292
1689 4 2 1 1 195 126 309 122
1690 4 2 1 1 195 309 126 175
1691 4 2 1 1 336 172 186 294
1692 4 2 1 1 336 186 172 196
1693 4 2 1 1 311 166 139 154
1694 4 2 1 1 311 139 166 290
1695 4 2 1 1 316 104 305 130
1696 4 2 1 1 316 305 104 293
1697 4 2 1 1 310 89 77 295
1698 4 2 1 1 310 77 89 69
1699 4 2 1 1 321 326 329 275
1700 4 2 1 1 329 326 321 283
1701 4 2 1 1 245 94 306 257
1702 4 2 1 1 306 94 245 73
1703 4 2 1 1 161 109 305 141
1704 4 2 1 1 305 109 161 121
1705 4 2 1 1 313 234 224 289
1706 4 2 1 1 313 224 234 219
1707 4 2 1 1 343 94 324 71
1708 4 2 1 1 343 324 94 303
1709 4 2 1 1 84 324 94 71
1710 4 2 1 1 84 94 324 303
1711 4 2 1 1 342 161 152 138
1712 4 2 1 1 342 152 161 302
1713 4 2 1 1 332 307 330 289
1714 4 2 1 1 332 330 307 278
1715 4 2 1 1 127 243 309 258
1716 4 2 1 1 309 243 127 107
1717 4 2 1 1 318 331 334 273
1718 4 2 1 1 334 331 318 286
1719 4 2 1 1 161 106 342 121
1720 4 2 1 1 342 106 161 138
1721 4 2 1 1 94 242 343 257
1722 4 2 1 1 343 242 94 71
1723 4 2 1 1 340 336 331 279
1724 4 2 1 1 340 331 336 286
1725 4 2 1 1 335 206 220 230
1726 4 2 1 1 335 220 206 301
1727 4 2 1 1 342 121 131 302
1728 4 2 1 1 342 131 121 106
1729 4 2 1 1 257 343 267 242
1730 4 2 1 1 267 343 257 303
1731 4 2 1 1 323 314 326 283
1732 4 2 1 1 323 326 314 277
1733 4 2 1 1 290 344 148 304
1734 4 2 1 1 290 148 344 150
1735 4 2 1 1 149 148 344 304
1736 4 2 1 1 149 344 148 150
$EndElements
