$MeshFormat
2.2 0 8
$EndMeshFormat
$PhysicalNames
3
2 1 "outer_boundary"
2 2 "inner_boundary"
3 1 "domain"
$EndPhysicalNames
$Nodes
107
1 1.570796326794897 1.570796326794897 2.617993877991494
2 1.570796326794897 1.570796326794897 0.5235987755982989
3 1.570796326794897 1.570796326794897 2.094395102393195
4 1.570796326794897 1.570796326794897 1.047197551196598
5 2.025158315902827 1.570796326794896 0.6273039346231123
6 2.389528340683823 1.570796326794896 0.9178793330923788
7 2.591738449024914 1.570796326794896 1.337772949665864
8 2.591738449024914 1.570796326794896 1.803819703923929
9 2.389528340683823 1.570796326794896 2.223713320497414
10 2.025158315902827 1.570796326794896 2.51428871896668
11 1.941036571641427 1.570796326794897 1.200556081948366
12 2.094395102393195 1.570796326794896 1.570796326794896
13 1.941036571641427 1.570796326794897 1.941036571641427
14 2.414802843225205 2.005092721478008 1.128458952135489
15 1.579055802776504 1.892985491818473 2.56716404718234
16 2.442714405893881 1.970884973638728 1.990689943368381
17 1.786142308444864 1.970884973638795 0.6273039346231416
18 1.985982363625605 2.00148531201466 2.430302152291926
19 2.51544277112255 2.022465810513334 1.554656812279475
20 2.290901601427888 2.303050517971324 1.775429911972037
21 2.264959510279932 1.952929959634049 0.8861547617557706
22 2.071814276092073 2.28119492237295 0.9868977387550457
23 2.147860580154209 2.250850159691256 2.119564349815535
24 1.912591007692549 2.541487298354481 1.764595565892816
25 1.600765434108671 2.351392072461236 0.8733761910900419
26 1.713919958858807 2.35465201181967 2.250287755902967
27 1.31990014694336 2.03389169578701 0.665690533317629
28 1.796894339091042 2.546516109845014 1.265062283822064
29 1.434393561024882 2.550124612310458 1.915663121241089
30 1.117076546565449 2.373551976782877 1.074465349852023
31 1.24512037062553 2.271070563969798 2.278026045878045
32 2.17418235902976 1.170707679959588 2.327418479530006
33 2.542421937137717 1.180202775799285 1.572546320718214
34 2.174182359034053 1.170707679950705 0.8141741740679082
35 0.9978257966286015 2.383846089495482 1.898328868942433
36 0.8547188773257646 2.037519155103071 2.175796821943415
37 0.6911477237127245 2.115423713833967 1.732728583046479
38 0.6157941795380445 1.685921986777398 1.984728316837399
39 0.5399435907921077 1.746020192407464 1.513682888555685
40 0.5771602772339823 1.288953509925187 1.743639431442084
41 0.5855409120266437 1.336196231822315 1.304606029562175
42 0.7467426789733068 0.9282728852533539 1.502080070976537
43 0.7620645718654607 1.284732944036414 2.171415508011814
44 0.8328159441219043 0.9974559086176755 1.098262274152821
45 1.089662936428942 0.6780606594329749 1.309728519267853
46 1.03904209164288 0.6855051560866058 1.74434657224557
47 1.437071799184912 0.5321738847954285 1.568825306069924
48 1.418771333125441 0.6374930644515397 2.020747583078508
49 1.267606054993483 0.8224801197690971 0.9039221073054515
50 1.833910859960582 0.5887705872310334 1.821831982635262
51 1.834098818073722 0.5801321195077687 1.356602634733993
52 1.021790136543648 1.143092979216155 0.788310058054097
53 0.9035488971850176 1.951390723207584 0.8590720231980453
54 0.7157635936098332 2.10996629691857 1.297231929017942
55 1.222939846015041 2.557638415278964 1.528828810690073
56 0.7502461536868109 1.432110518724394 0.9351184435204561
57 2.200186506846682 0.734077747677423 1.590613789956643
58 1.814390765187632 0.8001833429717679 2.236709301574254
59 1.399191673196993 0.9440475627758476 2.391990908423568
60 1.453724404786866 0.9697186497574287 0.7213126586312655
61 1.730600900737668 0.7703490091741974 0.9147709453553159
62 1.155700483115481 1.863867321823273 2.486453218684704
63 2.168960058955259 0.8292545269831884 1.136125623972462
64 1.123118280229331 1.613280025806296 0.6250679233017483
65 1.786091144508579 1.172807017466104 2.515187857018338
66 1.322584327434272 1.320907927155757 2.556985610011532
67 2.177996545594968 0.8641418407991991 2.048886321402034
68 2.434950985908313 1.191550331456479 2.024703708740264
69 0.6241290939127342 1.747114402053958 1.15926771569195
70 2.450983279968026 1.192412332606653 1.148044399965336
71 1.114007663695401 1.549430801827452 2.512874000258604
72 1.058265210471741 0.8552465121328662 2.138178939120852
73 0.7707048207262477 0.9629304761046378 1.865712248226005
74 1.468033352045643 0.6061120431826558 1.176529012394663
75 1.080377990158069 1.157877004151404 2.39881214748322
76 0.8257031982389462 1.695026017993334 2.296072773975968
77 1.442851057177549 2.546547569040466 1.212798795419438
78 2.193469998000702 2.390680877095759 1.379251202614749
79 1.591036943157424 2.61778522634506 1.576018673025663
80 0.8999808814970823 2.372975289313021 1.514776136904185
81 1.822574782036156 1.136998432884724 0.651530474090917
82 1.52412321091005 2.162230158280038 2.433727583883523
83 2.292188898547917 1.894639404363472 2.257339209477856
84 2.385428163198617 0.9420047512681841 1.376840566642516
85 2.387071776353031 0.9509653292708696 1.785567451923917
86 1.946944300767367 1.236741513706828 1.425621393224604
87 1.724154857546786 1.233811163993656 1.941036571643401
88 1.970317870445709 1.269872987540222 1.725661939048635
89 1.691633679179785 1.062019967445994 1.597265709944571
90 1.315266026485957 1.15161485645583 1.752859058721116
91 1.343534480787694 1.121733779061284 1.426399099049924
92 1.653664230663059 1.753230095525049 2.054538518818135
93 1.078511678358104 1.393703998122132 1.549587605787755
94 1.941036571641517 1.90778148959825 1.724154857546693
95 1.566185024092609 2.06365224293266 1.747509256778617
96 1.724154857546665 1.907781489598364 1.200556081948368
97 1.175167079129863 1.464079831180256 1.244844235585517
98 1.09589934742966 1.776792181636035 1.492092803455212
99 1.085967350073035 1.555772116164717 1.767953153290482
100 1.334846006903392 1.825685533669014 1.178986913214496
101 1.446389460719207 2.056824771092884 1.42094653261906
102 1.982972609002958 1.86423479534977 1.436036335086124
103 1.42416080296276 1.254845519070578 1.179863099687168
104 1.694103324181672 1.161443647937153 1.268502683931729
105 1.236724881419551 1.954227987694096 1.695424207355171
106 1.763751033582804 2.049273348926874 1.481443664673694
107 1.319861421529609 1.833954503705669 1.947539110471688
$EndNodes
$Elements
508
1 2 2 1 1 10 18 1
2 2 2 1 1 1 65 10
3 2 2 1 1 1 18 15
4 2 2 1 1 15 66 1
5 2 2 1 1 1 66 65
6 2 2 1 1 2 17 5
7 2 2 1 1 5 81 2
8 2 2 1 1 2 27 17
9 2 2 1 1 2 64 27
10 2 2 1 1 60 64 2
11 2 2 1 1 2 81 60
12 2 2 1 1 5 21 6
13 2 2 1 1 6 34 5
14 2 2 1 1 17 21 5
15 2 2 1 1 34 81 5
16 2 2 1 1 6 14 7
17 2 2 1 1 7 70 6
18 2 2 1 1 6 21 14
19 2 2 1 1 6 70 34
20 2 2 1 1 7 19 8
21 2 2 1 1 8 33 7
22 2 2 1 1 14 19 7
23 2 2 1 1 33 70 7
24 2 2 1 1 8 16 9
25 2 2 1 1 9 68 8
26 2 2 1 1 8 19 16
27 2 2 1 1 8 68 33
28 2 2 1 1 10 32 9
29 2 2 1 1 9 83 10
30 2 2 1 1 16 83 9
31 2 2 1 1 32 68 9
32 2 2 1 1 10 83 18
33 2 2 1 1 10 65 32
34 2 2 1 1 14 78 19
35 2 2 1 1 21 22 14
36 2 2 1 1 22 78 14
37 2 2 1 1 18 82 15
38 2 2 1 1 62 71 15
39 2 2 1 1 15 82 62
40 2 2 1 1 15 71 66
41 2 2 1 1 19 20 16
42 2 2 1 1 20 23 16
43 2 2 1 1 23 83 16
44 2 2 1 1 17 22 21
45 2 2 1 1 17 25 22
46 2 2 1 1 17 27 25
47 2 2 1 1 23 26 18
48 2 2 1 1 18 83 23
49 2 2 1 1 26 82 18
50 2 2 1 1 19 78 20
51 2 2 1 1 20 24 23
52 2 2 1 1 20 78 24
53 2 2 1 1 25 28 22
54 2 2 1 1 28 78 22
55 2 2 1 1 24 26 23
56 2 2 1 1 24 29 26
57 2 2 1 1 24 78 28
58 2 2 1 1 28 79 24
59 2 2 1 1 24 79 29
60 2 2 1 1 27 30 25
61 2 2 1 1 25 77 28
62 2 2 1 1 30 77 25
63 2 2 1 1 29 31 26
64 2 2 1 1 31 82 26
65 2 2 1 1 27 53 30
66 2 2 1 1 27 64 53
67 2 2 1 1 77 79 28
68 2 2 1 1 29 35 31
69 2 2 1 1 29 55 35
70 2 2 1 1 29 79 55
71 2 2 1 1 53 54 30
72 2 2 1 1 54 80 30
73 2 2 1 1 55 77 30
74 2 2 1 1 30 80 55
75 2 2 1 1 35 36 31
76 2 2 1 1 36 62 31
77 2 2 1 1 62 82 31
78 2 2 1 1 32 65 58
79 2 2 1 1 58 67 32
80 2 2 1 1 67 68 32
81 2 2 1 1 68 85 33
82 2 2 1 1 33 84 70
83 2 2 1 1 33 85 84
84 2 2 1 1 34 63 61
85 2 2 1 1 61 81 34
86 2 2 1 1 34 70 63
87 2 2 1 1 35 37 36
88 2 2 1 1 35 80 37
89 2 2 1 1 55 80 35
90 2 2 1 1 37 38 36
91 2 2 1 1 38 76 36
92 2 2 1 1 36 76 62
93 2 2 1 1 37 39 38
94 2 2 1 1 37 54 39
95 2 2 1 1 37 80 54
96 2 2 1 1 39 40 38
97 2 2 1 1 40 43 38
98 2 2 1 1 43 76 38
99 2 2 1 1 39 41 40
100 2 2 1 1 39 69 41
101 2 2 1 1 54 69 39
102 2 2 1 1 41 42 40
103 2 2 1 1 42 73 40
104 2 2 1 1 40 73 43
105 2 2 1 1 41 44 42
106 2 2 1 1 41 56 44
107 2 2 1 1 41 69 56
108 2 2 1 1 44 45 42
109 2 2 1 1 45 46 42
110 2 2 1 1 46 73 42
111 2 2 1 1 43 75 71
112 2 2 1 1 71 76 43
113 2 2 1 1 43 73 72
114 2 2 1 1 72 75 43
115 2 2 1 1 44 49 45
116 2 2 1 1 44 52 49
117 2 2 1 1 44 56 52
118 2 2 1 1 45 47 46
119 2 2 1 1 45 74 47
120 2 2 1 1 49 74 45
121 2 2 1 1 47 48 46
122 2 2 1 1 48 72 46
123 2 2 1 1 72 73 46
124 2 2 1 1 47 50 48
125 2 2 1 1 47 51 50
126 2 2 1 1 47 74 51
127 2 2 1 1 50 58 48
128 2 2 1 1 58 59 48
129 2 2 1 1 59 72 48
130 2 2 1 1 52 60 49
131 2 2 1 1 60 61 49
132 2 2 1 1 61 74 49
133 2 2 1 1 51 57 50
134 2 2 1 1 57 67 50
135 2 2 1 1 50 67 58
136 2 2 1 1 51 63 57
137 2 2 1 1 61 63 51
138 2 2 1 1 51 74 61
139 2 2 1 1 56 64 52
140 2 2 1 1 52 64 60
141 2 2 1 1 53 69 54
142 2 2 1 1 53 64 56
143 2 2 1 1 56 69 53
144 2 2 1 1 55 79 77
145 2 2 1 1 63 84 57
146 2 2 1 1 57 85 67
147 2 2 1 1 84 85 57
148 2 2 1 1 58 65 59
149 2 2 1 1 65 66 59
150 2 2 1 1 66 75 59
151 2 2 1 1 59 75 72
152 2 2 1 1 60 81 61
153 2 2 1 1 62 76 71
154 2 2 1 1 70 84 63
155 2 2 1 1 71 75 66
156 2 2 1 1 67 85 68
157 2 2 2 2 3 13 87
158 2 2 2 2 13 3 92
159 2 2 2 2 3 87 107
160 2 2 2 2 92 3 107
161 2 2 2 2 4 11 96
162 2 2 2 2 11 4 104
163 2 2 2 2 4 96 100
164 2 2 2 2 4 100 103
165 2 2 2 2 4 103 104
166 2 2 2 2 12 11 86
167 2 2 2 2 11 12 102
168 2 2 2 2 86 11 104
169 2 2 2 2 96 11 102
170 2 2 2 2 13 12 88
171 2 2 2 2 12 13 94
172 2 2 2 2 12 86 88
173 2 2 2 2 12 94 102
174 2 2 2 2 87 13 88
175 2 2 2 2 13 92 94
176 2 2 2 2 88 86 89
177 2 2 2 2 89 86 104
178 2 2 2 2 87 88 89
179 2 2 2 2 87 89 90
180 2 2 2 2 87 90 99
181 2 2 2 2 87 99 107
182 2 2 2 2 90 89 91
183 2 2 2 2 91 89 104
184 2 2 2 2 90 91 93
185 2 2 2 2 90 93 99
186 2 2 2 2 93 91 97
187 2 2 2 2 97 91 103
188 2 2 2 2 103 91 104
189 2 2 2 2 94 92 95
190 2 2 2 2 95 92 107
191 2 2 2 2 93 97 98
192 2 2 2 2 93 98 99
193 2 2 2 2 94 95 106
194 2 2 2 2 102 94 106
195 2 2 2 2 101 95 105
196 2 2 2 2 95 101 106
197 2 2 2 2 105 95 107
198 2 2 2 2 100 96 101
199 2 2 2 2 101 96 106
200 2 2 2 2 96 102 106
201 2 2 2 2 98 97 100
202 2 2 2 2 100 97 103
203 2 2 2 2 99 98 105
204 2 2 2 2 98 100 101
205 2 2 2 2 98 101 105
206 2 2 2 2 99 105 107
207 4 2 1 1 12 13 88 68
208 4 2 1 1 12 88 33 68
209 4 2 1 1 10 3 13 65
210 4 2 1 1 12 7 11 102
211 4 2 1 1 57 88 89 67
212 4 2 1 1 97 93 98 69
213 4 2 1 1 94 13 12 16
214 4 2 1 1 101 106 96 28
215 4 2 1 1 70 33 12 86
216 4 2 1 1 8 12 13 16
217 4 2 1 1 93 97 41 69
218 4 2 1 1 13 12 8 68
219 4 2 1 1 70 12 11 86
220 4 2 1 1 94 13 83 92
221 4 2 1 1 75 59 3 66
222 4 2 1 1 47 74 91 89
223 4 2 1 1 33 88 12 86
224 4 2 1 1 33 88 86 84
225 4 2 1 1 88 33 85 84
226 4 2 1 1 89 74 91 104
227 4 2 1 1 101 79 95 106
228 4 2 1 1 102 96 106 22
229 4 2 1 1 31 105 35 95
230 4 2 1 1 15 66 3 1
231 4 2 1 1 19 7 12 102
232 4 2 1 1 93 91 44 97
233 4 2 1 1 86 57 89 51
234 4 2 1 1 14 11 7 102
235 4 2 1 1 106 101 79 28
236 4 2 1 1 102 106 94 78
237 4 2 1 1 89 88 57 86
238 4 2 1 1 47 90 48 89
239 4 2 1 1 42 91 93 90
240 4 2 1 1 72 59 90 75
241 4 2 1 1 68 13 88 32
242 4 2 1 1 11 7 12 70
243 4 2 1 1 44 42 91 93
244 4 2 1 1 9 8 13 16
245 4 2 1 1 13 10 65 32
246 4 2 1 1 47 91 90 89
247 4 2 1 1 98 101 80 105
248 4 2 1 1 101 80 30 98
249 4 2 1 1 12 94 16 19
250 4 2 1 1 98 100 97 69
251 4 2 1 1 33 8 12 68
252 4 2 1 1 73 42 93 90
253 4 2 1 1 89 50 57 67
254 4 2 1 1 13 8 9 68
255 4 2 1 1 11 4 96 17
256 4 2 1 1 20 94 106 78
257 4 2 1 1 104 86 89 51
258 4 2 1 1 90 43 72 75
259 4 2 1 1 47 74 89 51
260 4 2 1 1 94 24 20 106
261 4 2 1 1 104 89 74 51
262 4 2 1 1 88 33 68 85
263 4 2 1 1 86 70 33 84
264 4 2 1 1 33 12 7 70
265 4 2 1 1 44 93 97 41
266 4 2 1 1 31 35 29 95
267 4 2 1 1 95 79 24 106
268 4 2 1 1 104 4 11 81
269 4 2 1 1 91 42 46 90
270 4 2 1 1 47 91 46 90
271 4 2 1 1 17 96 11 21
272 4 2 1 1 19 12 94 102
273 4 2 1 1 28 106 96 22
274 4 2 1 1 51 86 57 63
275 4 2 1 1 28 96 101 25
276 4 2 1 1 78 102 106 22
277 4 2 1 1 23 24 94 95
278 4 2 1 1 57 85 88 67
279 4 2 1 1 8 12 16 19
280 4 2 1 1 91 42 45 46
281 4 2 1 1 11 96 102 21
282 4 2 1 1 50 47 48 89
283 4 2 1 1 13 3 10 92
284 4 2 1 1 106 24 20 78
285 4 2 1 1 19 14 7 102
286 4 2 1 1 24 94 95 106
287 4 2 1 1 45 47 91 46
288 4 2 1 1 79 55 101 95
289 4 2 1 1 104 86 51 63
290 4 2 1 1 45 47 74 91
291 4 2 1 1 71 75 3 66
292 4 2 1 1 66 59 3 65
293 4 2 1 1 80 54 30 98
294 4 2 1 1 94 83 13 16
295 4 2 1 1 5 11 4 81
296 4 2 1 1 101 77 79 28
297 4 2 1 1 28 101 77 25
298 4 2 1 1 101 55 105 95
299 4 2 1 1 94 20 102 78
300 4 2 1 1 90 46 47 48
301 4 2 1 1 100 53 97 69
302 4 2 1 1 83 9 13 16
303 4 2 1 1 90 43 73 72
304 4 2 1 1 42 73 46 90
305 4 2 1 1 11 7 6 14
306 4 2 1 1 6 7 11 70
307 4 2 1 1 94 20 19 102
308 4 2 1 1 44 42 93 41
309 4 2 1 1 95 26 82 92
310 4 2 1 1 106 79 24 28
311 4 2 1 1 53 56 97 69
312 4 2 1 1 44 42 45 91
313 4 2 1 1 90 48 59 72
314 4 2 1 1 100 101 30 98
315 4 2 1 1 4 27 96 17
316 4 2 1 1 65 3 13 87
317 4 2 1 1 44 45 49 91
318 4 2 1 1 45 74 49 91
319 4 2 1 1 22 102 96 21
320 4 2 1 1 20 19 102 78
321 4 2 1 1 4 11 5 17
322 4 2 1 1 26 82 31 95
323 4 2 1 1 68 9 13 32
324 4 2 1 1 39 41 93 40
325 4 2 1 1 79 29 55 95
326 4 2 1 1 11 34 70 86
327 4 2 1 1 83 18 94 92
328 4 2 1 1 24 23 26 95
329 4 2 1 1 67 68 88 32
330 4 2 1 1 43 90 99 75
331 4 2 1 1 84 57 86 63
332 4 2 1 1 84 86 70 63
333 4 2 1 1 11 34 86 104
334 4 2 1 1 11 34 104 81
335 4 2 1 1 101 77 55 79
336 4 2 1 1 105 35 37 36
337 4 2 1 1 11 5 17 21
338 4 2 1 1 100 4 27 96
339 4 2 1 1 101 55 80 105
340 4 2 1 1 93 42 73 40
341 4 2 1 1 96 100 101 25
342 4 2 1 1 34 86 104 63
343 4 2 1 1 10 13 9 32
344 4 2 1 1 85 68 88 67
345 4 2 1 1 56 41 97 69
346 4 2 1 1 88 87 89 67
347 4 2 1 1 74 103 91 104
348 4 2 1 1 94 18 23 92
349 4 2 1 1 9 13 10 83
350 4 2 1 1 30 77 101 25
351 4 2 1 1 65 59 3 87
352 4 2 1 1 50 89 57 51
353 4 2 1 1 30 54 100 98
354 4 2 1 1 105 80 98 37
355 4 2 1 1 34 70 86 63
356 4 2 1 1 26 31 29 95
357 4 2 1 1 91 103 44 97
358 4 2 1 1 89 50 47 51
359 4 2 1 1 12 8 7 19
360 4 2 1 1 83 18 23 94
361 4 2 1 1 103 49 74 91
362 4 2 1 1 3 62 15 92
363 4 2 1 1 25 96 27 17
364 4 2 1 1 42 93 41 40
365 4 2 1 1 75 99 43 71
366 4 2 1 1 105 55 80 35
367 4 2 1 1 106 28 78 22
368 4 2 1 1 102 14 11 21
369 4 2 1 1 90 93 73 99
370 4 2 1 1 24 106 28 78
371 4 2 1 1 36 37 105 99
372 4 2 1 1 28 96 25 22
373 4 2 1 1 16 94 20 19
374 4 2 1 1 102 19 14 78
375 4 2 1 1 7 8 12 33
376 4 2 1 1 103 44 49 91
377 4 2 1 1 24 20 23 94
378 4 2 1 1 89 48 50 87
379 4 2 1 1 11 5 34 81
380 4 2 1 1 104 103 4 81
381 4 2 1 1 27 100 96 25
382 4 2 1 1 59 48 90 87
383 4 2 1 1 41 97 44 56
384 4 2 1 1 23 83 94 16
385 4 2 1 1 13 65 87 32
386 4 2 1 1 14 102 78 22
387 4 2 1 1 89 90 48 87
388 4 2 1 1 3 10 1 65
389 4 2 1 1 18 26 23 92
390 4 2 1 1 79 24 29 95
391 4 2 1 1 1 10 3 92
392 4 2 1 1 17 22 96 21
393 4 2 1 1 100 30 101 25
394 4 2 1 1 31 107 105 95
395 4 2 1 1 30 55 80 101
396 4 2 1 1 76 43 99 71
397 4 2 1 1 95 82 107 92
398 4 2 1 1 14 102 22 21
399 4 2 1 1 24 26 29 95
400 4 2 1 1 50 89 87 67
401 4 2 1 1 3 71 15 62
402 4 2 1 1 97 103 44 52
403 4 2 1 1 34 6 11 70
404 4 2 1 1 96 25 22 17
405 4 2 1 1 38 37 36 99
406 4 2 1 1 90 73 43 99
407 4 2 1 1 48 90 46 72
408 4 2 1 1 82 107 31 95
409 4 2 1 1 73 46 90 72
410 4 2 1 1 61 104 74 51
411 4 2 1 1 80 54 98 37
412 4 2 1 1 52 97 103 64
413 4 2 1 1 94 20 23 16
414 4 2 1 1 14 6 11 21
415 4 2 1 1 80 105 35 37
416 4 2 1 1 40 73 93 99
417 4 2 1 1 98 105 37 99
418 4 2 1 1 55 30 77 101
419 4 2 1 1 13 87 88 32
420 4 2 1 1 62 3 107 92
421 4 2 1 1 30 54 53 100
422 4 2 1 1 5 11 6 21
423 4 2 1 1 61 34 104 63
424 4 2 1 1 39 98 37 99
425 4 2 1 1 56 97 44 52
426 4 2 1 1 51 61 104 63
427 4 2 1 1 48 58 50 87
428 4 2 1 1 49 44 103 52
429 4 2 1 1 53 97 56 64
430 4 2 1 1 39 98 54 37
431 4 2 1 1 34 104 81 61
432 4 2 1 1 2 5 4 81
433 4 2 1 1 48 59 58 87
434 4 2 1 1 54 98 39 69
435 4 2 1 1 76 38 36 99
436 4 2 1 1 100 27 30 25
437 4 2 1 1 40 93 39 99
438 4 2 1 1 37 38 39 99
439 4 2 1 1 18 1 92 10
440 4 2 1 1 93 98 39 99
441 4 2 1 1 6 11 5 34
442 4 2 1 1 62 107 3 71
443 4 2 1 1 64 53 97 100
444 4 2 1 1 71 3 15 66
445 4 2 1 1 88 87 67 32
446 4 2 1 1 26 18 82 92
447 4 2 1 1 18 1 15 92
448 4 2 1 1 107 62 76 71
449 4 2 1 1 60 2 4 81
450 4 2 1 1 27 4 2 17
451 4 2 1 1 66 3 1 65
452 4 2 1 1 58 50 87 67
453 4 2 1 1 52 56 97 64
454 4 2 1 1 60 4 2 64
455 4 2 1 1 103 60 4 81
456 4 2 1 1 43 73 40 99
457 4 2 1 1 4 5 2 17
458 4 2 1 1 36 107 62 76
459 4 2 1 1 107 76 99 71
460 4 2 1 1 53 27 30 100
461 4 2 1 1 82 31 107 62
462 4 2 1 1 39 38 40 99
463 4 2 1 1 59 65 58 87
464 4 2 1 1 36 105 107 99
465 4 2 1 1 62 31 107 36
466 4 2 1 1 15 1 3 92
467 4 2 1 1 64 4 27 100
468 4 2 1 1 43 38 76 99
469 4 2 1 1 65 58 87 32
470 4 2 1 1 76 36 107 99
471 4 2 1 1 67 87 58 32
472 4 2 1 1 82 18 15 92
473 4 2 1 1 27 2 4 64
474 4 2 1 1 38 43 40 99
475 4 2 1 1 64 27 53 100
476 4 2 1 1 49 60 103 61
477 4 2 1 1 103 60 49 52
478 4 2 1 1 88 84 57 86
479 4 2 1 1 57 84 88 85
480 4 2 1 1 93 69 39 98
481 4 2 1 1 39 69 93 41
482 4 2 1 1 95 23 92 94
483 4 2 1 1 95 92 23 26
484 4 2 1 1 95 35 55 105
485 4 2 1 1 95 55 35 29
486 4 2 1 1 83 92 10 18
487 4 2 1 1 10 92 83 13
488 4 2 1 1 100 69 54 53
489 4 2 1 1 54 69 100 98
490 4 2 1 1 64 103 60 4
491 4 2 1 1 64 60 103 52
492 4 2 1 1 31 105 36 35
493 4 2 1 1 31 36 105 107
494 4 2 1 1 61 103 74 104
495 4 2 1 1 61 74 103 49
496 4 2 1 1 62 92 82 15
497 4 2 1 1 82 92 62 107
498 4 2 1 1 103 61 81 104
499 4 2 1 1 81 61 103 60
500 4 2 1 1 100 103 64 4
501 4 2 1 1 100 64 103 97
502 4 2 1 1 59 87 75 3
503 4 2 1 1 59 75 87 90
504 4 2 1 1 99 87 75 90
505 4 2 1 1 71 107 75 99
506 4 2 1 1 71 75 107 3
507 4 2 1 1 87 75 107 99
508 4 2 1 1 87 107 75 3
$EndElements
