$MeshFormat
2.2 0 8
$EndMeshFormat
$PhysicalNames
3
2 1 "outer_boundary"
2 2 "inner_boundary"
3 1 "domain"
$EndPhysicalNames
$Nodes
431
1 1.570796326794897 1.570796326794897 2.617993877991494
2 1.570796326794897 1.570796326794897 0.5235987755982989
3 1.570796326794897 1.570796326794897 2.094395102393195
4 1.570796326794897 1.570796326794897 1.047197551196598
5 1.821407104399814 1.570796326794897 0.5540284332319607
6 2.057453294543445 1.570796326794896 0.6435489450385832
7 2.265216750647636 1.570796326794896 0.7869577042657864
8 2.432623015833043 1.570796326794896 0.9759203150969147
9 2.549943046464107 1.570796326794896 1.199454957441607
10 2.61035862880151 1.570796326794896 1.444570610402154
11 2.61035862880151 1.570796326794896 1.697022043187637
12 2.549943046464107 1.570796326794896 1.942137696148186
13 2.432623015833043 1.570796326794896 2.165672338492878
14 2.265216750647636 1.570796326794896 2.354634949324006
15 2.057453294543446 1.570796326794896 2.49804370855121
16 1.821407104399815 1.570796326794897 2.587564220357832
17 1.797977321348862 1.570796326794897 1.099050130709004
18 1.98016233373936 1.570796326794897 1.244337829943638
19 2.081267387909905 1.570796326794896 1.45428463823038
20 2.081267387909905 1.570796326794896 1.687308015359413
21 1.98016233373936 1.570796326794897 1.897254823646155
22 1.797977321348862 1.570796326794897 2.042542522880789
23 1.890696267839137 1.759365784324657 2.549943046464107
24 1.609623356782688 1.811679389607768 0.5524199116004127
25 2.471229823524942 1.792172081882126 1.084139359046347
26 2.47771202135179 1.788887799529855 2.046782401926129
27 2.567873827168651 1.35698233946798 1.809003690879092
28 1.933995320430105 1.3527048540601 2.528473366184945
29 2.340853017780167 1.351418740198501 0.8958823482760732
30 1.694254300908012 1.352704854060138 0.5540284332319556
31 2.595032051983366 1.788887799530079 1.570796326794896
32 2.340853017748933 1.351418740213024 2.245710305354078
33 2.561837971931121 1.35863952119578 1.307265192627005
34 2.152628534616147 1.788887799527672 0.7278668500916264
35 1.844433784207323 1.81721341705201 0.5904780770605407
36 2.152628534617137 1.788887799529667 2.413725803496968
37 2.56444500632679 1.791926329590108 1.3250596084143
38 2.460927864499202 2.002169850850577 1.226986147247953
39 2.344510157661851 1.994013885509344 1.006104802904981
40 2.148500492590795 1.355920241572393 0.7242097239870875
41 2.209222715631644 1.136753839713233 0.8632360278259786
42 2.369265622120285 1.150501396435155 1.039362730596248
43 1.994156761799976 1.15688476609943 0.7070452786177589
44 2.148500492558159 1.355920241612303 2.417382929635106
45 2.2009112822165 1.144212138618542 2.290243186947961
46 2.369265622082824 1.150501396440929 2.102229923054396
47 2.211667085187868 0.9544944722191275 2.124040763111644
48 2.031035849840372 0.9575683424228916 0.8575265798953997
49 2.024574224181082 0.9635807941054623 2.293290359944382
50 2.019191295796543 0.7919018091900174 2.108279343690525
51 2.218726971052295 0.8175942807027063 1.901697020700004
52 1.986568530467717 0.6632070947188823 1.887084125650414
53 2.306086057994825 2.189371372941728 1.154459162097182
54 1.995532609191778 1.998409823449358 2.427165697526225
55 2.137844249320466 0.6997631169402522 1.698782701545889
56 1.915433579500215 0.5861535844144973 1.662046231767383
57 2.400377409659959 2.18333683199045 1.388554543223294
58 2.224014401538589 2.352767092427131 1.329030779710883
59 2.108689144040027 2.338330066341701 1.103692497817286
60 2.285847267063767 2.335616411272726 1.551428765459502
61 2.063491045388282 0.6521593420427302 1.470892794586152
62 1.83653719915457 0.5725203951552953 1.399187281873725
63 1.811254151878406 0.9853843943372042 0.7364728793691341
64 2.260478721463792 0.7861824218799818 1.497707846648581
65 1.837802650102545 0.8037398761628838 0.9097708083088848
66 2.193289476934033 2.02013640449024 2.282989056214923
67 2.008496993914669 2.196433486134499 2.287468484820119
68 2.008494640142132 2.479060511030362 1.287778536964962
69 1.879226346624278 2.441494340784284 1.077462157559544
70 2.19168971331906 2.202971707928347 2.128889868498689
71 1.995567046040134 2.360991141581779 2.110967320081243
72 1.76815934374266 2.554264101291112 1.270027832266483
73 1.63156188957983 2.487628429171866 1.068452665878779
74 1.737313639838304 2.346771600581682 0.8876001103530327
75 1.48616846542562 2.369707034462176 0.8990802279206929
76 1.887934944581952 2.565698813632853 1.491962006705761
77 1.590712895411424 2.205631192331575 0.7382035481655587
78 2.17427245316702 0.7682922673262897 1.273430372678668
79 1.839109419658522 2.161895764153488 0.74907115948866
80 2.43817034641421 2.148521979349454 1.673354074927332
81 2.168609151416339 2.353194515775907 1.927301041812129
82 1.95744810565604 2.488004143228169 1.896146806446259
83 1.516559402702786 2.574140414289245 1.275869709841951
84 1.772447981253625 2.470629393853004 2.067042004776083
85 1.785790974488997 2.147329054945493 2.418151049485619
86 1.725654970537093 2.570851886730014 1.840110991700723
87 2.377524314878551 0.9688030822497089 1.281976663342757
88 2.427231175524677 0.9686499040792848 1.547095130113287
89 1.688259219414425 2.002681041126583 0.6240646997662854
90 1.42338987074304 2.069666457515364 0.6619384497748827
91 1.61053925697004 0.8514957724986592 0.8107634832135352
92 1.63256525953573 0.6917650585966471 1.005012499074462
93 1.400900674739917 0.7574281411976743 0.9334656643415303
94 1.375963212571805 0.9306819372649168 0.765242891477944
95 1.42738257079688 0.6282230627545408 1.137655647870599
96 1.748223725210123 0.5779039805509634 1.852411344672091
97 1.818797431364513 0.8214239646061804 2.258952723373541
98 1.813833822769908 1.013103529127649 2.423166099964045
99 1.854981421090256 0.6682779240497665 1.122107039961717
100 2.346733622857891 2.174350052086154 1.931721422206182
101 2.330950164774672 1.820777167282417 2.246294982031102
102 2.228622804505804 0.934728019056621 1.061577175205349
103 2.102182179572456 2.46512889567115 1.690883973733368
104 2.323507121197792 1.769615771042412 0.870424996848687
105 2.567575360548913 1.777420763575794 1.816480292949665
106 1.694254300908028 1.352704854060126 2.587564220357833
107 2.593881801086386 1.34834801097892 1.549926005366048
108 2.485945091851341 1.353267211111544 2.031020764301027
109 2.479703837418008 1.363550497574308 1.0937648659501
110 2.520472871176133 1.154293558004829 1.424979263751945
111 2.523711339100275 1.149133816581847 1.674605854469479
112 2.399768159420704 0.9694816023881035 1.789540501932757
113 2.182274825209912 2.169853046979674 0.9675983466841155
114 1.979326938653907 2.290310114357942 0.9289043110220452
115 2.526108057958761 1.9899289562408 1.479527238563372
116 1.647971483941208 2.606762415437412 1.438732063898678
117 1.426423089863765 2.606861524894399 1.522340316050956
118 1.203198949018244 0.7253485993958846 1.074094183332917
119 1.234310262488361 0.6168473511626051 1.299906696779735
120 1.535399048886433 2.525466619449549 1.999718669732987
121 1.268856916862039 2.534592275509135 1.294114789276455
122 1.020507152721002 0.7405019296377866 1.247662066496281
123 1.162187569557412 2.533783626736133 1.522660530417608
124 1.037732942374836 2.43802384051507 1.325067657589394
125 0.9450311254237587 2.410387107180253 1.55948502815157
126 0.8375267467208024 2.28934469616143 1.364334041980432
127 0.7649093495930298 2.238807227902694 1.601297592502011
128 1.60081750153699 0.8902171508054963 2.366116026983974
129 0.6800505364439648 2.09725647688586 1.409444665599714
130 0.63228022461184 2.02893475781808 1.647734062626468
131 1.06469245779251 0.6583063131796443 1.482232451171692
132 0.8664640654774896 0.8076552815876041 1.436057609198284
133 0.8360612701035124 0.9101656252023783 1.223875321644969
134 0.7426906339057352 2.153708631021501 1.837398874078194
135 0.6358260563977012 1.928961204157721 1.877669631807273
136 0.7712347400072503 2.040083147553226 2.057719174922104
137 0.6918046536542006 1.802335853532292 2.090782670211427
138 0.9284951911395433 0.7501639931843834 1.673920210551074
139 0.8529281754767084 1.902914643502204 2.257080125425363
140 0.795601930751844 1.657372541955275 2.269510086888471
141 0.7069511493522134 1.000972091865494 1.410501093153058
142 0.6984766404005887 1.12281680125808 1.20337909712147
143 0.7727405464504019 2.132719038809438 1.191359179940358
144 0.6571147737742655 1.552361477996723 2.082136611978596
145 0.787537618426182 1.40613953760695 2.246086374678796
146 0.5981416457956833 1.226089406437467 1.392631454218493
147 0.6231482769386422 1.363671869322917 1.176226505403641
148 0.7572935021030779 1.270233799072789 0.983856779328652
149 0.9472497206477172 1.512559567985682 2.410094141112247
150 0.9599263583122607 1.264612749618391 2.364340408686743
151 0.9561481015584655 2.128338812970179 2.209526822822244
152 1.056048084546895 1.978569142761532 2.386503559135878
153 0.6757949235088738 1.303573847836407 2.044280588505337
154 0.6968621381015341 1.514107510512435 0.9966464132936244
155 0.8521096999874384 1.42821803055296 0.8226094028774745
156 0.8264443764430619 1.676824427992004 0.8418786860451981
157 1.006869125987161 1.589165433487645 0.688599410375091
158 1.167591291226141 2.192693228548828 2.310588631508193
159 1.143718503613819 0.6258713540174645 1.716892322635415
160 1.023224705002757 0.7442474746287605 1.907849772442496
161 0.5545057899260306 1.798696333096811 1.679598178941494
162 1.108322014440764 2.494795526432753 1.74098945448613
163 1.285658799876396 2.032585277870723 2.466380084262193
164 1.251498550710239 0.6406227113669323 1.930586107891042
165 1.146989664848636 0.7921025394685085 2.128153133608453
166 1.137837831961837 1.376405537620828 2.504274700442795
167 0.5832740891365248 1.579530894438567 1.222448442216231
168 0.9929054215354549 1.836182960855802 0.7387898680985732
169 1.058919284312522 1.34214874850399 0.6863050099616832
170 1.165903943729886 1.135838836306169 2.433058961283853
171 1.545088343222975 2.398397238475068 2.211919202536331
172 0.8256076841252229 0.8923293868819759 1.855399927463401
173 1.150332765296801 2.418803931499996 1.122782703065877
174 1.221952882556883 1.50644150464936 0.5855098610850874
175 0.572164432594934 1.448888880753494 1.861477639779423
176 1.181099252235527 1.800955743339649 2.515140302413844
177 0.6276884479922827 1.117457322140186 1.61146556616891
178 1.581565537767381 0.7192937697265452 2.180263414202609
179 1.367194134776573 0.5595667501329338 1.751305611657344
180 1.116782593021973 2.314951741248761 2.151078120337238
181 1.449487158773864 0.5512683777214507 1.364714891327534
182 1.268250011260643 1.251726000933701 0.6203845395449545
183 1.340021626377121 1.22398764252313 2.531571787239699
184 1.337649554776221 1.504970671526882 2.589585940521872
185 0.8342386153081122 1.918633754827776 0.9126819199164473
186 1.017848619960924 2.068687611453135 0.8339274012724731
187 1.011655765770739 1.009865326274895 2.2558809616433
188 1.137462009068198 1.122172693986024 0.7296180363012236
189 1.167461927857508 0.873291174435774 0.9018937656557995
190 0.9956784579851592 1.011308428368442 0.8978658402494841
191 1.410892167123049 1.907193216708645 2.549515133913749
192 0.6482882811304898 1.940521660298963 1.240789062205321
193 0.542382356674882 1.376828872451283 1.607729292416398
194 1.419073868578301 2.220226549846676 2.378164515598357
195 1.60529843303004 1.105675447535318 2.508396925970412
196 1.487559926490033 2.59464109252763 1.774355430197629
197 1.373319564925008 0.8115603274008211 2.264472286431392
198 1.380554482682928 1.00250484601507 2.429560290206322
199 1.323493696380908 2.442215210547865 2.096242089230188
200 1.519420766466959 0.6003359586344292 1.960911613425645
201 1.195451439702498 1.975251261256324 0.680765353763313
202 1.216268233359297 2.194430995878595 0.8078989931293927
203 1.34754937362799 1.804125065200056 0.5746330826586254
204 1.423148867047275 1.376534282826669 0.5524225264958553
205 1.387098916757488 2.482924036454897 1.090274720570888
206 0.9428054941732021 2.293631991154334 1.146816577626009
207 0.9091612625601213 2.353639920800142 1.78531359960095
208 0.578345518931155 1.886445592240919 1.46111658196412
209 0.529612996843966 1.635958269397586 1.479615704397995
210 0.5780316761961312 1.688150754658694 1.882676108144093
211 0.9787381186862151 1.751778393705064 2.415388110380441
212 1.282031354736874 0.5649788619669198 1.531189135635943
213 0.8229443369724891 1.165367227809 2.181506862356795
214 2.036016717886582 0.7811528156559598 1.064184222457839
215 1.701413221158298 0.53291306915127 1.619379056669452
216 1.129868677083794 1.756159192524671 0.6392137341275367
217 1.586604013042011 1.028886611537256 0.6748573284266781
218 1.645375013599329 0.5815323044080847 1.235509248729334
219 0.904115162818361 0.9243108365812237 2.054754432186499
220 1.546607489184178 2.072469585376363 2.489687807325348
221 1.676205032798597 1.851730980231546 2.574084638512524
222 0.6752552928090934 1.762544569199481 1.062995598935491
223 1.795390705333242 0.6775668821068466 2.069114734545807
224 0.9976176489243143 0.8623749889877752 1.054823340480448
225 0.7536953058988956 0.918549121435285 1.630312845371173
226 1.307408376974854 2.533131487709522 1.888853770017292
227 1.925751255884406 1.359938118599035 0.6084198279215904
228 1.803057235853798 2.325557935324376 2.258555365736063
229 0.738337108331265 1.084092724476643 1.979151520612124
230 0.6157451357228589 1.222315000580296 1.821915220834645
231 0.9072407020323069 2.255240117031072 2.004216840943937
232 2.355228388429176 2.014851794866352 2.103810203901474
233 2.476960569045122 1.976178126664205 1.904194997509021
234 1.999154402276832 1.167234034653485 2.436977339495552
235 1.069361916263208 2.256233077688169 0.9581278163491884
236 1.19703530779862 0.9198573536139462 2.301004423918686
237 2.471965859463107 1.151400425405594 1.900376760863067
238 0.5510701090039334 1.436999545832327 1.373617287883702
239 1.276511200845497 2.352733639844475 0.9394540944534326
240 0.8773462874560353 2.126085728923946 1.016356578890541
241 1.292739476186145 2.573270368647117 1.690599892994594
242 2.113976850943608 2.460403592304445 1.469917475838387
243 2.193626338289203 1.97173106798441 0.8305552705696623
244 1.987700423337676 1.962095261011043 0.6934715126015972
245 2.055393543690139 2.119511164506632 0.8219971043830944
246 1.781534577765022 1.155124368051355 0.6330176090130784
247 0.532123058078982 1.59005184764226 1.702742440811358
248 1.140737563846709 1.628076919220246 2.523891865224821
249 0.9181499888529847 1.21027730893831 0.8354722441164597
250 2.541726380357265 1.944668451640711 1.689696186276738
251 1.872937605445905 2.562751519569826 1.716940962324694
252 1.514569778919256 1.210838282332254 0.5890165690219177
253 1.377299716533703 1.117485966751553 0.6468420581609169
254 1.81319838942752 1.192327932959286 2.516642839782651
255 0.6943354274748917 1.038806134766928 1.783928771019994
256 1.097891137774714 2.426402119622048 1.946192278705086
257 2.288784885430413 2.308895411147644 1.761387204274067
258 1.621952432727712 2.261017366314064 2.356672068030762
259 2.002981236986695 0.6676842035289878 1.263831495837343
260 1.370137682995044 0.689006444729838 2.098816614083411
261 1.493609246311692 0.5264854695831362 1.579723775941678
262 2.295949640750449 0.8258177051680836 1.696423695669851
263 0.8359621697574474 1.043034952833331 1.043435534701463
264 1.539005431167593 1.248820741049559 2.566760067285137
265 1.512477462742393 1.941927154142576 0.5933079481836708
266 2.344568478478954 0.9964092968580475 1.980648627448071
267 1.387124849409358 1.548948089663879 0.5400635029450731
268 1.662512820487906 2.610864581336681 1.651225313554748
269 2.016310491104717 1.742539954601387 0.6387856149791262
270 1.569985350543563 0.5424604411485674 1.768653244393575
271 0.7429657004390973 1.982652308067169 1.079172673997587
272 0.5776346976496622 1.764727673746878 1.30127207501943
273 1.801230340711121 1.979285022116979 2.507097486815897
274 2.483933218531905 1.188943503785118 1.22875517467941
275 1.62657593925883 0.5334512626733887 1.438786614999632
276 1.403023890521259 2.238002936721872 0.7812961934645017
277 1.348337707145833 1.679900614487199 2.588259411227516
278 1.30655605027091 2.325354560898861 2.247140661317323
279 2.002681652345394 1.760584469458367 1.797977321348862
280 1.87248934291438 1.770840650216817 1.192485250431234
281 1.678469317619941 1.770840650216613 2.042542522880859
282 2.054430220964666 1.771291116628972 1.563328163191156
283 1.928498279835716 1.940247686461596 1.669339126832485
284 2.006755366344086 1.370752003372534 1.360849518507953
285 1.89858241939338 1.363026801110784 1.922284277518751
286 1.678469317619834 1.370752003373418 1.099050130708809
287 1.940319330633258 1.914289661917545 1.430722217236306
288 1.841106865969848 1.921596947658909 1.850129129416443
289 2.058403749719531 1.380753447635164 1.587481140174558
290 1.937563510265295 1.202406242320513 1.508136478421432
291 1.841986670310724 1.212774540409754 1.301664619511277
292 1.772684404778068 2.052763844345812 1.537566915092216
293 1.751137451080957 1.990055723030715 1.314175370193036
294 1.659963983414791 1.870138035470056 1.1505590744381
295 1.941247616173793 1.24141461531798 1.739405959230554
296 1.678469317619874 1.370752003373005 2.0425425228808
297 1.730282022976942 1.19791188779642 1.901971787350411
298 1.742280164206483 1.089503644783944 1.456313465381765
299 1.623404872997149 1.149035044217035 1.265009735864555
300 1.44575962048535 1.263922455727781 1.165395380644568
301 1.567383932062202 2.074984982741196 1.429594936627199
302 1.516705992042485 1.062574311910064 1.457040900195501
303 1.582530572550082 2.088483828466127 1.648369749421426
304 1.372007534501211 2.054837502223712 1.552280540126582
305 1.509666428715783 1.231775689462166 1.96511069482044
306 1.45596128101154 1.435773794178544 2.06348030842393
307 1.398415204351916 2.025145524640589 1.765750764677985
308 1.208138117977626 1.935379601428486 1.669354620423264
309 1.295836833586208 1.32060720376494 1.939521641385528
310 1.216229993455052 1.931908854674099 1.436497647431814
311 1.088669735797389 1.774065183439319 1.551012495527192
312 1.140349199083418 1.741192941196254 1.326182464036609
313 1.059833231795767 1.563943772156016 1.456667295204026
314 1.262452140664228 1.544880264224251 1.993179918318393
315 1.125576433313793 1.445254727034016 1.81610069077196
316 1.196429757728126 1.24249974941951 1.732742944718272
317 1.155776515137781 1.521147566396323 1.255440600144792
318 1.122791067072594 1.356673172129114 1.4046691474859
319 1.255309896379182 1.701415779386253 1.173854834083033
320 1.558697688825606 1.093059155360289 1.784750751374025
321 1.241928326329296 1.859918163160176 1.857867885495099
322 1.44467322325552 1.668441361304823 2.069508756755479
323 1.468891746500473 1.893967503227778 1.969959858503447
324 1.617426817337647 2.015885367882053 1.842599602462972
325 1.767522713595554 1.101415360024478 1.693824431624902
326 1.341738792690867 1.470871751564563 1.110683945801669
327 1.241925613345294 1.33953009392484 1.235362784677714
328 1.402673425837386 1.143029024963995 1.319986631077249
329 1.309289099480119 1.117347162982877 1.558406665445396
330 1.078883091915515 1.394685660948611 1.604885629130356
331 1.14175522602493 1.647648710324873 1.860922373202134
332 2.005144682648372 1.743406087847126 1.334781382427146
333 1.874299714906068 1.377925092499342 1.190215115757901
334 1.3659885175151 1.131743530590256 1.769396631958144
335 1.305376017854974 1.871226961167313 1.23397416104439
336 1.384541411719291 2.017122810807171 1.370153723922383
337 1.058416435833464 1.603462518414483 1.6735360224897
338 1.452352001072341 1.829351149425088 1.131164636391626
339 1.5287941796466 1.992792693079311 1.263696075597146
340 1.879535260229143 1.740953993081927 1.957942704013738
341 1.163322352206238 1.243974101901737 1.534631825459414
342 1.763905723591021 2.033755138897009 1.7209082083169
343 1.469565089626953 1.060904056152195 1.633388552896191
344 2.021998785507919 1.417962772489083 1.788083978854586
345 1.119019093684979 1.779452857523443 1.733632015867999
346 1.620587376544461 1.050421275781077 1.600567713313479
347 1.232672849919634 1.215954903426128 1.386634016710971
348 1.283276605615511 1.725246967129744 1.980226525291687
349 1.670465871004953 1.795884400417098 1.108674028178996
350 1.534238530339601 0.7915540900191618 1.65146407424856
351 0.9281917225353646 1.162122423860785 1.675144037905595
352 0.9630833723959999 1.121859562402442 1.371020750386283
353 0.9199340948747882 1.98237650151717 1.666819966208925
354 1.675581038585284 0.8147647127125067 1.401663222438195
355 0.8627536125926434 1.719018314105275 1.850742319816366
356 2.26615797513227 1.521943080700505 1.905664847526342
357 1.269855309228333 0.8736575219509164 1.689290803670857
358 0.9288175262894787 1.943061332265107 1.368802380574847
359 1.397147041759993 2.304510159892664 1.694331530494597
360 0.8054164143950489 1.701868479086586 1.564315860517308
361 1.261200665367115 2.153506825051523 1.147708248129874
362 1.184643677607523 2.209798673622286 1.41189734189778
363 2.253191823857964 1.470110578583442 1.242171975420776
364 2.269652519615781 1.283628594027599 1.750889252610537
365 2.286151090341818 1.809197035688072 1.739435573807565
366 1.7595584774394 2.309917257906435 1.656466142552035
367 2.087443957022815 1.446333314360021 1.003782333147633
368 0.83850292361982 1.399481694088458 1.367036746850128
369 0.8607900750752515 1.67537399409135 1.274742485414218
370 0.8428602046930752 1.421052127716391 1.767572985814933
371 2.344624005994839 1.50535058500154 1.570796326794897
372 1.72371675521957 0.8664096906583869 1.85726578284685
373 2.021652195082039 2.203291691429618 1.577750360318909
374 0.9743124482269403 1.240852646400203 1.945454842362263
375 1.280847847571623 1.518279346044656 2.287403140736616
376 1.366073575786816 0.8275542348448222 1.429912630826183
377 1.446529064139576 0.8688800847876265 1.902543686485036
378 2.102285489126101 1.974807656053268 1.176438884577921
379 1.86107171533379 2.041301341073124 1.025636642625062
380 1.171839812142143 0.9793175116187036 1.244340031474824
381 2.286274642434786 1.763252038466473 1.393023676209667
382 0.9531062741227569 1.516997852113676 2.036686176872466
383 1.858936818552886 2.224054321529534 1.905907007404768
384 1.913255095027086 1.366208848126003 2.229396578606801
385 1.753581963999076 2.285510565610167 1.370334929147763
386 1.443534581521281 2.333044863649507 1.412819646256573
387 1.148024614003782 2.14062186540951 1.874676263012902
388 2.222111079202144 2.002359348735791 1.537540560631713
389 2.049759580389714 1.639835082487455 2.171397250000681
390 2.18730873617652 1.714502328687262 1.126242948889363
391 2.09637327824819 1.187737165248498 1.14671212205123
392 2.22564771694512 1.185935914972117 1.438542692133201
393 1.505581506144751 1.684874386599203 2.348903805710146
394 1.905554711999997 0.8763402546626665 1.570046921003399
395 1.263348563637358 1.945926113805178 2.177141017419609
396 1.237718179204176 1.935352576279741 0.9621702009647429
397 1.35293934836985 1.203192043312618 2.214191513507761
398 2.118576252788783 1.876302983573049 2.029985443495653
399 1.908123698497423 0.9305862146221755 1.294205031752471
400 1.582689530674651 2.104627248360287 1.00584570028059
401 1.08921160244748 1.014072497735064 1.841346791626542
402 2.122251391476921 1.171280386098265 1.965124129901038
403 1.028047188572299 1.812881027037426 2.057160422751551
404 1.675179797950114 1.107572964845382 2.17883162752621
405 1.070623093484346 1.578508389192169 0.9776328897513999
406 1.344231249807942 1.662870780047755 0.8530742800798983
407 1.796963556489219 2.057922714224954 2.139264414422464
408 2.095214874254548 2.085170866570491 1.843249347863844
409 1.223843901087976 1.150500174511266 1.014207093001414
410 1.503364675601421 0.8999915439442359 1.18877293171327
411 1.052321618296613 0.9565751719614073 1.559869300062805
412 1.749526955740165 1.466591883332408 0.8239528548091717
413 1.599317077475628 2.294197187920163 1.874190591836637
414 1.516358213830136 1.224616961136404 0.882702388537695
415 1.391650922620514 2.165048782043375 2.024648120781133
416 1.80380995466382 1.085046738401393 1.025954779059973
417 1.984962243048536 1.697446097333382 0.9330309709658364
418 1.652002057470543 1.420824311865123 2.318005328105178
419 1.016365034652851 1.871924016269087 1.115938671446271
420 0.9798240898906767 1.293006343313009 1.151006838640172
421 2.001140807953158 2.191699033392594 1.306430047922246
422 2.135108786897627 1.052926366333862 1.66745039903572
423 1.555957262803761 1.941780873311113 2.236847156613533
424 1.125683905742196 1.340042863071153 2.151570667945169
425 1.588805825150373 1.855644108603722 0.8422869042194967
426 1.289337409016027 1.051786505349019 2.00831890913039
427 2.133906624856265 1.398189575490833 2.093639545186325
428 1.485386289374587 2.266069320859036 1.173342439682962
429 1.062314642459389 2.195003749128793 1.638014636946716
430 1.90741171209526 1.034305980064698 2.05883289596588
431 1.843980844856972 1.598703219896881 2.328121121464472
$EndNodes
$Elements
2194
1 2 2 1 1 16 23 1
2 2 2 1 1 1 106 16
3 2 2 1 1 23 221 1
4 2 2 1 1 1 264 106
5 2 2 1 1 184 264 1
6 2 2 1 1 1 277 184
7 2 2 1 1 1 221 191
8 2 2 1 1 191 277 1
9 2 2 1 1 5 30 2
10 2 2 1 1 2 35 5
11 2 2 1 1 24 35 2
12 2 2 1 1 2 267 24
13 2 2 1 1 30 204 2
14 2 2 1 1 204 267 2
15 2 2 1 1 6 227 5
16 2 2 1 1 5 269 6
17 2 2 1 1 5 227 30
18 2 2 1 1 35 269 5
19 2 2 1 1 6 34 7
20 2 2 1 1 7 40 6
21 2 2 1 1 6 269 34
22 2 2 1 1 40 227 6
23 2 2 1 1 8 29 7
24 2 2 1 1 7 104 8
25 2 2 1 1 29 40 7
26 2 2 1 1 34 104 7
27 2 2 1 1 8 25 9
28 2 2 1 1 9 109 8
29 2 2 1 1 8 104 25
30 2 2 1 1 8 109 29
31 2 2 1 1 10 33 9
32 2 2 1 1 9 37 10
33 2 2 1 1 25 37 9
34 2 2 1 1 33 109 9
35 2 2 1 1 10 31 11
36 2 2 1 1 11 107 10
37 2 2 1 1 10 37 31
38 2 2 1 1 10 107 33
39 2 2 1 1 12 27 11
40 2 2 1 1 11 105 12
41 2 2 1 1 27 107 11
42 2 2 1 1 31 105 11
43 2 2 1 1 12 26 13
44 2 2 1 1 13 108 12
45 2 2 1 1 12 105 26
46 2 2 1 1 12 108 27
47 2 2 1 1 14 32 13
48 2 2 1 1 13 101 14
49 2 2 1 1 26 101 13
50 2 2 1 1 32 108 13
51 2 2 1 1 14 36 15
52 2 2 1 1 15 44 14
53 2 2 1 1 14 44 32
54 2 2 1 1 14 101 36
55 2 2 1 1 15 23 16
56 2 2 1 1 16 28 15
57 2 2 1 1 15 36 23
58 2 2 1 1 28 44 15
59 2 2 1 1 16 106 28
60 2 2 1 1 36 54 23
61 2 2 1 1 54 273 23
62 2 2 1 1 23 273 221
63 2 2 1 1 24 89 35
64 2 2 1 1 24 265 89
65 2 2 1 1 203 265 24
66 2 2 1 1 24 267 203
67 2 2 1 1 25 38 37
68 2 2 1 1 25 39 38
69 2 2 1 1 25 104 39
70 2 2 1 1 26 232 101
71 2 2 1 1 105 233 26
72 2 2 1 1 26 233 232
73 2 2 1 1 27 111 107
74 2 2 1 1 108 237 27
75 2 2 1 1 27 237 111
76 2 2 1 1 28 234 44
77 2 2 1 1 106 254 28
78 2 2 1 1 28 254 234
79 2 2 1 1 29 41 40
80 2 2 1 1 29 42 41
81 2 2 1 1 29 109 42
82 2 2 1 1 30 252 204
83 2 2 1 1 227 246 30
84 2 2 1 1 246 252 30
85 2 2 1 1 37 115 31
86 2 2 1 1 31 250 105
87 2 2 1 1 115 250 31
88 2 2 1 1 44 45 32
89 2 2 1 1 45 46 32
90 2 2 1 1 46 108 32
91 2 2 1 1 107 110 33
92 2 2 1 1 33 274 109
93 2 2 1 1 110 274 33
94 2 2 1 1 34 243 104
95 2 2 1 1 34 244 243
96 2 2 1 1 34 269 244
97 2 2 1 1 89 244 35
98 2 2 1 1 244 269 35
99 2 2 1 1 36 66 54
100 2 2 1 1 36 101 66
101 2 2 1 1 38 115 37
102 2 2 1 1 39 53 38
103 2 2 1 1 53 57 38
104 2 2 1 1 57 115 38
105 2 2 1 1 39 113 53
106 2 2 1 1 104 243 39
107 2 2 1 1 39 243 113
108 2 2 1 1 41 43 40
109 2 2 1 1 43 227 40
110 2 2 1 1 42 102 41
111 2 2 1 1 41 48 43
112 2 2 1 1 41 102 48
113 2 2 1 1 87 102 42
114 2 2 1 1 42 274 87
115 2 2 1 1 109 274 42
116 2 2 1 1 48 63 43
117 2 2 1 1 63 246 43
118 2 2 1 1 43 246 227
119 2 2 1 1 44 234 45
120 2 2 1 1 45 47 46
121 2 2 1 1 45 49 47
122 2 2 1 1 45 234 49
123 2 2 1 1 47 266 46
124 2 2 1 1 46 237 108
125 2 2 1 1 46 266 237
126 2 2 1 1 49 50 47
127 2 2 1 1 50 51 47
128 2 2 1 1 51 266 47
129 2 2 1 1 48 65 63
130 2 2 1 1 48 214 65
131 2 2 1 1 102 214 48
132 2 2 1 1 49 97 50
133 2 2 1 1 49 98 97
134 2 2 1 1 49 234 98
135 2 2 1 1 50 52 51
136 2 2 1 1 50 223 52
137 2 2 1 1 97 223 50
138 2 2 1 1 52 55 51
139 2 2 1 1 55 262 51
140 2 2 1 1 51 262 112
141 2 2 1 1 112 266 51
142 2 2 1 1 52 56 55
143 2 2 1 1 52 96 56
144 2 2 1 1 52 223 96
145 2 2 1 1 53 58 57
146 2 2 1 1 53 59 58
147 2 2 1 1 53 113 59
148 2 2 1 1 66 67 54
149 2 2 1 1 67 85 54
150 2 2 1 1 85 273 54
151 2 2 1 1 56 61 55
152 2 2 1 1 61 64 55
153 2 2 1 1 64 262 55
154 2 2 1 1 56 62 61
155 2 2 1 1 56 215 62
156 2 2 1 1 96 215 56
157 2 2 1 1 58 60 57
158 2 2 1 1 60 80 57
159 2 2 1 1 80 115 57
160 2 2 1 1 59 68 58
161 2 2 1 1 58 242 60
162 2 2 1 1 68 242 58
163 2 2 1 1 59 69 68
164 2 2 1 1 59 114 69
165 2 2 1 1 113 114 59
166 2 2 1 1 60 257 80
167 2 2 1 1 60 242 103
168 2 2 1 1 103 257 60
169 2 2 1 1 62 259 61
170 2 2 1 1 61 78 64
171 2 2 1 1 61 259 78
172 2 2 1 1 62 218 99
173 2 2 1 1 99 259 62
174 2 2 1 1 215 275 62
175 2 2 1 1 62 275 218
176 2 2 1 1 65 91 63
177 2 2 1 1 91 217 63
178 2 2 1 1 217 246 63
179 2 2 1 1 78 87 64
180 2 2 1 1 87 88 64
181 2 2 1 1 88 262 64
182 2 2 1 1 65 92 91
183 2 2 1 1 65 99 92
184 2 2 1 1 65 214 99
185 2 2 1 1 66 70 67
186 2 2 1 1 66 232 70
187 2 2 1 1 101 232 66
188 2 2 1 1 70 71 67
189 2 2 1 1 71 228 67
190 2 2 1 1 67 228 85
191 2 2 1 1 69 72 68
192 2 2 1 1 72 76 68
193 2 2 1 1 76 242 68
194 2 2 1 1 69 73 72
195 2 2 1 1 69 74 73
196 2 2 1 1 69 114 74
197 2 2 1 1 70 81 71
198 2 2 1 1 70 100 81
199 2 2 1 1 70 232 100
200 2 2 1 1 81 82 71
201 2 2 1 1 82 84 71
202 2 2 1 1 84 228 71
203 2 2 1 1 73 83 72
204 2 2 1 1 72 116 76
205 2 2 1 1 83 116 72
206 2 2 1 1 74 75 73
207 2 2 1 1 75 205 73
208 2 2 1 1 73 205 83
209 2 2 1 1 74 77 75
210 2 2 1 1 74 79 77
211 2 2 1 1 74 114 79
212 2 2 1 1 77 276 75
213 2 2 1 1 75 239 205
214 2 2 1 1 75 276 239
215 2 2 1 1 103 242 76
216 2 2 1 1 76 251 103
217 2 2 1 1 116 268 76
218 2 2 1 1 76 268 251
219 2 2 1 1 79 89 77
220 2 2 1 1 89 90 77
221 2 2 1 1 90 276 77
222 2 2 1 1 78 102 87
223 2 2 1 1 78 214 102
224 2 2 1 1 78 259 214
225 2 2 1 1 79 244 89
226 2 2 1 1 114 245 79
227 2 2 1 1 79 245 244
228 2 2 1 1 100 233 80
229 2 2 1 1 80 257 100
230 2 2 1 1 80 250 115
231 2 2 1 1 233 250 80
232 2 2 1 1 81 103 82
233 2 2 1 1 100 257 81
234 2 2 1 1 81 257 103
235 2 2 1 1 82 86 84
236 2 2 1 1 82 251 86
237 2 2 1 1 103 251 82
238 2 2 1 1 83 117 116
239 2 2 1 1 83 121 117
240 2 2 1 1 83 205 121
241 2 2 1 1 86 120 84
242 2 2 1 1 120 171 84
243 2 2 1 1 171 228 84
244 2 2 1 1 85 258 220
245 2 2 1 1 220 273 85
246 2 2 1 1 228 258 85
247 2 2 1 1 86 196 120
248 2 2 1 1 86 268 196
249 2 2 1 1 251 268 86
250 2 2 1 1 87 110 88
251 2 2 1 1 87 274 110
252 2 2 1 1 110 111 88
253 2 2 1 1 111 112 88
254 2 2 1 1 112 262 88
255 2 2 1 1 89 265 90
256 2 2 1 1 201 202 90
257 2 2 1 1 90 203 201
258 2 2 1 1 202 276 90
259 2 2 1 1 90 265 203
260 2 2 1 1 92 93 91
261 2 2 1 1 93 94 91
262 2 2 1 1 94 217 91
263 2 2 1 1 92 95 93
264 2 2 1 1 92 218 95
265 2 2 1 1 99 218 92
266 2 2 1 1 93 189 94
267 2 2 1 1 95 118 93
268 2 2 1 1 118 189 93
269 2 2 1 1 94 189 188
270 2 2 1 1 188 253 94
271 2 2 1 1 94 253 217
272 2 2 1 1 95 119 118
273 2 2 1 1 95 181 119
274 2 2 1 1 95 218 181
275 2 2 1 1 96 223 200
276 2 2 1 1 200 270 96
277 2 2 1 1 96 270 215
278 2 2 1 1 98 128 97
279 2 2 1 1 128 178 97
280 2 2 1 1 178 223 97
281 2 2 1 1 98 195 128
282 2 2 1 1 98 254 195
283 2 2 1 1 234 254 98
284 2 2 1 1 214 259 99
285 2 2 1 1 232 233 100
286 2 2 1 1 105 250 233
287 2 2 1 1 195 254 106
288 2 2 1 1 106 264 195
289 2 2 1 1 107 111 110
290 2 2 1 1 111 237 112
291 2 2 1 1 237 266 112
292 2 2 1 1 113 245 114
293 2 2 1 1 243 245 113
294 2 2 1 1 117 268 116
295 2 2 1 1 121 123 117
296 2 2 1 1 123 241 117
297 2 2 1 1 117 241 196
298 2 2 1 1 196 268 117
299 2 2 1 1 119 122 118
300 2 2 1 1 122 224 118
301 2 2 1 1 118 224 189
302 2 2 1 1 119 131 122
303 2 2 1 1 119 212 131
304 2 2 1 1 181 212 119
305 2 2 1 1 120 199 171
306 2 2 1 1 196 226 120
307 2 2 1 1 120 226 199
308 2 2 1 1 121 124 123
309 2 2 1 1 121 173 124
310 2 2 1 1 121 205 173
311 2 2 1 1 131 132 122
312 2 2 1 1 132 133 122
313 2 2 1 1 133 224 122
314 2 2 1 1 124 125 123
315 2 2 1 1 125 162 123
316 2 2 1 1 162 241 123
317 2 2 1 1 124 126 125
318 2 2 1 1 124 206 126
319 2 2 1 1 173 206 124
320 2 2 1 1 126 127 125
321 2 2 1 1 127 207 125
322 2 2 1 1 125 207 162
323 2 2 1 1 126 129 127
324 2 2 1 1 126 143 129
325 2 2 1 1 126 206 143
326 2 2 1 1 129 130 127
327 2 2 1 1 130 134 127
328 2 2 1 1 134 207 127
329 2 2 1 1 128 197 178
330 2 2 1 1 195 198 128
331 2 2 1 1 128 198 197
332 2 2 1 1 129 208 130
333 2 2 1 1 143 192 129
334 2 2 1 1 192 208 129
335 2 2 1 1 130 135 134
336 2 2 1 1 130 161 135
337 2 2 1 1 130 208 161
338 2 2 1 1 131 138 132
339 2 2 1 1 131 159 138
340 2 2 1 1 131 212 159
341 2 2 1 1 132 141 133
342 2 2 1 1 138 225 132
343 2 2 1 1 132 225 141
344 2 2 1 1 141 142 133
345 2 2 1 1 142 263 133
346 2 2 1 1 133 263 224
347 2 2 1 1 135 136 134
348 2 2 1 1 136 231 134
349 2 2 1 1 134 231 207
350 2 2 1 1 135 137 136
351 2 2 1 1 135 210 137
352 2 2 1 1 161 210 135
353 2 2 1 1 137 139 136
354 2 2 1 1 139 151 136
355 2 2 1 1 151 231 136
356 2 2 1 1 137 140 139
357 2 2 1 1 137 144 140
358 2 2 1 1 137 210 144
359 2 2 1 1 159 160 138
360 2 2 1 1 160 172 138
361 2 2 1 1 172 225 138
362 2 2 1 1 140 211 139
363 2 2 1 1 139 152 151
364 2 2 1 1 139 211 152
365 2 2 1 1 144 145 140
366 2 2 1 1 145 149 140
367 2 2 1 1 149 211 140
368 2 2 1 1 141 146 142
369 2 2 1 1 141 177 146
370 2 2 1 1 141 225 177
371 2 2 1 1 146 147 142
372 2 2 1 1 147 148 142
373 2 2 1 1 148 263 142
374 2 2 1 1 143 271 192
375 2 2 1 1 206 240 143
376 2 2 1 1 240 271 143
377 2 2 1 1 144 153 145
378 2 2 1 1 144 175 153
379 2 2 1 1 144 210 175
380 2 2 1 1 145 150 149
381 2 2 1 1 145 213 150
382 2 2 1 1 153 213 145
383 2 2 1 1 146 238 147
384 2 2 1 1 177 193 146
385 2 2 1 1 193 238 146
386 2 2 1 1 147 154 148
387 2 2 1 1 147 167 154
388 2 2 1 1 147 238 167
389 2 2 1 1 154 155 148
390 2 2 1 1 155 249 148
391 2 2 1 1 249 263 148
392 2 2 1 1 150 166 149
393 2 2 1 1 166 248 149
394 2 2 1 1 149 248 211
395 2 2 1 1 150 170 166
396 2 2 1 1 150 187 170
397 2 2 1 1 150 213 187
398 2 2 1 1 152 158 151
399 2 2 1 1 158 180 151
400 2 2 1 1 180 231 151
401 2 2 1 1 152 163 158
402 2 2 1 1 152 176 163
403 2 2 1 1 152 211 176
404 2 2 1 1 175 230 153
405 2 2 1 1 153 229 213
406 2 2 1 1 153 230 229
407 2 2 1 1 154 156 155
408 2 2 1 1 154 222 156
409 2 2 1 1 167 222 154
410 2 2 1 1 156 157 155
411 2 2 1 1 157 169 155
412 2 2 1 1 169 249 155
413 2 2 1 1 156 168 157
414 2 2 1 1 156 185 168
415 2 2 1 1 156 222 185
416 2 2 1 1 168 216 157
417 2 2 1 1 157 174 169
418 2 2 1 1 157 216 174
419 2 2 1 1 163 194 158
420 2 2 1 1 158 278 180
421 2 2 1 1 194 278 158
422 2 2 1 1 159 164 160
423 2 2 1 1 159 179 164
424 2 2 1 1 159 212 179
425 2 2 1 1 164 165 160
426 2 2 1 1 165 219 160
427 2 2 1 1 160 219 172
428 2 2 1 1 208 209 161
429 2 2 1 1 209 247 161
430 2 2 1 1 161 247 210
431 2 2 1 1 207 256 162
432 2 2 1 1 226 241 162
433 2 2 1 1 162 256 226
434 2 2 1 1 176 191 163
435 2 2 1 1 191 220 163
436 2 2 1 1 163 220 194
437 2 2 1 1 164 260 165
438 2 2 1 1 179 200 164
439 2 2 1 1 200 260 164
440 2 2 1 1 187 219 165
441 2 2 1 1 165 236 187
442 2 2 1 1 197 236 165
443 2 2 1 1 165 260 197
444 2 2 1 1 170 183 166
445 2 2 1 1 183 184 166
446 2 2 1 1 184 248 166
447 2 2 1 1 167 238 209
448 2 2 1 1 209 272 167
449 2 2 1 1 167 272 222
450 2 2 1 1 185 186 168
451 2 2 1 1 186 201 168
452 2 2 1 1 201 216 168
453 2 2 1 1 174 182 169
454 2 2 1 1 182 188 169
455 2 2 1 1 188 249 169
456 2 2 1 1 170 198 183
457 2 2 1 1 187 236 170
458 2 2 1 1 170 236 198
459 2 2 1 1 194 258 171
460 2 2 1 1 171 278 194
461 2 2 1 1 199 278 171
462 2 2 1 1 171 258 228
463 2 2 1 1 219 229 172
464 2 2 1 1 172 255 225
465 2 2 1 1 229 255 172
466 2 2 1 1 205 239 173
467 2 2 1 1 173 235 206
468 2 2 1 1 173 239 235
469 2 2 1 1 174 204 182
470 2 2 1 1 174 216 203
471 2 2 1 1 203 267 174
472 2 2 1 1 174 267 204
473 2 2 1 1 193 230 175
474 2 2 1 1 175 247 193
475 2 2 1 1 210 247 175
476 2 2 1 1 176 277 191
477 2 2 1 1 211 248 176
478 2 2 1 1 248 277 176
479 2 2 1 1 177 230 193
480 2 2 1 1 225 255 177
481 2 2 1 1 177 255 230
482 2 2 1 1 197 260 178
483 2 2 1 1 200 223 178
484 2 2 1 1 178 260 200
485 2 2 1 1 179 270 200
486 2 2 1 1 212 261 179
487 2 2 1 1 261 270 179
488 2 2 1 1 199 256 180
489 2 2 1 1 180 278 199
490 2 2 1 1 180 256 231
491 2 2 1 1 181 261 212
492 2 2 1 1 218 275 181
493 2 2 1 1 181 275 261
494 2 2 1 1 182 253 188
495 2 2 1 1 204 252 182
496 2 2 1 1 252 253 182
497 2 2 1 1 183 264 184
498 2 2 1 1 183 198 195
499 2 2 1 1 195 264 183
500 2 2 1 1 184 277 248
501 2 2 1 1 185 240 186
502 2 2 1 1 222 271 185
503 2 2 1 1 185 271 240
504 2 2 1 1 186 202 201
505 2 2 1 1 186 235 202
506 2 2 1 1 186 240 235
507 2 2 1 1 213 219 187
508 2 2 1 1 189 190 188
509 2 2 1 1 190 249 188
510 2 2 1 1 189 224 190
511 2 2 1 1 224 263 190
512 2 2 1 1 190 263 249
513 2 2 1 1 191 221 220
514 2 2 1 1 192 272 208
515 2 2 1 1 192 271 222
516 2 2 1 1 222 272 192
517 2 2 1 1 209 238 193
518 2 2 1 1 193 247 209
519 2 2 1 1 220 258 194
520 2 2 1 1 196 241 226
521 2 2 1 1 198 236 197
522 2 2 1 1 226 256 199
523 2 2 1 1 203 216 201
524 2 2 1 1 235 239 202
525 2 2 1 1 239 276 202
526 2 2 1 1 235 240 206
527 2 2 1 1 231 256 207
528 2 2 1 1 208 272 209
529 2 2 1 1 213 229 219
530 2 2 1 1 215 270 261
531 2 2 1 1 261 275 215
532 2 2 1 1 217 252 246
533 2 2 1 1 217 253 252
534 2 2 1 1 221 273 220
535 2 2 1 1 230 255 229
536 2 2 1 1 244 245 243
537 2 2 2 2 22 3 281
538 2 2 2 2 3 22 296
539 2 2 2 2 281 3 322
540 2 2 2 2 3 296 306
541 2 2 2 2 3 306 322
542 2 2 2 2 17 4 286
543 2 2 2 2 4 17 349
544 2 2 2 2 286 4 326
545 2 2 2 2 326 4 349
546 2 2 2 2 17 18 280
547 2 2 2 2 18 17 333
548 2 2 2 2 17 280 349
549 2 2 2 2 17 286 333
550 2 2 2 2 19 18 284
551 2 2 2 2 18 19 332
552 2 2 2 2 280 18 332
553 2 2 2 2 284 18 333
554 2 2 2 2 19 20 282
555 2 2 2 2 20 19 289
556 2 2 2 2 19 282 332
557 2 2 2 2 19 284 289
558 2 2 2 2 20 21 279
559 2 2 2 2 21 20 344
560 2 2 2 2 20 279 282
561 2 2 2 2 20 289 344
562 2 2 2 2 22 21 285
563 2 2 2 2 21 22 340
564 2 2 2 2 279 21 340
565 2 2 2 2 285 21 344
566 2 2 2 2 22 281 340
567 2 2 2 2 22 285 296
568 2 2 2 2 282 279 283
569 2 2 2 2 283 279 288
570 2 2 2 2 288 279 340
571 2 2 2 2 280 287 293
572 2 2 2 2 287 280 332
573 2 2 2 2 280 293 294
574 2 2 2 2 280 294 349
575 2 2 2 2 288 281 324
576 2 2 2 2 281 288 340
577 2 2 2 2 281 322 323
578 2 2 2 2 281 323 324
579 2 2 2 2 282 283 287
580 2 2 2 2 282 287 332
581 2 2 2 2 287 283 292
582 2 2 2 2 283 288 342
583 2 2 2 2 292 283 342
584 2 2 2 2 289 284 290
585 2 2 2 2 290 284 291
586 2 2 2 2 291 284 333
587 2 2 2 2 285 295 297
588 2 2 2 2 295 285 344
589 2 2 2 2 296 285 297
590 2 2 2 2 291 286 299
591 2 2 2 2 286 291 333
592 2 2 2 2 299 286 300
593 2 2 2 2 300 286 326
594 2 2 2 2 287 292 293
595 2 2 2 2 288 324 342
596 2 2 2 2 289 290 295
597 2 2 2 2 289 295 344
598 2 2 2 2 290 291 298
599 2 2 2 2 295 290 325
600 2 2 2 2 290 298 325
601 2 2 2 2 298 291 299
602 2 2 2 2 293 292 301
603 2 2 2 2 301 292 303
604 2 2 2 2 303 292 342
605 2 2 2 2 294 293 339
606 2 2 2 2 293 301 339
607 2 2 2 2 338 294 339
608 2 2 2 2 294 338 349
609 2 2 2 2 297 295 325
610 2 2 2 2 296 297 305
611 2 2 2 2 296 305 306
612 2 2 2 2 305 297 320
613 2 2 2 2 320 297 325
614 2 2 2 2 298 299 302
615 2 2 2 2 298 302 346
616 2 2 2 2 325 298 346
617 2 2 2 2 299 300 328
618 2 2 2 2 302 299 328
619 2 2 2 2 300 326 327
620 2 2 2 2 300 327 328
621 2 2 2 2 301 303 304
622 2 2 2 2 301 304 336
623 2 2 2 2 301 336 339
624 2 2 2 2 302 328 329
625 2 2 2 2 302 329 343
626 2 2 2 2 302 343 346
627 2 2 2 2 304 303 307
628 2 2 2 2 307 303 324
629 2 2 2 2 324 303 342
630 2 2 2 2 304 307 308
631 2 2 2 2 304 308 310
632 2 2 2 2 304 310 336
633 2 2 2 2 306 305 309
634 2 2 2 2 309 305 334
635 2 2 2 2 305 320 334
636 2 2 2 2 306 309 314
637 2 2 2 2 306 314 322
638 2 2 2 2 308 307 321
639 2 2 2 2 321 307 323
640 2 2 2 2 323 307 324
641 2 2 2 2 310 308 311
642 2 2 2 2 311 308 345
643 2 2 2 2 308 321 345
644 2 2 2 2 314 309 315
645 2 2 2 2 315 309 316
646 2 2 2 2 316 309 334
647 2 2 2 2 310 311 312
648 2 2 2 2 310 312 335
649 2 2 2 2 310 335 336
650 2 2 2 2 312 311 313
651 2 2 2 2 313 311 337
652 2 2 2 2 337 311 345
653 2 2 2 2 312 313 317
654 2 2 2 2 312 317 319
655 2 2 2 2 312 319 335
656 2 2 2 2 317 313 318
657 2 2 2 2 318 313 330
658 2 2 2 2 330 313 337
659 2 2 2 2 314 315 331
660 2 2 2 2 322 314 348
661 2 2 2 2 314 331 348
662 2 2 2 2 315 316 330
663 2 2 2 2 315 330 337
664 2 2 2 2 331 315 337
665 2 2 2 2 329 316 334
666 2 2 2 2 316 329 341
667 2 2 2 2 330 316 341
668 2 2 2 2 317 318 327
669 2 2 2 2 319 317 326
670 2 2 2 2 326 317 327
671 2 2 2 2 327 318 347
672 2 2 2 2 318 330 341
673 2 2 2 2 318 341 347
674 2 2 2 2 319 326 338
675 2 2 2 2 335 319 338
676 2 2 2 2 320 325 346
677 2 2 2 2 334 320 343
678 2 2 2 2 343 320 346
679 2 2 2 2 321 323 348
680 2 2 2 2 321 331 345
681 2 2 2 2 331 321 348
682 2 2 2 2 323 322 348
683 2 2 2 2 338 326 349
684 2 2 2 2 328 327 347
685 2 2 2 2 329 328 347
686 2 2 2 2 329 334 343
687 2 2 2 2 341 329 347
688 2 2 2 2 331 337 345
689 2 2 2 2 336 335 339
690 2 2 2 2 335 338 339
691 4 2 1 1 211 375 382 403
692 4 2 1 1 389 398 340 407
693 4 2 1 1 211 395 375 403
694 4 2 1 1 52 422 372 430
695 4 2 1 1 149 211 375 382
696 4 2 1 1 358 361 206 362
697 4 2 1 1 69 379 385 400
698 4 2 1 1 206 361 358 419
699 4 2 1 1 351 368 177 370
700 4 2 1 1 333 412 367 416
701 4 2 1 1 204 412 406 414
702 4 2 1 1 4 412 406 425
703 4 2 1 1 52 394 372 422
704 4 2 1 1 54 407 389 431
705 4 2 1 1 273 423 407 431
706 4 2 1 1 204 406 182 414
707 4 2 1 1 367 412 43 416
708 4 2 1 1 35 412 417 425
709 4 2 1 1 69 400 385 428
710 4 2 1 1 176 375 211 395
711 4 2 1 1 136 353 387 403
712 4 2 1 1 52 51 422 430
713 4 2 1 1 406 412 4 414
714 4 2 1 1 54 398 389 407
715 4 2 1 1 310 361 358 362
716 4 2 1 1 372 422 325 430
717 4 2 1 1 377 197 404 426
718 4 2 1 1 358 361 310 419
719 4 2 1 1 353 355 345 403
720 4 2 1 1 136 355 353 403
721 4 2 1 1 375 395 348 403
722 4 2 1 1 54 273 407 431
723 4 2 1 1 69 74 379 400
724 4 2 1 1 174 169 182 406
725 4 2 1 1 314 382 375 403
726 4 2 1 1 372 394 325 422
727 4 2 1 1 69 385 73 428
728 4 2 1 1 240 361 206 419
729 4 2 1 1 43 391 367 416
730 4 2 1 1 69 385 379 421
731 4 2 1 1 24 406 412 425
732 4 2 1 1 91 414 410 416
733 4 2 1 1 178 377 197 404
734 4 2 1 1 330 368 351 370
735 4 2 1 1 55 394 52 422
736 4 2 1 1 330 313 368 370
737 4 2 1 1 169 405 249 409
738 4 2 1 1 356 389 101 398
739 4 2 1 1 35 379 89 425
740 4 2 1 1 407 423 281 431
741 4 2 1 1 211 382 140 403
742 4 2 1 1 136 353 134 387
743 4 2 1 1 249 409 405 420
744 4 2 1 1 397 404 197 426
745 4 2 1 1 268 366 359 386
746 4 2 1 1 314 375 348 403
747 4 2 1 1 149 140 211 382
748 4 2 1 1 26 365 356 398
749 4 2 1 1 367 391 333 416
750 4 2 1 1 26 356 101 398
751 4 2 1 1 330 352 351 368
752 4 2 1 1 295 325 422 430
753 4 2 1 1 193 177 368 370
754 4 2 1 1 361 396 276 400
755 4 2 1 1 335 310 361 419
756 4 2 1 1 154 405 369 420
757 4 2 1 1 320 377 372 404
758 4 2 1 1 126 358 206 362
759 4 2 1 1 313 330 337 370
760 4 2 1 1 64 392 399 422
761 4 2 1 1 360 368 313 370
762 4 2 1 1 258 415 407 423
763 4 2 1 1 78 392 391 399
764 4 2 1 1 293 385 379 400
765 4 2 1 1 350 372 215 394
766 4 2 1 1 398 407 70 408
767 4 2 1 1 178 372 377 404
768 4 2 1 1 43 41 367 391
769 4 2 1 1 176 393 375 395
770 4 2 1 1 320 305 377 404
771 4 2 1 1 349 417 412 425
772 4 2 1 1 193 368 360 370
773 4 2 1 1 40 43 367 412
774 4 2 1 1 135 353 136 355
775 4 2 1 1 171 407 258 415
776 4 2 1 1 55 52 51 422
777 4 2 1 1 94 409 410 414
778 4 2 1 1 341 351 330 352
779 4 2 1 1 154 369 368 420
780 4 2 1 1 378 379 243 417
781 4 2 1 1 92 410 99 416
782 4 2 1 1 215 354 350 394
783 4 2 1 1 11 356 365 371
784 4 2 1 1 181 261 275 350
785 4 2 1 1 136 387 151 403
786 4 2 1 1 99 410 399 416
787 4 2 1 1 226 387 359 415
788 4 2 1 1 11 356 105 365
789 4 2 1 1 64 399 394 422
790 4 2 1 1 204 174 182 406
791 4 2 1 1 171 413 407 415
792 4 2 1 1 289 284 19 363
793 4 2 1 1 181 350 275 354
794 4 2 1 1 40 227 43 412
795 4 2 1 1 10 363 371 381
796 4 2 1 1 149 382 375 424
797 4 2 1 1 92 99 65 416
798 4 2 1 1 345 308 353 387
799 4 2 1 1 246 43 412 416
800 4 2 1 1 51 402 422 430
801 4 2 1 1 305 377 404 426
802 4 2 1 1 300 410 409 414
803 4 2 1 1 235 361 240 419
804 4 2 1 1 313 337 360 370
805 4 2 1 1 94 410 91 414
806 4 2 1 1 289 363 19 371
807 4 2 1 1 392 290 399 422
808 4 2 1 1 356 365 279 398
809 4 2 1 1 350 354 346 394
810 4 2 1 1 348 375 322 395
811 4 2 1 1 183 397 375 418
812 4 2 1 1 239 361 276 400
813 4 2 1 1 35 244 379 417
814 4 2 1 1 246 412 414 416
815 4 2 1 1 169 326 182 406
816 4 2 1 1 273 221 423 431
817 4 2 1 1 358 362 126 429
818 4 2 1 1 101 356 13 389
819 4 2 1 1 151 387 395 403
820 4 2 1 1 10 9 363 381
821 4 2 1 1 116 385 366 386
822 4 2 1 1 369 405 317 420
823 4 2 1 1 379 400 89 425
824 4 2 1 1 169 182 326 409
825 4 2 1 1 116 366 268 386
826 4 2 1 1 21 356 279 398
827 4 2 1 1 303 359 366 386
828 4 2 1 1 393 423 221 431
829 4 2 1 1 235 396 361 419
830 4 2 1 1 64 392 78 399
831 4 2 1 1 350 346 372 394
832 4 2 1 1 295 422 402 430
833 4 2 1 1 303 366 301 386
834 4 2 1 1 231 136 134 387
835 4 2 1 1 394 399 290 422
836 4 2 1 1 182 406 326 414
837 4 2 1 1 11 12 105 356
838 4 2 1 1 341 330 318 352
839 4 2 1 1 353 358 127 429
840 4 2 1 1 33 371 363 392
841 4 2 1 1 26 13 101 356
842 4 2 1 1 131 376 380 411
843 4 2 1 1 345 321 308 387
844 4 2 1 1 318 352 330 368
845 4 2 1 1 378 381 38 388
846 4 2 1 1 383 407 228 413
847 4 2 1 1 31 371 365 381
848 4 2 1 1 177 351 141 352
849 4 2 1 1 126 127 358 429
850 4 2 1 1 182 326 409 414
851 4 2 1 1 299 410 414 416
852 4 2 1 1 35 24 412 425
853 4 2 1 1 67 70 398 407
854 4 2 1 1 356 364 108 427
855 4 2 1 1 350 354 181 376
856 4 2 1 1 136 231 151 387
857 4 2 1 1 94 409 93 410
858 4 2 1 1 286 412 333 416
859 4 2 1 1 202 276 361 396
860 4 2 1 1 78 87 391 392
861 4 2 1 1 91 410 92 416
862 4 2 1 1 97 372 178 404
863 4 2 1 1 21 389 356 398
864 4 2 1 1 43 41 391 416
865 4 2 1 1 248 211 176 375
866 4 2 1 1 81 383 373 408
867 4 2 1 1 375 393 322 395
868 4 2 1 1 293 385 400 428
869 4 2 1 1 326 169 405 406
870 4 2 1 1 369 405 156 419
871 4 2 1 1 161 353 135 355
872 4 2 1 1 84 383 228 413
873 4 2 1 1 228 407 171 413
874 4 2 1 1 2 406 204 412
875 4 2 1 1 54 36 389 398
876 4 2 1 1 40 367 6 412
877 4 2 1 1 353 355 161 360
878 4 2 1 1 354 399 99 410
879 4 2 1 1 206 240 235 361
880 4 2 1 1 89 379 79 400
881 4 2 1 1 284 363 289 392
882 4 2 1 1 378 243 390 417
883 4 2 1 1 378 388 57 421
884 4 2 1 1 174 405 169 406
885 4 2 1 1 261 350 181 376
886 4 2 1 1 320 372 297 404
887 4 2 1 1 123 362 359 429
888 4 2 1 1 98 404 234 430
889 4 2 1 1 107 364 371 392
890 4 2 1 1 366 385 301 386
891 4 2 1 1 234 404 384 430
892 4 2 1 1 143 206 126 358
893 4 2 1 1 186 235 240 419
894 4 2 1 1 226 256 359 387
895 4 2 1 1 117 268 359 386
896 4 2 1 1 111 364 107 392
897 4 2 1 1 306 375 397 418
898 4 2 1 1 53 378 57 421
899 4 2 1 1 289 363 371 392
900 4 2 1 1 208 358 353 360
901 4 2 1 1 247 360 355 370
902 4 2 1 1 128 178 197 404
903 4 2 1 1 364 402 108 427
904 4 2 1 1 169 326 405 409
905 4 2 1 1 6 412 367 417
906 4 2 1 1 310 362 358 429
907 4 2 1 1 239 361 400 428
908 4 2 1 1 310 358 353 429
909 4 2 1 1 93 91 94 410
910 4 2 1 1 368 369 317 420
911 4 2 1 1 49 98 234 430
912 4 2 1 1 211 152 395 403
913 4 2 1 1 69 379 114 421
914 4 2 1 1 91 92 65 416
915 4 2 1 1 129 353 208 358
916 4 2 1 1 66 398 54 407
917 4 2 1 1 384 402 45 430
918 4 2 1 1 226 256 387 415
919 4 2 1 1 97 372 404 430
920 4 2 1 1 180 151 387 395
921 4 2 1 1 293 379 385 421
922 4 2 1 1 299 410 300 414
923 4 2 1 1 167 238 368 369
924 4 2 1 1 306 397 296 418
925 4 2 1 1 168 405 396 419
926 4 2 1 1 359 413 226 415
927 4 2 1 1 189 409 380 410
928 4 2 1 1 10 363 33 371
929 4 2 1 1 105 356 26 365
930 4 2 1 1 38 381 378 390
931 4 2 1 1 131 376 122 380
932 4 2 1 1 384 404 254 418
933 4 2 1 1 67 71 70 407
934 4 2 1 1 40 6 227 412
935 4 2 1 1 307 359 304 429
936 4 2 1 1 156 369 154 405
937 4 2 1 1 215 350 96 372
938 4 2 1 1 176 211 152 395
939 4 2 1 1 131 380 122 411
940 4 2 1 1 373 383 342 408
941 4 2 1 1 247 193 360 370
942 4 2 1 1 118 189 380 410
943 4 2 1 1 317 369 312 405
944 4 2 1 1 186 396 235 419
945 4 2 1 1 154 368 147 420
946 4 2 1 1 193 177 146 368
947 4 2 1 1 225 352 351 411
948 4 2 1 1 29 363 367 391
949 4 2 1 1 274 363 391 392
950 4 2 1 1 56 215 372 394
951 4 2 1 1 365 371 282 381
952 4 2 1 1 243 378 245 379
953 4 2 1 1 168 396 405 406
954 4 2 1 1 17 367 333 412
955 4 2 1 1 169 188 182 409
956 4 2 1 1 54 389 36 431
957 4 2 1 1 31 365 115 381
958 4 2 1 1 30 412 204 414
959 4 2 1 1 282 365 20 371
960 4 2 1 1 276 400 396 425
961 4 2 1 1 363 381 9 390
962 4 2 1 1 189 93 409 410
963 4 2 1 1 172 255 229 351
964 4 2 1 1 208 129 130 353
965 4 2 1 1 375 382 314 424
966 4 2 1 1 123 359 362 386
967 4 2 1 1 177 141 146 352
968 4 2 1 1 135 134 136 353
969 4 2 1 1 92 218 354 410
970 4 2 1 1 195 404 397 418
971 4 2 1 1 31 11 365 371
972 4 2 1 1 374 424 187 426
973 4 2 1 1 349 412 4 425
974 4 2 1 1 209 368 238 369
975 4 2 1 1 121 362 361 386
976 4 2 1 1 57 378 38 388
977 4 2 1 1 45 402 384 427
978 4 2 1 1 31 250 115 365
979 4 2 1 1 154 147 368 369
980 4 2 1 1 66 67 70 398
981 4 2 1 1 312 405 369 419
982 4 2 1 1 391 392 290 399
983 4 2 1 1 162 359 387 429
984 4 2 1 1 214 399 391 416
985 4 2 1 1 373 385 242 421
986 4 2 1 1 365 398 233 408
987 4 2 1 1 255 230 229 351
988 4 2 1 1 66 67 398 407
989 4 2 1 1 35 244 89 379
990 4 2 1 1 24 406 2 412
991 4 2 1 1 26 105 12 356
992 4 2 1 1 141 351 225 352
993 4 2 1 1 222 369 156 419
994 4 2 1 1 54 66 36 398
995 4 2 1 1 342 373 366 383
996 4 2 1 1 115 381 365 388
997 4 2 1 1 58 388 373 421
998 4 2 1 1 239 276 75 400
999 4 2 1 1 46 108 364 402
1000 4 2 1 1 217 414 91 416
1001 4 2 1 1 9 33 10 363
1002 4 2 1 1 239 202 276 361
1003 4 2 1 1 360 368 209 369
1004 4 2 1 1 210 247 355 370
1005 4 2 1 1 95 118 119 376
1006 4 2 1 1 397 404 296 418
1007 4 2 1 1 123 359 162 429
1008 4 2 1 1 345 355 353 360
1009 4 2 1 1 118 93 189 410
1010 4 2 1 1 183 375 184 418
1011 4 2 1 1 121 386 361 428
1012 4 2 1 1 258 194 415 423
1013 4 2 1 1 180 395 387 415
1014 4 2 1 1 208 358 360 369
1015 4 2 1 1 78 391 102 399
1016 4 2 1 1 118 380 376 410
1017 4 2 1 1 320 297 305 404
1018 4 2 1 1 173 361 121 362
1019 4 2 1 1 161 130 135 353
1020 4 2 1 1 68 242 385 421
1021 4 2 1 1 352 132 380 411
1022 4 2 1 1 43 48 41 416
1023 4 2 1 1 212 357 350 376
1024 4 2 1 1 399 410 299 416
1025 4 2 1 1 154 155 405 420
1026 4 2 1 1 169 155 249 405
1027 4 2 1 1 22 389 340 431
1028 4 2 1 1 307 387 359 429
1029 4 2 1 1 256 162 359 387
1030 4 2 1 1 217 91 63 416
1031 4 2 1 1 48 391 41 416
1032 4 2 1 1 347 380 352 420
1033 4 2 1 1 164 401 165 426
1034 4 2 1 1 80 388 365 408
1035 4 2 1 1 46 108 402 427
1036 4 2 1 1 329 380 376 411
1037 4 2 1 1 244 79 89 379
1038 4 2 1 1 310 353 308 429
1039 4 2 1 1 283 373 342 408
1040 4 2 1 1 144 370 355 382
1041 4 2 1 1 126 127 129 358
1042 4 2 1 1 208 353 130 360
1043 4 2 1 1 3 375 306 418
1044 4 2 1 1 244 243 379 417
1045 4 2 1 1 20 365 356 371
1046 4 2 1 1 27 356 11 371
1047 4 2 1 1 311 345 353 360
1048 4 2 1 1 208 272 358 369
1049 4 2 1 1 308 307 304 429
1050 4 2 1 1 111 107 110 392
1051 4 2 1 1 249 405 155 420
1052 4 2 1 1 33 363 274 392
1053 4 2 1 1 134 387 353 429
1054 4 2 1 1 258 171 228 407
1055 4 2 1 1 127 353 129 358
1056 4 2 1 1 281 423 393 431
1057 4 2 1 1 365 388 283 408
1058 4 2 1 1 182 409 253 414
1059 4 2 1 1 380 409 263 420
1060 4 2 1 1 164 357 160 401
1061 4 2 1 1 293 400 339 428
1062 4 2 1 1 50 51 52 430
1063 4 2 1 1 305 404 397 426
1064 4 2 1 1 27 364 356 371
1065 4 2 1 1 19 282 20 371
1066 4 2 1 1 282 371 19 381
1067 4 2 1 1 352 380 263 420
1068 4 2 1 1 38 378 39 390
1069 4 2 1 1 283 279 365 408
1070 4 2 1 1 244 243 245 379
1071 4 2 1 1 361 362 336 386
1072 4 2 1 1 359 362 304 429
1073 4 2 1 1 118 376 95 410
1074 4 2 1 1 305 296 306 397
1075 4 2 1 1 181 376 354 410
1076 4 2 1 1 25 9 381 390
1077 4 2 1 1 149 211 248 375
1078 4 2 1 1 366 373 103 383
1079 4 2 1 1 321 395 387 403
1080 4 2 1 1 218 99 92 354
1081 4 2 1 1 337 315 331 355
1082 4 2 1 1 84 228 171 413
1083 4 2 1 1 31 11 105 365
1084 4 2 1 1 239 400 75 428
1085 4 2 1 1 74 114 69 379
1086 4 2 1 1 121 361 173 428
1087 4 2 1 1 38 57 53 378
1088 4 2 1 1 358 369 271 419
1089 4 2 1 1 119 376 118 380
1090 4 2 1 1 6 269 412 417
1091 4 2 1 1 214 391 48 416
1092 4 2 1 1 384 404 296 430
1093 4 2 1 1 337 355 345 360
1094 4 2 1 1 130 353 161 360
1095 4 2 1 1 316 351 341 411
1096 4 2 1 1 252 30 204 414
1097 4 2 1 1 131 119 122 376
1098 4 2 1 1 347 341 352 411
1099 4 2 1 1 226 199 256 415
1100 4 2 1 1 317 312 319 405
1101 4 2 1 1 329 347 380 411
1102 4 2 1 1 103 373 81 383
1103 4 2 1 1 92 354 99 410
1104 4 2 1 1 115 365 250 388
1105 4 2 1 1 245 243 113 378
1106 4 2 1 1 212 350 261 376
1107 4 2 1 1 156 222 154 369
1108 4 2 1 1 271 358 192 369
1109 4 2 1 1 31 10 371 381
1110 4 2 1 1 164 165 377 426
1111 4 2 1 1 133 352 132 380
1112 4 2 1 1 43 41 40 367
1113 4 2 1 1 288 407 398 408
1114 4 2 1 1 56 215 96 372
1115 4 2 1 1 131 357 376 411
1116 4 2 1 1 297 285 296 384
1117 4 2 1 1 167 368 147 369
1118 4 2 1 1 361 386 336 428
1119 4 2 1 1 172 351 401 411
1120 4 2 1 1 38 25 381 390
1121 4 2 1 1 352 380 347 411
1122 4 2 1 1 343 357 350 377
1123 4 2 1 1 172 225 351 411
1124 4 2 1 1 237 46 108 364
1125 4 2 1 1 117 116 268 386
1126 4 2 1 1 315 355 337 370
1127 4 2 1 1 173 206 361 362
1128 4 2 1 1 346 350 302 354
1129 4 2 1 1 192 358 272 369
1130 4 2 1 1 20 279 356 365
1131 4 2 1 1 168 405 216 406
1132 4 2 1 1 319 405 312 419
1133 4 2 1 1 212 179 350 357
1134 4 2 1 1 137 382 355 403
1135 4 2 1 1 283 365 282 388
1136 4 2 1 1 343 350 320 377
1137 4 2 1 1 78 87 102 391
1138 4 2 1 1 297 384 296 430
1139 4 2 1 1 73 385 83 428
1140 4 2 1 1 113 245 378 379
1141 4 2 1 1 301 385 339 428
1142 4 2 1 1 275 350 215 354
1143 4 2 1 1 192 208 272 358
1144 4 2 1 1 164 160 165 401
1145 4 2 1 1 181 354 218 410
1146 4 2 1 1 167 209 238 369
1147 4 2 1 1 407 413 324 415
1148 4 2 1 1 332 378 287 381
1149 4 2 1 1 311 337 345 360
1150 4 2 1 1 375 397 166 424
1151 4 2 1 1 180 158 151 395
1152 4 2 1 1 82 366 103 383
1153 4 2 1 1 327 380 347 420
1154 4 2 1 1 12 11 27 356
1155 4 2 1 1 311 353 310 358
1156 4 2 1 1 39 378 243 390
1157 4 2 1 1 122 380 132 411
1158 4 2 1 1 397 187 424 426
1159 4 2 1 1 380 409 328 410
1160 4 2 1 1 58 60 373 388
1161 4 2 1 1 350 357 343 376
1162 4 2 1 1 6 269 5 412
1163 4 2 1 1 233 365 26 398
1164 4 2 1 1 302 346 343 350
1165 4 2 1 1 302 350 343 376
1166 4 2 1 1 256 162 226 359
1167 4 2 1 1 270 96 215 350
1168 4 2 1 1 233 398 232 408
1169 4 2 1 1 208 360 272 369
1170 4 2 1 1 122 376 119 380
1171 4 2 1 1 299 399 354 410
1172 4 2 1 1 293 339 385 428
1173 4 2 1 1 230 229 351 374
1174 4 2 1 1 373 388 257 408
1175 4 2 1 1 168 216 396 406
1176 4 2 1 1 279 282 283 365
1177 4 2 1 1 343 346 320 350
1178 4 2 1 1 336 361 310 362
1179 4 2 1 1 305 296 397 404
1180 4 2 1 1 330 351 315 370
1181 4 2 1 1 58 57 388 421
1182 4 2 1 1 59 69 114 421
1183 4 2 1 1 274 363 42 391
1184 4 2 1 1 297 296 404 430
1185 4 2 1 1 331 355 315 382
1186 4 2 1 1 13 389 356 427
1187 4 2 1 1 263 352 133 380
1188 4 2 1 1 288 383 407 408
1189 4 2 1 1 300 328 409 410
1190 4 2 1 1 230 351 370 374
1191 4 2 1 1 72 83 73 385
1192 4 2 1 1 223 178 97 372
1193 4 2 1 1 230 351 177 370
1194 4 2 1 1 134 207 387 429
1195 4 2 1 1 168 156 405 419
1196 4 2 1 1 297 285 384 430
1197 4 2 1 1 29 42 363 391
1198 4 2 1 1 287 381 378 388
1199 4 2 1 1 308 387 307 429
1200 4 2 1 1 8 367 363 390
1201 4 2 1 1 254 404 195 418
1202 4 2 1 1 407 415 324 423
1203 4 2 1 1 315 330 316 351
1204 4 2 1 1 312 358 310 419
1205 4 2 1 1 280 379 378 417
1206 4 2 1 1 350 357 179 377
1207 4 2 1 1 174 157 169 405
1208 4 2 1 1 310 311 308 353
1209 4 2 1 1 154 167 147 369
1210 4 2 1 1 385 386 83 428
1211 4 2 1 1 243 104 390 417
1212 4 2 1 1 242 373 76 385
1213 4 2 1 1 122 133 132 380
1214 4 2 1 1 8 363 9 390
1215 4 2 1 1 304 310 308 362
1216 4 2 1 1 279 398 365 408
1217 4 2 1 1 140 382 137 403
1218 4 2 1 1 292 301 303 366
1219 4 2 1 1 141 352 225 411
1220 4 2 1 1 96 350 270 372
1221 4 2 1 1 25 38 39 390
1222 4 2 1 1 210 355 247 360
1223 4 2 1 1 153 370 144 382
1224 4 2 1 1 2 267 204 406
1225 4 2 1 1 355 370 315 382
1226 4 2 1 1 340 398 288 407
1227 4 2 1 1 302 354 350 376
1228 4 2 1 1 66 54 67 407
1229 4 2 1 1 58 53 57 421
1230 4 2 1 1 285 402 384 430
1231 4 2 1 1 323 324 415 423
1232 4 2 1 1 257 81 373 408
1233 4 2 1 1 131 357 212 376
1234 4 2 1 1 76 373 366 385
1235 4 2 1 1 181 218 95 410
1236 4 2 1 1 246 43 227 412
1237 4 2 1 1 8 7 367 390
1238 4 2 1 1 136 137 355 403
1239 4 2 1 1 277 375 176 393
1240 4 2 1 1 304 359 303 386
1241 4 2 1 1 237 46 364 402
1242 4 2 1 1 145 374 382 424
1243 4 2 1 1 117 241 123 359
1244 4 2 1 1 319 396 405 419
1245 4 2 1 1 19 371 363 381
1246 4 2 1 1 200 270 350 372
1247 4 2 1 1 263 409 190 420
1248 4 2 1 1 317 368 313 369
1249 4 2 1 1 109 29 42 363
1250 4 2 1 1 22 340 281 431
1251 4 2 1 1 347 329 341 411
1252 4 2 1 1 19 381 363 390
1253 4 2 1 1 29 363 8 367
1254 4 2 1 1 210 175 247 370
1255 4 2 1 1 180 158 395 415
1256 4 2 1 1 18 363 284 367
1257 4 2 1 1 171 258 194 415
1258 4 2 1 1 333 18 284 367
1259 4 2 1 1 351 352 341 411
1260 4 2 1 1 304 362 359 386
1261 4 2 1 1 61 394 78 399
1262 4 2 1 1 18 19 363 390
1263 4 2 1 1 268 196 117 359
1264 4 2 1 1 64 87 78 392
1265 4 2 1 1 321 387 395 415
1266 4 2 1 1 82 86 366 383
1267 4 2 1 1 64 78 394 399
1268 4 2 1 1 18 332 19 390
1269 4 2 1 1 320 350 346 372
1270 4 2 1 1 335 310 336 361
1271 4 2 1 1 247 193 209 360
1272 4 2 1 1 181 95 376 410
1273 4 2 1 1 10 37 9 381
1274 4 2 1 1 375 393 184 418
1275 4 2 1 1 111 112 364 422
1276 4 2 1 1 311 360 358 369
1277 4 2 1 1 315 370 351 374
1278 4 2 1 1 246 63 43 416
1279 4 2 1 1 102 391 214 399
1280 4 2 1 1 335 312 310 419
1281 4 2 1 1 284 367 363 391
1282 4 2 1 1 152 151 395 403
1283 4 2 1 1 62 354 215 394
1284 4 2 1 1 81 71 383 408
1285 4 2 1 1 287 388 378 421
1286 4 2 1 1 214 102 48 391
1287 4 2 1 1 312 311 358 369
1288 4 2 1 1 170 166 397 424
1289 4 2 1 1 195 198 397 404
1290 4 2 1 1 19 332 381 390
1291 4 2 1 1 291 391 290 399
1292 4 2 1 1 2 5 35 412
1293 4 2 1 1 162 123 241 359
1294 4 2 1 1 316 315 351 374
1295 4 2 1 1 3 393 375 418
1296 4 2 1 1 292 301 366 385
1297 4 2 1 1 197 236 397 426
1298 4 2 1 1 395 415 194 423
1299 4 2 1 1 253 182 188 409
1300 4 2 1 1 310 308 362 429
1301 4 2 1 1 54 23 273 431
1302 4 2 1 1 144 355 137 382
1303 4 2 1 1 260 197 377 426
1304 4 2 1 1 7 367 390 417
1305 4 2 1 1 20 356 364 371
1306 4 2 1 1 325 372 346 394
1307 4 2 1 1 308 304 362 429
1308 4 2 1 1 166 375 183 397
1309 4 2 1 1 86 366 383 413
1310 4 2 1 1 94 189 93 409
1311 4 2 1 1 333 367 284 391
1312 4 2 1 1 44 384 15 389
1313 4 2 1 1 174 157 405 406
1314 4 2 1 1 145 382 149 424
1315 4 2 1 1 331 382 314 403
1316 4 2 1 1 77 89 79 400
1317 4 2 1 1 50 52 372 430
1318 4 2 1 1 168 396 186 419
1319 4 2 1 1 319 405 396 406
1320 4 2 1 1 154 148 155 420
1321 4 2 1 1 100 233 232 408
1322 4 2 1 1 51 47 402 430
1323 4 2 1 1 83 385 116 386
1324 4 2 1 1 176 277 248 375
1325 4 2 1 1 183 264 397 418
1326 4 2 1 1 304 303 301 386
1327 4 2 1 1 168 185 156 419
1328 4 2 1 1 322 395 393 423
1329 4 2 1 1 195 397 264 418
1330 4 2 1 1 212 179 261 350
1331 4 2 1 1 307 359 387 415
1332 4 2 1 1 339 301 293 385
1333 4 2 1 1 20 279 21 356
1334 4 2 1 1 316 401 351 411
1335 4 2 1 1 246 412 30 414
1336 4 2 1 1 313 368 360 369
1337 4 2 1 1 115 38 381 388
1338 4 2 1 1 289 371 364 392
1339 4 2 1 1 344 20 356 364
1340 4 2 1 1 231 134 207 387
1341 4 2 1 1 337 355 360 370
1342 4 2 1 1 286 414 412 416
1343 4 2 1 1 73 69 72 385
1344 4 2 1 1 284 290 391 392
1345 4 2 1 1 293 378 379 421
1346 4 2 1 1 274 109 42 363
1347 4 2 1 1 138 401 357 411
1348 4 2 1 1 367 412 17 417
1349 4 2 1 1 173 124 206 362
1350 4 2 1 1 68 242 76 385
1351 4 2 1 1 17 412 349 417
1352 4 2 1 1 361 396 335 419
1353 4 2 1 1 312 313 311 369
1354 4 2 1 1 297 404 372 430
1355 4 2 1 1 313 360 311 369
1356 4 2 1 1 224 263 133 380
1357 4 2 1 1 329 376 357 411
1358 4 2 1 1 153 145 374 382
1359 4 2 1 1 187 397 236 426
1360 4 2 1 1 153 374 370 382
1361 4 2 1 1 384 389 44 427
1362 4 2 1 1 149 375 166 424
1363 4 2 1 1 329 316 341 411
1364 4 2 1 1 112 266 237 364
1365 4 2 1 1 285 384 402 427
1366 4 2 1 1 51 402 266 422
1367 4 2 1 1 25 8 9 390
1368 4 2 1 1 210 247 161 360
1369 4 2 1 1 31 37 10 381
1370 4 2 1 1 121 173 205 428
1371 4 2 1 1 35 412 269 417
1372 4 2 1 1 82 103 81 383
1373 4 2 1 1 90 276 396 425
1374 4 2 1 1 123 117 359 386
1375 4 2 1 1 160 357 138 401
1376 4 2 1 1 237 364 266 402
1377 4 2 1 1 81 70 71 408
1378 4 2 1 1 215 275 261 350
1379 4 2 1 1 346 354 298 394
1380 4 2 1 1 27 107 364 371
1381 4 2 1 1 210 161 355 360
1382 4 2 1 1 257 373 60 388
1383 4 2 1 1 327 409 380 420
1384 4 2 1 1 340 389 21 398
1385 4 2 1 1 284 391 363 392
1386 4 2 1 1 52 56 372 394
1387 4 2 1 1 347 352 318 420
1388 4 2 1 1 135 136 137 355
1389 4 2 1 1 142 146 352 368
1390 4 2 1 1 39 243 104 390
1391 4 2 1 1 197 178 260 377
1392 4 2 1 1 124 126 206 362
1393 4 2 1 1 281 393 3 431
1394 4 2 1 1 6 367 7 417
1395 4 2 1 1 254 28 384 418
1396 4 2 1 1 274 391 87 392
1397 4 2 1 1 141 177 225 351
1398 4 2 1 1 141 132 352 411
1399 4 2 1 1 353 358 311 360
1400 4 2 1 1 125 126 362 429
1401 4 2 1 1 257 388 80 408
1402 4 2 1 1 223 372 97 430
1403 4 2 1 1 29 109 8 363
1404 4 2 1 1 309 424 374 426
1405 4 2 1 1 25 9 37 381
1406 4 2 1 1 211 139 152 403
1407 4 2 1 1 61 64 78 394
1408 4 2 1 1 309 374 316 401
1409 4 2 1 1 73 75 74 428
1410 4 2 1 1 340 21 279 398
1411 4 2 1 1 75 400 74 428
1412 4 2 1 1 143 358 271 419
1413 4 2 1 1 154 147 148 420
1414 4 2 1 1 298 354 299 399
1415 4 2 1 1 325 295 297 430
1416 4 2 1 1 303 366 359 413
1417 4 2 1 1 321 395 323 415
1418 4 2 1 1 179 200 270 350
1419 4 2 1 1 329 401 316 411
1420 4 2 1 1 396 406 201 425
1421 4 2 1 1 191 393 176 395
1422 4 2 1 1 196 226 359 413
1423 4 2 1 1 33 274 110 392
1424 4 2 1 1 309 374 401 426
1425 4 2 1 1 200 372 350 377
1426 4 2 1 1 329 328 376 380
1427 4 2 1 1 131 159 357 411
1428 4 2 1 1 331 345 355 403
1429 4 2 1 1 232 233 26 398
1430 4 2 1 1 111 88 112 422
1431 4 2 1 1 183 184 264 418
1432 4 2 1 1 35 5 269 412
1433 4 2 1 1 180 387 256 415
1434 4 2 1 1 268 366 86 413
1435 4 2 1 1 68 385 69 421
1436 4 2 1 1 153 175 144 370
1437 4 2 1 1 131 122 132 411
1438 4 2 1 1 342 383 366 413
1439 4 2 1 1 58 57 60 388
1440 4 2 1 1 318 368 317 420
1441 4 2 1 1 222 271 369 419
1442 4 2 1 1 145 213 374 424
1443 4 2 1 1 339 400 361 428
1444 4 2 1 1 152 139 151 403
1445 4 2 1 1 357 401 329 411
1446 4 2 1 1 347 327 328 380
1447 4 2 1 1 7 390 104 417
1448 4 2 1 1 318 313 317 368
1449 4 2 1 1 172 401 138 411
1450 4 2 1 1 309 401 316 426
1451 4 2 1 1 142 368 352 420
1452 4 2 1 1 170 397 187 424
1453 4 2 1 1 47 49 45 430
1454 4 2 1 1 140 144 137 382
1455 4 2 1 1 27 108 356 364
1456 4 2 1 1 77 89 400 425
1457 4 2 1 1 47 45 402 430
1458 4 2 1 1 332 378 381 390
1459 4 2 1 1 307 413 359 415
1460 4 2 1 1 232 398 70 408
1461 4 2 1 1 141 225 132 411
1462 4 2 1 1 336 386 301 428
1463 4 2 1 1 4 326 406 414
1464 4 2 1 1 22 21 389 427
1465 4 2 1 1 332 287 282 381
1466 4 2 1 1 76 366 116 385
1467 4 2 1 1 3 393 418 431
1468 4 2 1 1 320 350 372 377
1469 4 2 1 1 116 83 72 385
1470 4 2 1 1 169 249 188 409
1471 4 2 1 1 79 379 74 400
1472 4 2 1 1 292 366 342 373
1473 4 2 1 1 168 186 185 419
1474 4 2 1 1 111 27 107 364
1475 4 2 1 1 85 407 273 423
1476 4 2 1 1 329 347 328 380
1477 4 2 1 1 165 401 219 426
1478 4 2 1 1 212 261 181 376
1479 4 2 1 1 216 201 396 406
1480 4 2 1 1 172 138 225 411
1481 4 2 1 1 324 407 383 413
1482 4 2 1 1 236 198 197 397
1483 4 2 1 1 97 178 128 404
1484 4 2 1 1 305 320 377 426
1485 4 2 1 1 91 93 92 410
1486 4 2 1 1 131 159 212 357
1487 4 2 1 1 138 357 159 411
1488 4 2 1 1 356 389 21 427
1489 4 2 1 1 301 386 385 428
1490 4 2 1 1 280 378 390 417
1491 4 2 1 1 285 21 22 427
1492 4 2 1 1 260 377 165 426
1493 4 2 1 1 276 202 90 396
1494 4 2 1 1 94 253 409 414
1495 4 2 1 1 289 20 364 371
1496 4 2 1 1 131 138 159 411
1497 4 2 1 1 143 271 240 419
1498 4 2 1 1 344 289 20 364
1499 4 2 1 1 4 349 17 412
1500 4 2 1 1 292 385 373 421
1501 4 2 1 1 139 211 140 403
1502 4 2 1 1 325 297 372 430
1503 4 2 1 1 342 366 303 413
1504 4 2 1 1 160 159 138 357
1505 4 2 1 1 56 62 215 394
1506 4 2 1 1 193 230 177 370
1507 4 2 1 1 199 180 256 415
1508 4 2 1 1 172 225 255 351
1509 4 2 1 1 268 86 196 413
1510 4 2 1 1 216 405 157 406
1511 4 2 1 1 185 222 156 419
1512 4 2 1 1 283 388 373 408
1513 4 2 1 1 306 397 375 424
1514 4 2 1 1 296 404 384 418
1515 4 2 1 1 222 271 192 369
1516 4 2 1 1 343 357 329 376
1517 4 2 1 1 103 257 81 373
1518 4 2 1 1 15 389 384 431
1519 4 2 1 1 282 381 287 388
1520 4 2 1 1 168 157 216 405
1521 4 2 1 1 195 128 198 404
1522 4 2 1 1 171 120 413 415
1523 4 2 1 1 250 365 80 388
1524 4 2 1 1 354 394 62 399
1525 4 2 1 1 162 241 226 359
1526 4 2 1 1 82 251 103 366
1527 4 2 1 1 190 409 249 420
1528 4 2 1 1 243 34 104 417
1529 4 2 1 1 282 365 381 388
1530 4 2 1 1 230 370 153 374
1531 4 2 1 1 292 366 373 385
1532 4 2 1 1 287 373 388 421
1533 4 2 1 1 348 314 322 375
1534 4 2 1 1 179 200 350 377
1535 4 2 1 1 338 396 361 400
1536 4 2 1 1 77 400 276 425
1537 4 2 1 1 44 389 14 427
1538 4 2 1 1 45 384 44 427
1539 4 2 1 1 293 379 294 400
1540 4 2 1 1 321 307 387 415
1541 4 2 1 1 142 147 368 420
1542 4 2 1 1 194 163 395 423
1543 4 2 1 1 151 231 180 387
1544 4 2 1 1 331 314 348 403
1545 4 2 1 1 162 387 207 429
1546 4 2 1 1 86 383 84 413
1547 4 2 1 1 22 389 384 427
1548 4 2 1 1 123 125 362 429
1549 4 2 1 1 8 104 7 390
1550 4 2 1 1 336 362 304 386
1551 4 2 1 1 59 378 53 421
1552 4 2 1 1 170 166 183 397
1553 4 2 1 1 272 360 209 369
1554 4 2 1 1 343 334 357 377
1555 4 2 1 1 126 124 125 362
1556 4 2 1 1 29 367 41 391
1557 4 2 1 1 59 113 53 378
1558 4 2 1 1 251 82 86 366
1559 4 2 1 1 6 40 7 367
1560 4 2 1 1 51 50 47 430
1561 4 2 1 1 13 356 108 427
1562 4 2 1 1 187 165 219 426
1563 4 2 1 1 168 216 201 396
1564 4 2 1 1 14 389 13 427
1565 4 2 1 1 134 353 127 429
1566 4 2 1 1 187 374 213 424
1567 4 2 1 1 149 145 140 382
1568 4 2 1 1 252 246 30 414
1569 4 2 1 1 191 176 163 395
1570 4 2 1 1 285 22 384 427
1571 4 2 1 1 306 375 314 424
1572 4 2 1 1 164 179 357 377
1573 4 2 1 1 64 88 392 422
1574 4 2 1 1 344 356 21 427
1575 4 2 1 1 123 362 121 386
1576 4 2 1 1 82 84 86 383
1577 4 2 1 1 145 213 153 374
1578 4 2 1 1 2 204 30 412
1579 4 2 1 1 23 16 1 431
1580 4 2 1 1 258 407 85 423
1581 4 2 1 1 191 393 395 423
1582 4 2 1 1 307 303 359 413
1583 4 2 1 1 94 91 217 414
1584 4 2 1 1 51 266 112 422
1585 4 2 1 1 196 120 226 413
1586 4 2 1 1 14 44 15 389
1587 4 2 1 1 122 119 118 380
1588 4 2 1 1 293 378 280 379
1589 4 2 1 1 64 394 55 422
1590 4 2 1 1 284 290 291 391
1591 4 2 1 1 28 418 16 431
1592 4 2 1 1 321 323 307 415
1593 4 2 1 1 376 380 328 410
1594 4 2 1 1 76 103 366 373
1595 4 2 1 1 208 130 161 360
1596 4 2 1 1 193 146 238 368
1597 4 2 1 1 273 23 221 431
1598 4 2 1 1 228 383 71 407
1599 4 2 1 1 230 153 229 374
1600 4 2 1 1 357 377 334 426
1601 4 2 1 1 272 209 167 369
1602 4 2 1 1 260 165 197 426
1603 4 2 1 1 171 199 120 415
1604 4 2 1 1 98 195 254 404
1605 4 2 1 1 164 165 260 377
1606 4 2 1 1 255 177 230 351
1607 4 2 1 1 146 141 142 352
1608 4 2 1 1 308 353 387 429
1609 4 2 1 1 33 109 274 363
1610 4 2 1 1 288 342 383 408
1611 4 2 1 1 318 330 313 368
1612 4 2 1 1 130 129 127 353
1613 4 2 1 1 295 402 285 430
1614 4 2 1 1 218 181 275 354
1615 4 2 1 1 202 361 235 396
1616 4 2 1 1 219 172 229 401
1617 4 2 1 1 326 405 409 420
1618 4 2 1 1 18 390 367 417
1619 4 2 1 1 318 352 368 420
1620 4 2 1 1 236 187 170 397
1621 4 2 1 1 289 392 364 422
1622 4 2 1 1 31 10 11 371
1623 4 2 1 1 42 87 274 391
1624 4 2 1 1 219 229 374 401
1625 4 2 1 1 354 376 302 410
1626 4 2 1 1 204 267 174 406
1627 4 2 1 1 178 372 200 377
1628 4 2 1 1 286 17 333 412
1629 4 2 1 1 322 323 395 423
1630 4 2 1 1 56 96 52 372
1631 4 2 1 1 105 250 31 365
1632 4 2 1 1 250 233 80 365
1633 4 2 1 1 136 151 139 403
1634 4 2 1 1 363 367 18 390
1635 4 2 1 1 314 382 315 424
1636 4 2 1 1 339 361 336 428
1637 4 2 1 1 329 357 334 401
1638 4 2 1 1 101 389 36 398
1639 4 2 1 1 256 207 162 387
1640 4 2 1 1 200 96 270 372
1641 4 2 1 1 339 338 361 400
1642 4 2 1 1 173 121 124 362
1643 4 2 1 1 327 347 318 420
1644 4 2 1 1 183 195 198 397
1645 4 2 1 1 192 129 208 358
1646 4 2 1 1 316 329 334 401
1647 4 2 1 1 108 46 32 427
1648 4 2 1 1 163 176 152 395
1649 4 2 1 1 143 126 129 358
1650 4 2 1 1 299 298 302 354
1651 4 2 1 1 46 402 45 427
1652 4 2 1 1 302 343 329 376
1653 4 2 1 1 7 29 8 367
1654 4 2 1 1 28 106 16 418
1655 4 2 1 1 295 285 297 430
1656 4 2 1 1 54 36 23 431
1657 4 2 1 1 328 380 327 409
1658 4 2 1 1 295 364 344 402
1659 4 2 1 1 115 57 38 388
1660 4 2 1 1 119 181 95 376
1661 4 2 1 1 37 38 25 381
1662 4 2 1 1 35 89 24 425
1663 4 2 1 1 91 65 63 416
1664 4 2 1 1 52 55 56 394
1665 4 2 1 1 13 108 32 427
1666 4 2 1 1 45 234 44 384
1667 4 2 1 1 339 336 301 428
1668 4 2 1 1 355 382 331 403
1669 4 2 1 1 145 149 150 424
1670 4 2 1 1 283 292 342 373
1671 4 2 1 1 357 334 401 426
1672 4 2 1 1 98 97 404 430
1673 4 2 1 1 241 117 196 359
1674 4 2 1 1 98 49 97 430
1675 4 2 1 1 343 320 334 377
1676 4 2 1 1 155 169 157 405
1677 4 2 1 1 232 70 100 408
1678 4 2 1 1 326 409 327 420
1679 4 2 1 1 299 354 302 410
1680 4 2 1 1 149 166 150 424
1681 4 2 1 1 69 68 72 385
1682 4 2 1 1 207 134 127 429
1683 4 2 1 1 315 382 374 424
1684 4 2 1 1 306 3 322 375
1685 4 2 1 1 287 378 293 421
1686 4 2 1 1 335 336 339 361
1687 4 2 1 1 55 51 262 422
1688 4 2 1 1 77 79 74 400
1689 4 2 1 1 301 336 304 386
1690 4 2 1 1 14 101 13 389
1691 4 2 1 1 173 206 235 361
1692 4 2 1 1 203 201 406 425
1693 4 2 1 1 28 384 418 431
1694 4 2 1 1 285 402 344 427
1695 4 2 1 1 204 182 252 414
1696 4 2 1 1 254 106 28 418
1697 4 2 1 1 325 394 290 422
1698 4 2 1 1 334 377 320 426
1699 4 2 1 1 15 44 28 384
1700 4 2 1 1 287 292 373 421
1701 4 2 1 1 66 101 36 398
1702 4 2 1 1 90 77 276 425
1703 4 2 1 1 210 161 135 355
1704 4 2 1 1 27 237 108 364
1705 4 2 1 1 61 78 259 399
1706 4 2 1 1 10 33 107 371
1707 4 2 1 1 39 113 243 378
1708 4 2 1 1 37 31 115 381
1709 4 2 1 1 212 159 179 357
1710 4 2 1 1 111 110 88 392
1711 4 2 1 1 351 316 374 401
1712 4 2 1 1 65 214 48 416
1713 4 2 1 1 248 166 149 375
1714 4 2 1 1 125 127 126 429
1715 4 2 1 1 331 321 345 403
1716 4 2 1 1 288 283 342 408
1717 4 2 1 1 251 76 103 366
1718 4 2 1 1 100 257 80 408
1719 4 2 1 1 244 34 243 417
1720 4 2 1 1 180 278 158 415
1721 4 2 1 1 237 266 46 402
1722 4 2 1 1 139 140 137 403
1723 4 2 1 1 113 114 245 379
1724 4 2 1 1 290 394 298 399
1725 4 2 1 1 58 373 242 421
1726 4 2 1 1 257 60 80 388
1727 4 2 1 1 76 242 103 373
1728 4 2 1 1 17 18 367 417
1729 4 2 1 1 275 215 62 354
1730 4 2 1 1 291 391 399 416
1731 4 2 1 1 22 281 3 431
1732 4 2 1 1 106 254 195 418
1733 4 2 1 1 3 418 22 431
1734 4 2 1 1 312 369 358 419
1735 4 2 1 1 194 278 171 415
1736 4 2 1 1 26 12 13 356
1737 4 2 1 1 24 203 406 425
1738 4 2 1 1 78 102 214 399
1739 4 2 1 1 262 64 55 422
1740 4 2 1 1 323 415 395 423
1741 4 2 1 1 293 385 292 421
1742 4 2 1 1 286 299 414 416
1743 4 2 1 1 339 293 294 400
1744 4 2 1 1 15 384 28 431
1745 4 2 1 1 155 156 154 405
1746 4 2 1 1 38 53 39 378
1747 4 2 1 1 289 364 295 422
1748 4 2 1 1 5 227 6 412
1749 4 2 1 1 271 143 192 358
1750 4 2 1 1 51 47 266 402
1751 4 2 1 1 84 71 228 383
1752 4 2 1 1 123 125 124 362
1753 4 2 1 1 306 309 397 424
1754 4 2 1 1 123 162 125 429
1755 4 2 1 1 247 175 193 370
1756 4 2 1 1 131 212 119 376
1757 4 2 1 1 118 95 93 410
1758 4 2 1 1 263 142 352 420
1759 4 2 1 1 130 134 135 353
1760 4 2 1 1 191 395 163 423
1761 4 2 1 1 1 393 221 431
1762 4 2 1 1 159 160 164 357
1763 4 2 1 1 287 373 283 388
1764 4 2 1 1 268 116 76 366
1765 4 2 1 1 68 69 59 421
1766 4 2 1 1 322 375 3 393
1767 4 2 1 1 12 27 108 356
1768 4 2 1 1 261 270 215 350
1769 4 2 1 1 317 313 312 369
1770 4 2 1 1 43 63 48 416
1771 4 2 1 1 88 87 64 392
1772 4 2 1 1 28 234 254 384
1773 4 2 1 1 224 380 189 409
1774 4 2 1 1 370 374 315 382
1775 4 2 1 1 295 364 402 422
1776 4 2 1 1 85 54 273 407
1777 4 2 1 1 115 38 37 381
1778 4 2 1 1 306 314 309 424
1779 4 2 1 1 263 190 249 420
1780 4 2 1 1 114 74 79 379
1781 4 2 1 1 302 329 328 376
1782 4 2 1 1 165 187 236 426
1783 4 2 1 1 253 252 182 414
1784 4 2 1 1 333 391 291 416
1785 4 2 1 1 194 163 158 395
1786 4 2 1 1 298 346 302 354
1787 4 2 1 1 4 412 286 414
1788 4 2 1 1 94 253 188 409
1789 4 2 1 1 9 8 109 363
1790 4 2 1 1 136 139 137 403
1791 4 2 1 1 32 46 45 427
1792 4 2 1 1 170 150 166 424
1793 4 2 1 1 316 330 341 351
1794 4 2 1 1 223 50 372 430
1795 4 2 1 1 309 397 424 426
1796 4 2 1 1 220 258 85 423
1797 4 2 1 1 158 152 151 395
1798 4 2 1 1 232 26 101 398
1799 4 2 1 1 309 315 374 424
1800 4 2 1 1 288 398 279 408
1801 4 2 1 1 90 396 201 425
1802 4 2 1 1 1 418 393 431
1803 4 2 1 1 249 155 148 420
1804 4 2 1 1 270 261 179 350
1805 4 2 1 1 7 104 34 417
1806 4 2 1 1 153 144 145 382
1807 4 2 1 1 137 144 210 355
1808 4 2 1 1 296 384 22 418
1809 4 2 1 1 142 148 147 420
1810 4 2 1 1 121 123 124 362
1811 4 2 1 1 20 282 279 365
1812 4 2 1 1 202 201 90 396
1813 4 2 1 1 295 289 344 364
1814 4 2 1 1 34 6 7 417
1815 4 2 1 1 286 299 300 414
1816 4 2 1 1 305 334 320 426
1817 4 2 1 1 311 345 308 353
1818 4 2 1 1 16 418 1 431
1819 4 2 1 1 150 170 187 424
1820 4 2 1 1 222 185 271 419
1821 4 2 1 1 246 252 217 414
1822 4 2 1 1 321 348 395 403
1823 4 2 1 1 165 236 197 426
1824 4 2 1 1 18 333 17 367
1825 4 2 1 1 213 187 219 374
1826 4 2 1 1 194 220 163 423
1827 4 2 1 1 92 95 218 410
1828 4 2 1 1 85 273 220 423
1829 4 2 1 1 255 225 177 351
1830 4 2 1 1 309 314 315 424
1831 4 2 1 1 79 244 245 379
1832 4 2 1 1 337 331 345 355
1833 4 2 1 1 328 302 376 410
1834 4 2 1 1 172 160 138 401
1835 4 2 1 1 61 55 64 394
1836 4 2 1 1 325 290 295 422
1837 4 2 1 1 290 392 289 422
1838 4 2 1 1 285 344 21 427
1839 4 2 1 1 310 312 311 358
1840 4 2 1 1 280 390 18 417
1841 4 2 1 1 145 150 213 424
1842 4 2 1 1 111 112 237 364
1843 4 2 1 1 233 105 26 365
1844 4 2 1 1 50 52 223 372
1845 4 2 1 1 202 235 186 396
1846 4 2 1 1 202 239 235 361
1847 4 2 1 1 166 184 183 375
1848 4 2 1 1 264 195 183 397
1849 4 2 1 1 29 41 42 391
1850 4 2 1 1 186 168 201 396
1851 4 2 1 1 27 11 107 371
1852 4 2 1 1 9 109 33 363
1853 4 2 1 1 280 293 287 378
1854 4 2 1 1 313 337 311 360
1855 4 2 1 1 196 226 241 359
1856 4 2 1 1 24 203 267 406
1857 4 2 1 1 347 341 318 352
1858 4 2 1 1 280 378 332 390
1859 4 2 1 1 289 19 20 371
1860 4 2 1 1 133 263 142 352
1861 4 2 1 1 36 389 15 431
1862 4 2 1 1 40 41 29 367
1863 4 2 1 1 141 132 133 352
1864 4 2 1 1 157 168 156 405
1865 4 2 1 1 185 186 240 419
1866 4 2 1 1 316 401 334 426
1867 4 2 1 1 298 394 354 399
1868 4 2 1 1 184 393 1 418
1869 4 2 1 1 216 203 201 406
1870 4 2 1 1 324 383 342 413
1871 4 2 1 1 224 133 122 380
1872 4 2 1 1 384 22 418 431
1873 4 2 1 1 190 224 189 409
1874 4 2 1 1 67 228 71 407
1875 4 2 1 1 348 322 323 395
1876 4 2 1 1 58 60 242 373
1877 4 2 1 1 19 284 18 363
1878 4 2 1 1 21 344 20 356
1879 4 2 1 1 3 296 22 418
1880 4 2 1 1 32 45 44 427
1881 4 2 1 1 84 171 120 413
1882 4 2 1 1 30 246 227 412
1883 4 2 1 1 14 13 32 427
1884 4 2 1 1 222 167 154 369
1885 4 2 1 1 174 216 157 406
1886 4 2 1 1 346 298 325 394
1887 4 2 1 1 232 66 70 398
1888 4 2 1 1 115 250 80 388
1889 4 2 1 1 142 147 146 368
1890 4 2 1 1 325 320 346 372
1891 4 2 1 1 39 104 25 390
1892 4 2 1 1 291 399 299 416
1893 4 2 1 1 396 400 338 425
1894 4 2 1 1 82 81 71 383
1895 4 2 1 1 335 361 338 396
1896 4 2 1 1 147 167 238 368
1897 4 2 1 1 187 213 150 424
1898 4 2 1 1 287 293 292 421
1899 4 2 1 1 219 165 160 401
1900 4 2 1 1 315 316 309 374
1901 4 2 1 1 58 59 53 421
1902 4 2 1 1 62 99 218 354
1903 4 2 1 1 159 164 179 357
1904 4 2 1 1 322 314 306 375
1905 4 2 1 1 273 221 220 423
1906 4 2 1 1 281 340 288 407
1907 4 2 1 1 300 299 328 410
1908 4 2 1 1 32 44 14 427
1909 4 2 1 1 339 338 335 361
1910 4 2 1 1 2 35 24 412
1911 4 2 1 1 178 223 200 372
1912 4 2 1 1 220 194 258 423
1913 4 2 1 1 319 335 396 419
1914 4 2 1 1 72 76 116 385
1915 4 2 1 1 309 316 334 426
1916 4 2 1 1 48 102 41 391
1917 4 2 1 1 224 118 189 380
1918 4 2 1 1 235 239 173 361
1919 4 2 1 1 86 120 196 413
1920 4 2 1 1 315 314 331 382
1921 4 2 1 1 315 337 330 370
1922 4 2 1 1 287 292 283 373
1923 4 2 1 1 342 303 324 413
1924 4 2 1 1 129 192 143 358
1925 4 2 1 1 328 327 300 409
1926 4 2 1 1 230 175 153 370
1927 4 2 1 1 145 144 140 382
1928 4 2 1 1 340 279 288 398
1929 4 2 1 1 47 45 46 402
1930 4 2 1 1 348 323 321 395
1931 4 2 1 1 237 27 111 364
1932 4 2 1 1 135 137 210 355
1933 4 2 1 1 25 104 8 390
1934 4 2 1 1 307 303 304 359
1935 4 2 1 1 322 393 281 423
1936 4 2 1 1 282 287 283 388
1937 4 2 1 1 3 281 322 393
1938 4 2 1 1 324 288 383 407
1939 4 2 1 1 123 121 117 386
1940 4 2 1 1 288 279 283 408
1941 4 2 1 1 62 56 61 394
1942 4 2 1 1 306 296 3 418
1943 4 2 1 1 239 75 205 428
1944 4 2 1 1 77 74 75 400
1945 4 2 1 1 277 176 191 393
1946 4 2 1 1 19 332 282 381
1947 4 2 1 1 262 51 112 422
1948 4 2 1 1 324 413 307 415
1949 4 2 1 1 68 76 72 385
1950 4 2 1 1 236 170 198 397
1951 4 2 1 1 342 292 303 366
1952 4 2 1 1 384 389 22 431
1953 4 2 1 1 290 289 295 422
1954 4 2 1 1 222 192 272 369
1955 4 2 1 1 208 209 272 360
1956 4 2 1 1 24 265 203 425
1957 4 2 1 1 119 212 181 376
1958 4 2 1 1 128 98 97 404
1959 4 2 1 1 85 67 54 407
1960 4 2 1 1 298 290 325 394
1961 4 2 1 1 294 293 280 379
1962 4 2 1 1 42 102 87 391
1963 4 2 1 1 304 336 310 362
1964 4 2 1 1 230 193 175 370
1965 4 2 1 1 130 127 134 353
1966 4 2 1 1 68 58 242 421
1967 4 2 1 1 285 22 296 384
1968 4 2 1 1 244 35 269 417
1969 4 2 1 1 114 79 245 379
1970 4 2 1 1 13 12 108 356
1971 4 2 1 1 205 73 83 428
1972 4 2 1 1 276 77 75 400
1973 4 2 1 1 85 258 228 407
1974 4 2 1 1 7 40 29 367
1975 4 2 1 1 307 324 303 413
1976 4 2 1 1 133 142 141 352
1977 4 2 1 1 64 262 88 422
1978 4 2 1 1 179 164 200 377
1979 4 2 1 1 256 231 207 387
1980 4 2 1 1 53 113 39 378
1981 4 2 1 1 295 344 285 402
1982 4 2 1 1 83 116 117 386
1983 4 2 1 1 213 219 229 374
1984 4 2 1 1 280 349 379 417
1985 4 2 1 1 277 184 375 393
1986 4 2 1 1 199 278 180 415
1987 4 2 1 1 256 180 231 387
1988 4 2 1 1 224 122 118 380
1989 4 2 1 1 188 249 190 409
1990 4 2 1 1 15 28 16 431
1991 4 2 1 1 223 97 50 430
1992 4 2 1 1 55 61 56 394
1993 4 2 1 1 280 332 18 390
1994 4 2 1 1 95 92 93 410
1995 4 2 1 1 98 128 195 404
1996 4 2 1 1 17 280 18 417
1997 4 2 1 1 325 297 320 372
1998 4 2 1 1 264 184 1 418
1999 4 2 1 1 65 48 63 416
2000 4 2 1 1 21 340 22 389
2001 4 2 1 1 112 88 262 422
2002 4 2 1 1 308 321 307 387
2003 4 2 1 1 132 138 131 411
2004 4 2 1 1 24 267 2 406
2005 4 2 1 1 291 298 299 399
2006 4 2 1 1 300 409 326 414
2007 4 2 1 1 234 28 44 384
2008 4 2 1 1 268 76 251 366
2009 4 2 1 1 138 132 225 411
2010 4 2 1 1 84 82 71 383
2011 4 2 1 1 332 280 287 378
2012 4 2 1 1 290 284 289 392
2013 4 2 1 1 152 158 163 395
2014 4 2 1 1 199 171 278 415
2015 4 2 1 1 10 107 11 371
2016 4 2 1 1 338 319 396 406
2017 4 2 1 1 260 178 200 377
2018 4 2 1 1 94 217 253 414
2019 4 2 1 1 146 147 238 368
2020 4 2 1 1 305 397 309 426
2021 4 2 1 1 86 84 120 413
2022 4 2 1 1 77 90 89 425
2023 4 2 1 1 209 161 247 360
2024 4 2 1 1 240 271 185 419
2025 4 2 1 1 191 221 393 423
2026 4 2 1 1 309 305 306 397
2027 4 2 1 1 288 342 324 383
2028 4 2 1 1 327 318 317 420
2029 4 2 1 1 34 244 269 417
2030 4 2 1 1 264 106 195 418
2031 4 2 1 1 251 86 268 366
2032 4 2 1 1 250 105 233 365
2033 4 2 1 1 70 81 100 408
2034 4 2 1 1 223 96 200 372
2035 4 2 1 1 301 292 293 385
2036 4 2 1 1 24 89 265 425
2037 4 2 1 1 265 89 90 425
2038 4 2 1 1 277 184 248 375
2039 4 2 1 1 203 90 201 425
2040 4 2 1 1 249 148 263 420
2041 4 2 1 1 319 312 335 419
2042 4 2 1 1 103 60 257 373
2043 4 2 1 1 229 153 213 374
2044 4 2 1 1 57 80 60 388
2045 4 2 1 1 155 157 156 405
2046 4 2 1 1 291 290 298 399
2047 4 2 1 1 75 73 205 428
2048 4 2 1 1 343 334 329 357
2049 4 2 1 1 34 269 6 417
2050 4 2 1 1 58 68 59 421
2051 4 2 1 1 203 265 90 425
2052 4 2 1 1 189 94 188 409
2053 4 2 1 1 23 1 221 431
2054 4 2 1 1 15 36 14 389
2055 4 2 1 1 275 62 218 354
2056 4 2 1 1 263 148 142 420
2057 4 2 1 1 208 161 209 360
2058 4 2 1 1 101 14 36 389
2059 4 2 1 1 324 281 288 407
2060 4 2 1 1 162 207 125 429
2061 4 2 1 1 274 87 110 392
2062 4 2 1 1 16 106 1 418
2063 4 2 1 1 186 201 202 396
2064 4 2 1 1 322 281 323 423
2065 4 2 1 1 66 232 101 398
2066 4 2 1 1 259 78 214 399
2067 4 2 1 1 191 220 221 423
2068 4 2 1 1 321 331 348 403
2069 4 2 1 1 264 1 106 418
2070 4 2 1 1 30 227 5 412
2071 4 2 1 1 96 223 52 372
2072 4 2 1 1 284 291 333 391
2073 4 2 1 1 296 305 297 404
2074 4 2 1 1 272 167 222 369
2075 4 2 1 1 396 338 406 425
2076 4 2 1 1 121 83 117 386
2077 4 2 1 1 216 174 203 406
2078 4 2 1 1 88 110 87 392
2079 4 2 1 1 80 57 115 388
2080 4 2 1 1 85 228 67 407
2081 4 2 1 1 49 47 50 430
2082 4 2 1 1 198 170 183 397
2083 4 2 1 1 47 46 266 402
2084 4 2 1 1 166 248 184 375
2085 4 2 1 1 36 15 23 431
2086 4 2 1 1 160 172 219 401
2087 4 2 1 1 191 163 220 423
2088 4 2 1 1 328 299 302 410
2089 4 2 1 1 127 125 207 429
2090 4 2 1 1 333 291 286 416
2091 4 2 1 1 323 324 307 415
2092 4 2 1 1 99 259 214 399
2093 4 2 1 1 338 400 294 425
2094 4 2 1 1 191 1 277 393
2095 4 2 1 1 334 305 309 426
2096 4 2 1 1 2 30 5 412
2097 4 2 1 1 257 100 81 408
2098 4 2 1 1 190 189 188 409
2099 4 2 1 1 200 164 260 377
2100 4 2 1 1 103 242 60 373
2101 4 2 1 1 253 217 252 414
2102 4 2 1 1 97 49 50 430
2103 4 2 1 1 41 102 42 391
2104 4 2 1 1 326 4 286 414
2105 4 2 1 1 326 405 319 406
2106 4 2 1 1 326 286 300 414
2107 4 2 1 1 291 299 286 416
2108 4 2 1 1 294 338 339 400
2109 4 2 1 1 267 203 174 406
2110 4 2 1 1 191 221 1 393
2111 4 2 1 1 17 286 4 412
2112 4 2 1 1 349 280 17 417
2113 4 2 1 1 338 319 335 396
2114 4 2 1 1 277 1 184 393
2115 4 2 1 1 300 327 326 409
2116 4 2 1 1 317 319 326 405
2117 4 2 1 1 280 349 294 379
2118 4 2 1 1 16 23 15 431
2119 4 2 1 1 338 294 349 425
2120 4 2 1 1 387 345 403 353
2121 4 2 1 1 387 403 345 321
2122 4 2 1 1 431 340 407 389
2123 4 2 1 1 431 407 340 281
2124 4 2 1 1 368 177 352 351
2125 4 2 1 1 368 352 177 146
2126 4 2 1 1 419 143 206 240
2127 4 2 1 1 419 206 143 358
2128 4 2 1 1 404 198 197 128
2129 4 2 1 1 404 197 198 397
2130 4 2 1 1 368 209 193 360
2131 4 2 1 1 368 193 209 238
2132 4 2 1 1 404 234 254 98
2133 4 2 1 1 404 254 234 384
2134 4 2 1 1 234 430 45 49
2135 4 2 1 1 45 430 234 384
2136 4 2 1 1 409 224 263 190
2137 4 2 1 1 409 263 224 380
2138 4 2 1 1 416 99 214 399
2139 4 2 1 1 416 214 99 65
2140 4 2 1 1 426 357 164 401
2141 4 2 1 1 426 164 357 377
2142 4 2 1 1 416 217 246 63
2143 4 2 1 1 416 246 217 414
2144 4 2 1 1 408 71 407 70
2145 4 2 1 1 408 407 71 383
2146 4 2 1 1 417 425 379 35
2147 4 2 1 1 379 425 417 349
2148 4 2 1 1 413 268 359 196
2149 4 2 1 1 413 359 268 366
2150 4 2 1 1 74 428 69 73
2151 4 2 1 1 69 428 74 400
2152 4 2 1 1 392 107 33 371
2153 4 2 1 1 392 33 107 110
2154 4 2 1 1 219 426 374 187
2155 4 2 1 1 374 426 219 401
2156 4 2 1 1 408 233 80 100
2157 4 2 1 1 408 80 233 365
2158 4 2 1 1 422 111 392 364
2159 4 2 1 1 422 392 111 88
2160 4 2 1 1 114 421 378 59
2161 4 2 1 1 378 421 114 379
2162 4 2 1 1 378 113 114 59
2163 4 2 1 1 114 113 378 379
2164 4 2 1 1 427 364 344 356
2165 4 2 1 1 427 344 364 402
2166 4 2 1 1 422 266 364 402
2167 4 2 1 1 422 364 266 112
2168 4 2 1 1 370 210 144 355
2169 4 2 1 1 370 144 210 175
2170 4 2 1 1 401 229 351 172
2171 4 2 1 1 401 351 229 374
2172 4 2 1 1 415 158 194 278
2173 4 2 1 1 415 194 158 395
2174 4 2 1 1 428 173 239 361
2175 4 2 1 1 428 239 173 205
2176 4 2 1 1 399 61 62 259
2177 4 2 1 1 399 62 61 394
2178 4 2 1 1 423 324 281 323
2179 4 2 1 1 423 281 324 407
2180 4 2 1 1 415 120 226 199
2181 4 2 1 1 415 226 120 413
2182 4 2 1 1 399 62 99 259
2183 4 2 1 1 399 99 62 354
2184 4 2 1 1 420 326 317 327
2185 4 2 1 1 420 317 326 405
2186 4 2 1 1 428 121 83 205
2187 4 2 1 1 428 83 121 386
2188 4 2 1 1 425 294 379 400
2189 4 2 1 1 425 379 294 349
2190 4 2 1 1 326 338 406 319
2191 4 2 1 1 349 425 406 338
2192 4 2 1 1 406 425 349 4
2193 4 2 1 1 406 326 349 338
2194 4 2 1 1 349 326 406 4
$EndElements
